<?xml version="1.0" encoding="utf-8"?>
<!-- Generator: Adobe Illustrator 27.4.1, SVG Export Plug-In . SVG Version: 6.00 Build 0)  -->
<svg version="1.1" id="图层_1" xmlns="http://www.w3.org/2000/svg" xmlns:xlink="http://www.w3.org/1999/xlink" x="0px" y="0px"
	 viewBox="0 0 703.9 703.5" style="enable-background:new 0 0 703.9 703.5;" xml:space="preserve">
<style type="text/css">
	.st0{fill:#1F78B4;stroke:#1F78B4;stroke-width:0.2466;stroke-linecap:square;stroke-miterlimit:2.4665;}
	.st1{fill:#33A02C;stroke:#33A02C;stroke-width:0.2466;stroke-linecap:square;stroke-miterlimit:2.4665;}
	.st2{fill:#A6CEE3;stroke:#A6CEE3;stroke-width:0.2466;stroke-linecap:square;stroke-miterlimit:2.4665;}
	.st3{fill:#B2DF8A;stroke:#B2DF8A;stroke-width:0.2466;stroke-linecap:square;stroke-miterlimit:2.4665;}
	
		.st4{fill:none;stroke:#AAAAAA;stroke-width:7.399500e-02;stroke-linecap:round;stroke-miterlimit:2.4665;stroke-dasharray:1.2333,2.4665;stroke-dashoffset:2;}
	.st5{font-family:'ArialMT';}
	.st6{font-size:3.9464px;}
	.st7{fill:none;stroke:#000000;stroke-width:0.2466;stroke-linecap:round;stroke-miterlimit:2.4665;}
</style>
<g id="mainHolder" transform="translate(753.31629,448.31021) rotate(-150) scale(0.24665,0.24665)">
	<g id="rangeHolder">
		<path class="st0" d="M2609.2-424.8l394,19.5c0.8-15.3,1.3-30.7,1.5-46l-394.4-6.5C2610.1-446.8,2609.8-435.8,2609.2-424.8"/>
		<path class="st0" d="M2610.3-457.8l394.4,6.5c0.3-15.3,0.3-30.7,0-46l-394.4,6.5C2610.5-479.8,2610.5-468.8,2610.3-457.8"/>
		<path class="st0" d="M2199.4,333.9l232.3,318.8c12.4-9,24.7-18.3,36.8-27.7l-242.7-311C2217.1,320.8,2208.3,327.4,2199.4,333.9"/>
		<path class="st0" d="M2225.7,314l242.7,311c12.1-9.4,24-19.1,35.8-28.9l-252.9-302.8C2243,300.3,2234.4,307.2,2225.7,314"/>
		<path class="st0" d="M2251.4,293.3l252.9,302.8c11.8-9.8,23.4-19.9,34.8-30.1l-262.7-294.3C2268.2,279,2259.9,286.2,2251.4,293.3"
			/>
		<path class="st0" d="M2276.4,271.7L2539.1,566c11.4-10.2,22.7-20.6,33.8-31.2l-272.3-285.4
			C2292.7,256.9,2284.6,264.4,2276.4,271.7"/>
		<path class="st0" d="M1998.6,447.3l153.1,363.6c14.1-6,28.2-12.1,42.1-18.6l-165-358.3C2018.8,438.6,2008.7,443.1,1998.6,447.3"/>
		<path class="st0" d="M2028.8,434l165,358.3c13.9-6.4,27.8-13.1,41.5-19.9l-176.8-352.7C2048.7,424.6,2038.8,429.4,2028.8,434"/>
		<path class="st0" d="M2058.5,419.7l176.8,352.7c13.7-6.9,27.3-14,40.8-21.3l-188.3-346.6C2078.1,409.7,2068.4,414.8,2058.5,419.7"
			/>
		<path class="st0" d="M2087.8,404.4L2276.1,751c13.5-7.3,26.9-14.9,40.1-22.6l-199.7-340.2C2107.1,393.8,2097.5,399.2,2087.8,404.4
			"/>
		<path class="st0" d="M2116.6,388.2l199.7,340.2c13.2-7.8,26.3-15.8,39.3-24L2144.8,371C2135.4,376.9,2126,382.6,2116.6,388.2"/>
		<path class="st0" d="M2144.8,371l210.8,333.4c13-8.2,25.8-16.6,38.5-25.2l-221.7-326.3C2163.3,359.1,2154.1,365.1,2144.8,371"/>
		<path class="st0" d="M2172.4,352.9L2394,679.2c12.7-8.6,25.2-17.5,37.7-26.5l-232.3-318.8C2190.5,340.4,2181.5,346.7,2172.4,352.9
			"/>
		<path class="st0" d="M2300.7,249.3L2573,534.7c11.1-10.6,22-21.4,32.8-32.3l-281.6-276.3C2316.5,234,2308.6,241.7,2300.7,249.3"/>
		<path class="st0" d="M2324.2,226.1l281.6,276.3c10.8-11,21.3-22.1,31.7-33.4l-290.5-266.8C2339.5,210.3,2331.9,218.3,2324.2,226.1
			"/>
		<path class="st0" d="M998.9,316.9L757.6,629c12.1,9.4,24.4,18.6,36.9,27.6l230.8-319.9C1016.4,330.2,1007.6,323.6,998.9,316.9"/>
		<path class="st0" d="M877.2,205.6L587.9,473.9c10.4,11.3,21.1,22.3,31.9,33.2L900,229.5C892.3,221.7,884.6,213.7,877.2,205.6"/>
		<path class="st0" d="M833.9,155.8L527.6,404.3c9.7,11.9,19.5,23.7,29.6,35.3l298-258.5C847.9,172.7,840.8,164.3,833.9,155.8"/>
		<path class="st0" d="M855.1,181.1l-298,258.5c10.1,11.6,20.3,23,30.7,34.3l289.3-268.2C869.7,197.6,862.3,189.4,855.1,181.1"/>
		<path class="st0" d="M900,229.5L619.8,507.1c10.8,10.9,21.8,21.6,32.9,32.2l270.9-286.7C915.6,245,907.8,237.3,900,229.5"/>
		<path class="st0" d="M923.6,252.5L652.7,539.3c11.2,10.5,22.5,20.9,34,31.1L948,274.8C939.8,267.5,931.6,260.1,923.6,252.5"/>
		<path class="st0" d="M948,274.8L686.7,570.3c11.5,10.2,23.2,20.1,35,29.9l251.4-304C964.6,289.3,956.2,282.1,948,274.8"/>
		<path class="st0" d="M973.1,296.3l-251.4,304c11.8,9.8,23.8,19.4,36,28.8l241.2-312.1C990.2,310.2,981.6,303.3,973.1,296.3"/>
		<path class="st0" d="M1025.3,336.7L794.5,656.6c12.4,9,25,17.8,37.8,26.3l220.1-327.3C1043.3,349.4,1034.3,343.1,1025.3,336.7"/>
		<path class="st0" d="M1052.4,355.5L832.3,682.9c12.7,8.6,25.6,16.9,38.6,25.1l209.2-334.4C1070.8,367.7,1061.6,361.7,1052.4,355.5
			"/>
		<path class="st0" d="M2346.9,202.2L2637.4,469c10.4-11.3,20.6-22.8,30.6-34.4l-299.2-257.1
			C2361.7,185.8,2354.4,194.1,2346.9,202.2"/>
		<path class="st0" d="M2571.3-197.3l379,109.3c4.3-14.7,8.3-29.6,12-44.4l-382.4-96.7C2577.2-218.5,2574.4-207.9,2571.3-197.3"/>
		<path class="st0" d="M2579.9-229.2l382.4,96.7c3.8-14.9,7.3-29.8,10.5-44.8l-385.4-84C2585.2-250.5,2582.6-239.8,2579.9-229.2"/>
		<path class="st0" d="M2587.5-261.3l385.4,84c3.3-15,6.3-30,9.1-45.1l-388-71.2C2592-282.8,2589.8-272.1,2587.5-261.3"/>
		<path class="st0" d="M2594-293.7l388,71.2c2.8-15.1,5.3-30.2,7.6-45.4l-390.1-58.4C2597.8-315.4,2596-304.5,2594-293.7"/>
		<path class="st0" d="M2599.4-326.2l390.1,58.4c2.3-15.2,4.3-30.4,6.1-45.6L2603.8-359C2602.5-348,2601.1-337.1,2599.4-326.2"/>
		<path class="st0" d="M2465.7,44L2803,248.4c8-13.1,15.7-26.4,23.2-39.8L2482.3,15.5C2476.9,25.1,2471.4,34.6,2465.7,44"/>
		<path class="st0" d="M2482.3,15.5l343.9,193.2c7.5-13.4,14.8-26.9,21.9-40.5L2498-13.6C2492.9-3.8,2487.7,5.9,2482.3,15.5"/>
		<path class="st0" d="M2498-13.6l350.1,181.7c7.1-13.6,13.9-27.4,20.5-41.2L2512.7-43.1C2508-33.2,2503.1-23.4,2498-13.6"/>
		<path class="st0" d="M2512.7-43.1l355.9,170.1c6.6-13.8,13-27.8,19.2-41.9L2526.5-73.2C2522-63.1,2517.5-53.1,2512.7-43.1"/>
		<path class="st0" d="M2368.9,177.5L2668,434.6c10-11.6,19.8-23.4,29.4-35.4L2390,152.1C2383.1,160.7,2376,169.1,2368.9,177.5"/>
		<path class="st0" d="M2390,152.1l307.5,247.1c9.6-12,19-24.1,28.2-36.4L2410.2,126C2403.6,134.8,2396.9,143.5,2390,152.1"/>
		<path class="st0" d="M2410.2,126l315.5,236.8c9.2-12.3,18.2-24.7,27-37.3L2429.6,99.3C2423.3,108.3,2416.8,117.2,2410.2,126"/>
		<path class="st0" d="M2429.6,99.3l323.1,226.3c8.8-12.6,17.4-25.3,25.8-38.1L2448.1,71.9C2442.1,81.2,2435.9,90.3,2429.6,99.3"/>
		<path class="st0" d="M2448.1,71.9l330.4,215.5c8.4-12.9,16.6-25.9,24.5-39L2465.7,44C2460,53.4,2454.1,62.7,2448.1,71.9"/>
		<path class="st0" d="M2550.9-134.5l371,134c5.2-14.4,10.2-29,14.9-43.6l-375.2-121.7C2558.2-155.2,2554.7-144.8,2550.9-134.5"/>
		<path class="st0" d="M2526.5-73.2l361.3,158.2c6.2-14.1,12.1-28.2,17.8-42.5l-366.4-146.2C2535.1-93.4,2530.9-83.2,2526.5-73.2"/>
		<path class="st0" d="M2539.2-103.6l366.4,146.2c5.7-14.3,11.1-28.6,16.4-43l-371-134C2547.2-124.1,2543.3-113.8,2539.2-103.6"/>
		<path class="st0" d="M2561.6-165.7L2936.9-44c4.7-14.6,9.2-29.3,13.5-44l-379-109.3C2568.3-186.7,2565-176.2,2561.6-165.7"/>
		<path class="st0" d="M2603.8-359l391.8,45.5c1.8-15.2,3.3-30.5,4.6-45.8L2607-391.8C2606.1-380.9,2605-369.9,2603.8-359"/>
		<path class="st0" d="M2607-391.8l393.1,32.5c1.3-15.3,2.3-30.6,3-45.9l-394-19.5C2608.7-413.8,2607.9-402.8,2607-391.8"/>
		<path class="st1" d="M1342.5-1437.7l-105.7-380.1c-14.8,4.1-29.5,8.5-44.2,13.1l118.2,376.4
			C1321.4-1431.7,1331.9-1434.8,1342.5-1437.7"/>
		<path class="st1" d="M1310.9-1428.4l-118.2-376.4c-14.6,4.6-29.2,9.4-43.7,14.5l130.5,372.3
			C1289.9-1421.6,1300.4-1425.1,1310.9-1428.4"/>
		<path class="st1" d="M1279.5-1417.9L1149-1790.2c-14.5,5.1-28.9,10.4-43.2,16l142.8,367.7
			C1258.8-1410.5,1269.1-1414.3,1279.5-1417.9"/>
		<path class="st1" d="M1248.6-1406.5l-142.8-367.7c-14.3,5.6-28.5,11.3-42.6,17.4l154.8,362.8
			C1228.1-1398.4,1238.3-1402.5,1248.6-1406.5"/>
		<path class="st1" d="M1218-1394.1l-154.8-362.8c-14.1,6-28.1,12.3-42,18.8l166.7,357.5C1197.8-1385.2,1207.8-1389.7,1218-1394.1"
			/>
		<path class="st1" d="M1187.8-1380.6l-166.7-357.5c-13.9,6.5-27.7,13.2-41.4,20.1l178.4,351.8
			C1167.9-1371.1,1177.8-1375.9,1187.8-1380.6"/>
		<path class="st1" d="M1158.1-1366.1L979.7-1718c-13.7,6.9-27.3,14.1-40.7,21.5l189.9,345.7
			C1138.6-1356,1148.3-1361.2,1158.1-1366.1"/>
		<path class="st1" d="M1128.9-1350.7L939-1696.5c-13.5,7.4-26.8,15-40,22.8l201.3,339.3C1109.7-1340,1119.3-1345.4,1128.9-1350.7"
			/>
		<path class="st1" d="M1100.3-1334.4L899-1673.6c-13.2,7.8-26.3,15.9-39.2,24.1l212.3,332.4
			C1081.4-1323,1090.8-1328.7,1100.3-1334.4"/>
		<path class="st1" d="M1072.1-1317l-212.3-332.4c-12.9,8.3-25.7,16.7-38.4,25.4l223.2,325.3C1053.7-1305,1062.9-1311.1,1072.1-1317
			"/>
		<path class="st1" d="M1044.6-1298.8l-223.2-325.3c-12.7,8.7-25.2,17.6-37.5,26.7l233.8,317.7
			C1026.6-1286.2,1035.5-1292.6,1044.6-1298.8"/>
		<path class="st1" d="M1017.7-1279.7l-233.8-317.7c-12.4,9.1-24.6,18.4-36.6,27.9l244.2,309.8
			C1000.1-1266.5,1008.8-1273.2,1017.7-1279.7"/>
		<path class="st1" d="M807.8-1070.8l-316.6-235.3c-9.2,12.3-18.1,24.8-26.9,37.4L788.6-1044C794.9-1053,801.3-1062,807.8-1070.8"/>
		<path class="st1" d="M788.6-1044l-324.2-224.7c-8.7,12.6-17.3,25.4-25.6,38.3l331.4,213.9C776.2-1025.8,782.3-1034.9,788.6-1044"
			/>
		<path class="st1" d="M991.4-1259.7l-244.2-309.8c-12.1,9.5-24,19.2-35.7,29.1l254.3,301.6C974.3-1245.9,982.8-1252.9,991.4-1259.7
			"/>
		<path class="st1" d="M965.8-1238.8l-254.3-301.6c-11.7,9.9-23.3,20-34.7,30.3l264.1,293C949.1-1224.5,957.4-1231.7,965.8-1238.8"
			/>
		<path class="st1" d="M941-1217.1l-264.1-293c-11.4,10.3-22.6,20.7-33.7,31.4l273.6,284.2C924.7-1202.2,932.8-1209.7,941-1217.1"/>
		<path class="st1" d="M916.8-1194.6l-273.6-284.2c-11.1,10.6-21.9,21.5-32.6,32.5l282.9,275C901.1-1179.2,908.9-1187,916.8-1194.6"
			/>
		<path class="st1" d="M893.4-1171.3l-282.9-275c-10.7,11-21.2,22.2-31.5,33.5l291.8,265.5C878.2-1155.4,885.7-1163.4,893.4-1171.3"
			/>
		<path class="st1" d="M870.8-1147.3L579-1412.7c-10.3,11.4-20.5,22.9-30.4,34.6L849-1122.5C856.1-1130.9,863.4-1139.1,870.8-1147.3
			"/>
		<path class="st1" d="M849-1122.5l-300.4-255.7c-9.9,11.7-19.7,23.5-29.3,35.5L828-1097C834.8-1105.6,841.8-1114.1,849-1122.5"/>
		<path class="st1" d="M828-1097l-308.7-245.6c-9.6,12-18.9,24.2-28.1,36.5l316.6,235.3C814.4-1079.6,821.1-1088.4,828-1097"/>
		<path class="st1" d="M736.3-959.9l-344.8-191.6c-7.5,13.4-14.7,27-21.7,40.6l351,180.1C725.7-940.6,730.9-950.3,736.3-959.9"/>
		<path class="st1" d="M770.2-1016.5l-331.4-213.9c-8.3,12.9-16.4,25.9-24.3,39.1l338.3,202.9C758.4-998,764.3-1007.3,770.2-1016.5"
			/>
		<path class="st1" d="M752.8-988.5l-338.3-202.9c-7.9,13.2-15.6,26.5-23,39.9l344.8,191.6C741.6-969.5,747.1-979.1,752.8-988.5"/>
		<path class="st1" d="M720.7-930.8l-351-180.1c-7,13.7-13.8,27.4-20.3,41.3l356.7,168.4C710.8-911.1,715.7-921,720.7-930.8"/>
		<path class="st1" d="M706.1-901.2l-356.7-168.4c-6.6,13.9-12.9,27.9-19,42l362.1,156.5C696.9-881.2,701.4-891.2,706.1-901.2"/>
		<path class="st1" d="M692.5-871.1l-362.1-156.5c-6.1,14.1-11.9,28.3-17.6,42.6l367.1,144.5C684-850.8,688.2-861,692.5-871.1"/>
		<path class="st1" d="M679.9-840.6L312.9-985.1c-5.6,14.3-11,28.7-16.2,43.1l371.6,132.3C672-820,675.9-830.3,679.9-840.6"/>
		<path class="st1" d="M657.8-778.4L282-898.3c-4.7,14.6-9.1,29.3-13.3,44.1l379.6,107.5C651.3-757.3,654.4-767.9,657.8-778.4"/>
		<path class="st1" d="M668.4-809.6L296.7-941.9c-5.1,14.5-10.1,29-14.7,43.6l375.8,120C661.1-788.8,664.7-799.3,668.4-809.6"/>
		<path class="st1" d="M648.3-746.7L268.7-854.2c-4.2,14.8-8.1,29.6-11.8,44.5l382.9,94.9C642.5-725.5,645.3-736.2,648.3-746.7"/>
		<path class="st1" d="M626-650.3l-388.3-69.4c-2.7,15.1-5.2,30.3-7.4,45.5l390.4,56.6C622.3-628.6,624.1-639.4,626-650.3"/>
		<path class="st1" d="M639.8-714.8l-382.9-94.9c-3.7,14.9-7.1,29.9-10.3,44.9l385.8,82.2C634.7-693.4,637.2-704.1,639.8-714.8"/>
		<path class="st1" d="M632.4-682.7l-385.8-82.2c-3.2,15-6.1,30.1-8.8,45.2L626-650.3C628-661.1,630.1-671.9,632.4-682.7"/>
		<path class="st1" d="M620.8-617.7l-390.4-56.6c-2.2,15.2-4.2,30.4-5.8,45.7l392.1,43.6C617.8-595.8,619.2-606.8,620.8-617.7"/>
		<path class="st1" d="M616.6-584.9l-392.1-43.6c-1.7,15.3-3.1,30.5-4.3,45.8L613.5-552C614.3-563,615.4-574,616.6-584.9"/>
		<path class="st1" d="M613.5-552l-393.3-30.7c-1.2,15.3-2.1,30.6-2.8,46l394.1,17.7C611.9-530.1,612.6-541.1,613.5-552"/>
		<path class="st1" d="M611.4-519.1l-394.1-17.7c-0.7,15.3-1.1,30.7-1.3,46l394.4,4.7C610.6-497.1,611-508.1,611.4-519.1"/>
		<path class="st1" d="M610.5-486.1l-394.4-4.7c-0.2,15.3-0.1,30.7,0.2,46l394.4-8.4C610.4-464.1,610.4-475.1,610.5-486.1"/>
		<path class="st1" d="M610.7-453.1l-394.4,8.4c0.3,15.3,0.9,30.7,1.7,46l393.9-21.4C611.3-431.1,610.9-442.1,610.7-453.1"/>
		<path class="st1" d="M611.9-420.1L218-398.7c0.8,15.3,1.9,30.6,3.3,45.9l393-34.4C613.3-398.1,612.5-409.1,611.9-420.1"/>
		<path class="st1" d="M2108.4-1341.5l196.4-342.1c-13.3-7.6-26.7-15.1-40.3-22.3l-185,348.4
			C2089.2-1352.3,2098.9-1347,2108.4-1341.5"/>
		<path class="st1" d="M2079.5-1357.5l185-348.4c-13.6-7.2-27.2-14.2-41-20.9l-173.4,354.3C2060-1367.6,2069.8-1362.6,2079.5-1357.5
			"/>
		<path class="st1" d="M2050.1-1372.5l173.4-354.3c-13.8-6.7-27.7-13.3-41.7-19.6l-161.6,359.8
			C2030.2-1382,2040.2-1377.3,2050.1-1372.5"/>
		<path class="st1" d="M2317.5-1181.4l278.9-278.9c-10.9-10.9-21.9-21.5-33.1-32l-269.6,288
			C2301.9-1196.8,2309.8-1189.2,2317.5-1181.4"/>
		<path class="st1" d="M2293.8-1204.4l269.6-288c-11.2-10.5-22.6-20.8-34.1-30.9l-259.9,296.7
			C2277.6-1219.3,2285.8-1211.9,2293.8-1204.4"/>
		<path class="st1" d="M2269.3-1226.5l259.9-296.7c-11.5-10.1-23.3-20-35.1-29.8l-250,305.2
			C2252.7-1240.9,2261.1-1233.8,2269.3-1226.5"/>
		<path class="st1" d="M2244.1-1247.9l250-305.2c-11.9-9.7-23.9-19.3-36.1-28.6l-239.8,313.2
			C2227-1261.7,2235.6-1254.8,2244.1-1247.9"/>
		<path class="st1" d="M2218.3-1268.4l239.8-313.2c-12.2-9.3-24.5-18.5-37-27.4l-229.3,321C2200.7-1281.6,2209.5-1275,2218.3-1268.4
			"/>
		<path class="st1" d="M2191.7-1288l229.3-321c-12.5-8.9-25.1-17.6-37.9-26.1l-218.6,328.4C2173.7-1300.6,2182.8-1294.4,2191.7-1288
			"/>
		<path class="st1" d="M2164.5-1306.7l218.6-328.4c-12.8-8.5-25.7-16.8-38.7-24.9l-207.6,335.4
			C2146.1-1318.8,2155.4-1312.8,2164.5-1306.7"/>
		<path class="st1" d="M2136.8-1324.6l207.6-335.4c-13.1-8.1-26.2-15.9-39.5-23.6l-196.4,342.1
			C2117.9-1336,2127.4-1330.4,2136.8-1324.6"/>
		<path class="st1" d="M2577.6-728.5l381.5-100.3c-3.9-14.8-8.1-29.6-12.4-44.3l-378,112.8C2571.8-749.8,2574.8-739.2,2577.6-728.5"
			/>
		<path class="st1" d="M2568.7-760.3l378-112.8c-4.4-14.7-9-29.3-13.9-43.9l-374.1,125.3C2562.2-781.4,2565.5-770.9,2568.7-760.3"/>
		<path class="st1" d="M2598-631.7l389.6-62.1c-2.4-15.2-5.1-30.3-8-45.3l-387.3,74.9C2594.3-653.4,2596.2-642.5,2598-631.7"/>
		<path class="st1" d="M2592.2-664.2l387.3-74.9c-2.9-15.1-6.1-30.1-9.5-45.1l-384.6,87.6C2587.9-685.7,2590.2-675,2592.2-664.2"/>
		<path class="st1" d="M2585.4-696.5l384.6-87.6c-3.4-15-7.1-29.9-11-44.7l-381.5,100.3C2580.4-717.9,2583-707.2,2585.4-696.5"/>
		<path class="st1" d="M2522.6-884l359.8-161.6c-6.3-14-12.8-27.9-19.6-41.7l-354.3,173.4C2513.5-904,2518.1-894.1,2522.6-884"/>
		<path class="st1" d="M2535.7-853.7l365-149.7c-5.8-14.2-11.9-28.3-18.2-42.3L2522.6-884C2527.1-874,2531.5-863.9,2535.7-853.7"/>
		<path class="st1" d="M2558.7-791.8l374.1-125.3c-4.9-14.6-10-29-15.3-43.4l-369.7,137.5C2551.5-812.6,2555.2-802.3,2558.7-791.8"
			/>
		<path class="st1" d="M2547.7-822.9l369.7-137.5c-5.4-14.4-10.9-28.7-16.8-42.9l-365,149.7C2539.8-843.5,2543.9-833.3,2547.7-822.9
			"/>
		<path class="st1" d="M2508.6-913.9l354.3-173.4c-6.7-13.8-13.7-27.5-20.9-41l-348.4,185C2498.8-933.6,2503.8-923.8,2508.6-913.9"
			/>
		<path class="st1" d="M2493.6-943.3l348.4-185c-7.2-13.6-14.6-27-22.3-40.3l-342.1,196.4C2483.1-962.7,2488.4-953.1,2493.6-943.3"
			/>
		<path class="st1" d="M2477.6-972.2l342.1-196.4c-7.6-13.3-15.5-26.5-23.6-39.5l-335.4,207.6
			C2466.5-991.2,2472.2-981.8,2477.6-972.2"/>
		<path class="st1" d="M2460.7-1000.6l335.4-207.6c-8.1-13.1-16.4-26-24.9-38.7l-328.4,218.6C2449-1019.2,2454.9-1010,2460.7-1000.6
			"/>
		<path class="st1" d="M2442.9-1028.4l328.4-218.6c-8.5-12.8-17.2-25.4-26.1-37.9l-321,229.3
			C2430.5-1046.6,2436.8-1037.5,2442.9-1028.4"/>
		<path class="st1" d="M2424.1-1055.6l321-229.3c-8.9-12.5-18-24.8-27.4-37l-313.2,239.8C2411.2-1073.4,2417.7-1064.5,2424.1-1055.6
			"/>
		<path class="st1" d="M2404.5-1082.1l313.2-239.8c-9.3-12.2-18.9-24.2-28.6-36.1L2384-1108
			C2391-1099.5,2397.8-1090.9,2404.5-1082.1"/>
		<path class="st1" d="M2340.5-1157.7l288-269.6c-10.5-11.2-21.2-22.2-32-33.1l-278.9,278.9
			C2325.3-1173.6,2333-1165.7,2340.5-1157.7"/>
		<path class="st1" d="M2384-1108l305.2-250c-9.7-11.9-19.6-23.6-29.8-35.1l-296.7,259.9C2369.9-1124.9,2377-1116.5,2384-1108"/>
		<path class="st1" d="M2362.7-1133.2l296.7-259.9c-10.1-11.5-20.4-22.9-30.9-34.1l-288,269.6
			C2348-1149.6,2355.4-1141.5,2362.7-1133.2"/>
		<path class="st1" d="M1439.1-1459.5l-67.6-388.6c-15.1,2.6-30.2,5.5-45.2,8.6l80.4,386.2
			C1417.5-1455.5,1428.3-1457.6,1439.1-1459.5"/>
		<path class="st1" d="M1406.7-1453.3l-80.4-386.2c-15,3.1-30,6.5-44.9,10.1l93.1,383.3C1385.2-1448.6,1395.9-1451.1,1406.7-1453.3"
			/>
		<path class="st1" d="M1570.4-1473.5l-15.8-394.2c-15.3,0.6-30.7,1.5-46,2.6l28.8,393.4C1548.4-1472.4,1559.4-1473,1570.4-1473.5"
			/>
		<path class="st1" d="M1537.4-1471.6l-28.8-393.4c-15.3,1.1-30.6,2.5-45.9,4.1l41.8,392.3
			C1515.4-1469.8,1526.4-1470.8,1537.4-1471.6"/>
		<path class="st1" d="M1504.5-1468.7l-41.8-392.3c-15.3,1.6-30.5,3.5-45.7,5.6l54.7,390.7
			C1482.6-1466.1,1493.6-1467.5,1504.5-1468.7"/>
		<path class="st1" d="M1471.7-1464.6l-54.7-390.7c-15.2,2.1-30.4,4.5-45.5,7.1l67.6,388.6C1450-1461.4,1460.8-1463.1,1471.7-1464.6
			"/>
		<path class="st1" d="M1767.8-1461.8l62.1-389.6c-15.2-2.4-30.4-4.6-45.6-6.5l-49.2,391.4C1746-1465.1,1756.9-1463.6,1767.8-1461.8
			"/>
		<path class="st1" d="M1735.1-1466.5l49.2-391.4c-15.2-1.9-30.5-3.6-45.8-5l-36.2,392.8C1713.3-1469,1724.2-1467.9,1735.1-1466.5"
			/>
		<path class="st1" d="M1702.3-1470.1l36.2-392.8c-15.3-1.4-30.6-2.6-45.9-3.5l-23.2,393.8
			C1680.4-1471.9,1691.3-1471.1,1702.3-1470.1"/>
		<path class="st1" d="M1669.4-1472.5l23.2-393.8c-15.3-0.9-30.7-1.6-46-2l-10.2,394.3C1647.4-1473.7,1658.4-1473.2,1669.4-1472.5"
			/>
		<path class="st1" d="M1636.4-1473.9l10.2-394.3c-15.3-0.4-30.7-0.5-46-0.4l2.8,394.5C1614.4-1474.3,1625.4-1474.2,1636.4-1473.9"
			/>
		<path class="st1" d="M1603.4-1474.3l-2.8-394.5c-15.3,0.1-30.7,0.5-46,1.1l15.8,394.2C1581.4-1473.9,1592.4-1474.2,1603.4-1474.3"
			/>
		<path class="st1" d="M1832.6-1449.3l87.6-384.6c-15-3.4-30-6.6-45.1-9.5l-74.9,387.3C1811.1-1454,1821.9-1451.7,1832.6-1449.3"/>
		<path class="st1" d="M1800.3-1456.1l74.9-387.3c-15.1-2.9-30.2-5.6-45.3-8l-62.1,389.6C1778.7-1460.1,1789.5-1458.2,1800.3-1456.1
			"/>
		<path class="st1" d="M2020.2-1386.5l161.6-359.8c-14-6.3-28.1-12.3-42.3-18.2l-149.7,365C2000-1395.3,2010.2-1391,2020.2-1386.5"
			/>
		<path class="st1" d="M1989.9-1399.5l149.7-365c-14.2-5.8-28.5-11.4-42.9-16.8l-137.5,369.7
			C1969.4-1407.7,1979.7-1403.7,1989.9-1399.5"/>
		<path class="st1" d="M1959.1-1411.5l137.5-369.7c-14.4-5.4-28.9-10.5-43.4-15.3L1928-1422.5
			C1938.4-1419,1948.8-1415.4,1959.1-1411.5"/>
		<path class="st1" d="M1928-1422.5l125.3-374.1c-14.6-4.9-29.2-9.5-43.9-13.9l-112.8,378C1907-1429.4,1917.5-1426,1928-1422.5"/>
		<path class="st1" d="M1896.5-1432.5l112.8-378c-14.7-4.4-29.5-8.5-44.3-12.4l-100.3,381.5
			C1875.3-1438.6,1885.9-1435.6,1896.5-1432.5"/>
		<path class="st1" d="M1864.7-1441.4l100.3-381.5c-14.8-3.9-29.8-7.6-44.7-11l-87.6,384.6
			C1843.4-1446.8,1854.1-1444.2,1864.7-1441.4"/>
		<path class="st1" d="M622.2-321.6l-389.9,60.2c2.3,15.2,4.9,30.3,7.8,45.4L627.7-289C625.7-299.9,623.8-310.7,622.2-321.6"/>
		<path class="st1" d="M614.2-387.1l-393,34.4c1.3,15.3,2.9,30.6,4.8,45.8l391.6-47.3C616.3-365.2,615.2-376.2,614.2-387.1"/>
		<path class="st1" d="M617.7-354.3L226-307c1.8,15.2,3.9,30.4,6.3,45.6l389.9-60.2C620.5-332.5,619-343.4,617.7-354.3"/>
		<path class="st1" d="M627.7-289L240.1-216c2.8,15.1,5.9,30.1,9.3,45.1l385-85.8C632-267.4,629.8-278.2,627.7-289"/>
		<path class="st1" d="M634.4-256.7l-385,85.8c3.3,15,6.9,29.9,10.8,44.8l382-98.5C639.4-235.2,636.8-246,634.4-256.7"/>
		<path class="st1" d="M642.1-224.6l-382,98.5c3.8,14.9,7.9,29.7,12.2,44.4l378.5-111.1C647.8-203.3,644.9-213.9,642.1-224.6"/>
		<path class="st1" d="M650.9-192.8L272.4-81.7c4.3,14.7,8.9,29.4,13.7,44l374.6-123.5C657.3-171.7,654-182.2,650.9-192.8"/>
		<path class="st1" d="M660.7-161.2L286.1-37.7c4.8,14.6,9.9,29.1,15.1,43.5L671.6-130C667.8-140.4,664.1-150.8,660.7-161.2"/>
		<path class="st1" d="M671.6-130L301.2,5.7c5.3,14.4,10.8,28.7,16.6,43L683.4-99.2C679.3-109.4,675.3-119.7,671.6-130"/>
		<path class="st1" d="M683.4-99.2L317.8,48.7c5.8,14.2,11.7,28.4,18,42.4L696.3-68.8C691.9-78.9,687.6-89,683.4-99.2"/>
		<path class="st1" d="M696.3-68.8L335.7,91.1c6.2,14,12.7,28,19.4,41.8L710.2-38.9C705.4-48.8,700.8-58.8,696.3-68.8"/>
		<path class="st1" d="M757.7,48L421.3,254c8,13.1,16.2,26,24.7,38.9l329.4-217C769.3,66.7,763.4,57.4,757.7,48"/>
		<path class="st1" d="M740.9,19.6l-343,194.8c7.6,13.3,15.4,26.6,23.4,39.7L757.7,48C751.9,38.6,746.3,29.1,740.9,19.6"/>
		<path class="st1" d="M710.2-38.9L355.1,132.9c6.7,13.8,13.6,27.5,20.7,41.1L725.1-9.4C720-19.1,715-29,710.2-38.9"/>
		<path class="st1" d="M725.1-9.4L375.8,174c7.1,13.6,14.5,27.1,22.1,40.4l343-194.8C735.5,10,730.2,0.3,725.1-9.4"/>
		<path class="st1" d="M813.5,129.8L499.1,368.1c9.3,12.2,18.7,24.3,28.4,36.2l306.3-248.5C827,147.2,820.2,138.6,813.5,129.8"/>
		<path class="st1" d="M775.4,75.9L446,292.9c8.4,12.8,17.1,25.5,26,38L794,103.1C787.6,94.2,781.4,85.1,775.4,75.9"/>
		<path class="st1" d="M794,103.1L471.9,330.9c8.9,12.5,17.9,24.9,27.2,37.1l314.4-238.3C806.9,121,800.4,112.1,794,103.1"/>
		<path class="st1" d="M1137.2,406.7L950.6,754.2c13.5,7.3,27.2,14.3,40.9,21.1l175.1-353.5C1156.7,416.9,1146.9,411.9,1137.2,406.7
			"/>
		<path class="st1" d="M1080.1,373.5L870.9,708c13,8.1,26.2,16.1,39.4,23.8l198-341.2C1098.9,385,1089.5,379.4,1080.1,373.5"/>
		<path class="st1" d="M1108.4,390.6l-198,341.2c13.3,7.7,26.7,15.2,40.2,22.5l186.7-347.5C1127.5,401.5,1117.9,396.1,1108.4,390.6"
			/>
		<path class="st1" d="M1166.6,421.8L991.5,775.3c13.8,6.8,27.6,13.4,41.6,19.8L1196.4,436C1186.4,431.4,1176.4,426.7,1166.6,421.8"
			/>
		<path class="st1" d="M1196.4,436L1033.1,795c14,6.4,28,12.5,42.2,18.4l151.4-364.3C1216.5,444.9,1206.4,440.5,1196.4,436"/>
		<path class="st1" d="M1226.7,449.1l-151.4,364.3c14.2,5.9,28.4,11.5,42.8,17l139.3-369.1C1247.1,457.4,1236.8,453.4,1226.7,449.1"
			/>
		<path class="st1" d="M1257.4,461.3l-139.3,369.1c14.4,5.4,28.8,10.6,43.3,15.5l127-373.5C1278,468.9,1267.7,465.2,1257.4,461.3"/>
		<path class="st1" d="M1288.4,472.5l-127,373.5c14.5,4.9,29.1,9.6,43.8,14.1l114.6-377.5C1309.3,479.4,1298.9,476,1288.4,472.5"/>
		<path class="st1" d="M1319.9,482.6L1205.3,860c14.7,4.5,29.4,8.7,44.3,12.6l102.1-381C1341,488.8,1330.4,485.8,1319.9,482.6"/>
		<path class="st1" d="M1351.6,491.6l-102.1,381c14.8,4,29.7,7.7,44.7,11.2l89.5-384.2C1372.9,497.2,1362.3,494.5,1351.6,491.6"/>
		<path class="st1" d="M1383.7,499.7l-89.5,384.2c14.9,3.5,30,6.7,45,9.7l76.7-386.9C1405.1,504.5,1394.4,502.2,1383.7,499.7"/>
		<path class="st1" d="M1415.9,506.6l-76.7,386.9c15.1,3,30.2,5.7,45.3,8.2l63.9-389.3C1437.6,510.7,1426.7,508.8,1415.9,506.6"/>
		<path class="st1" d="M1448.4,512.5l-63.9,389.3c15.1,2.5,30.3,4.7,45.6,6.7l51-391.2C1470.2,515.9,1459.3,514.3,1448.4,512.5"/>
		<path class="st1" d="M1481.1,517.3l-51,391.2c15.2,2,30.5,3.7,45.7,5.2l38.1-392.6C1502.9,520,1492,518.7,1481.1,517.3"/>
		<path class="st1" d="M1513.9,521l-38.1,392.6c15.3,1.5,30.6,2.7,45.9,3.7l25.1-393.7C1535.8,523,1524.8,522.1,1513.9,521"/>
		<path class="st2" d="M1374.5-1446l-93.1-383.3c-14.9,3.6-29.8,7.5-44.6,11.6l105.7,380.1C1353.1-1440.7,1363.8-1443.4,1374.5-1446
			"/>
		<path class="st3" d="M1711.7,520.6l39.9,392.4c15.3-1.6,30.5-3.4,45.7-5.4l-52.9-390.9C1733.6,518.2,1722.6,519.5,1711.7,520.6"/>
		<path class="st3" d="M1546.8,523.7l-25.1,393.7c15.3,1,30.7,1.7,46,2.2l12.1-394.3C1568.8,524.9,1557.8,524.4,1546.8,523.7"/>
		<path class="st3" d="M1579.8,525.2l-12.1,394.3c15.3,0.5,30.7,0.7,46,0.7l-0.9-394.5C1601.8,525.7,1590.8,525.6,1579.8,525.2"/>
		<path class="st3" d="M1612.8,525.7l0.9,394.5c15.3,0,30.7-0.3,46-0.9l-14-394.2C1634.8,525.5,1623.8,525.7,1612.8,525.7"/>
		<path class="st3" d="M1645.8,525.1l14,394.2c15.3-0.5,30.7-1.3,46-2.4l-27-393.6C1667.8,524.1,1656.8,524.7,1645.8,525.1"/>
		<path class="st3" d="M1678.8,523.4l27,393.6c15.3-1,30.6-2.4,45.9-3.9l-39.9-392.4C1700.7,521.7,1689.8,522.6,1678.8,523.4"/>
		<path class="st3" d="M1905.5,481.2l116.4,376.9c14.7-4.5,29.3-9.3,43.8-14.3l-128.8-372.9C1926.5,474.5,1916,477.9,1905.5,481.2"
			/>
		<path class="st3" d="M1744.5,516.7l52.9,390.9c15.2-2.1,30.4-4.4,45.5-6.9l-65.7-389C1766.3,513.6,1755.4,515.2,1744.5,516.7"/>
		<path class="st3" d="M1777.1,511.7l65.7,389c15.1-2.6,30.2-5.4,45.3-8.4l-78.6-386.6C1798.8,507.9,1788,509.9,1777.1,511.7"/>
		<path class="st3" d="M1809.6,505.7l78.6,386.6c15-3.1,30-6.4,45-9.9l-91.3-383.8C1831.1,501.1,1820.4,503.5,1809.6,505.7"/>
		<path class="st3" d="M1841.8,498.6l91.3,383.8c14.9-3.6,29.8-7.3,44.6-11.4l-103.9-380.5C1863.2,493.3,1852.5,496,1841.8,498.6"/>
		<path class="st3" d="M1873.8,490.4L1977.7,871c14.8-4,29.5-8.3,44.2-12.9l-116.4-376.9C1895,484.4,1884.4,487.5,1873.8,490.4"/>
		<path class="st3" d="M1936.9,470.9l128.8,372.9c14.5-5,28.9-10.3,43.3-15.7l-141-368.4C1957.6,463.6,1947.3,467.3,1936.9,470.9"/>
		<path class="st3" d="M1967.9,459.6l141,368.4c14.3-5.5,28.6-11.2,42.7-17.2l-153.1-363.6C1988.4,451.6,1978.2,455.7,1967.9,459.6"
			/>
	</g>
	<g id="rangeDatasetHolder">
	</g>
	<g id="pruningHolder">
	</g>
	<g id="treeHolder">
		<g>
			<path class="st4" d="M2600.2-648.8l-4.9,0.9"/>
			<text transform="matrix(-3.9927 0.704 -0.704 -3.9927 2658.0439 -663.881)" class="st5 st6">Pantoea</text>
			<path class="st7" d="M2595.2-647.9l-37.9,6.7"/>
		</g>
		<g>
			<path class="st4" d="M2593.9-681.4l-4.9,1"/>
			<text transform="matrix(-3.9673 0.8355 -0.8355 -3.9673 2651.2134 -698.3635)" class="st5 st6">Pantoea</text>
			<path class="st7" d="M2589-680.4l-37.6,7.9"/>
		</g>
		<g>
			<path class="st4" d="M2586.5-713.7l-4.9,1.2"/>
			<text transform="matrix(-3.9376 0.966 -0.966 -3.9376 2643.2473 -732.5982)" class="st5 st6">Pantoea</text>
			<path class="st7" d="M2581.6-712.5l-74.7,18.3"/>
		</g>
		<g>
			<path class="st4" d="M2578.1-745.8l-4.8,1.4"/>
			<text transform="matrix(-3.9035 1.0954 -1.0954 -3.9035 2634.1545 -766.5554)" class="st5 st6">Pantoea</text>
			<path class="st7" d="M2573.2-744.5l-37,10.4"/>
		</g>
		<g>
			<path class="st4" d="M2568.6-777.6l-4.8,1.5"/>
			<text transform="matrix(-3.8652 1.2237 -1.2237 -3.8652 2623.9504 -800.1935)" class="st5 st6">Pantoea</text>
			<path class="st7" d="M2563.8-776.1l-36.7,11.6"/>
		</g>
		<g>
			<path class="st4" d="M2558-809.1l-4.7,1.7"/>
			<text transform="matrix(-3.8227 1.3507 -1.3507 -3.8227 2612.6362 -833.477)" class="st5 st6">Pantoea</text>
			<path class="st7" d="M2553.3-807.4l-36.3,12.8"/>
		</g>
		<g>
			<path class="st4" d="M2546.5-840.2l-4.7,1.8"/>
			<text transform="matrix(-3.7761 1.4761 -1.4761 -3.7761 2600.2349 -866.3651)" class="st5 st6">Pantoea</text>
			<path class="st7" d="M2541.8-838.4l-35.8,14"/>
		</g>
		<g>
			<path class="st4" d="M2533.9-870.9l-4.6,2"/>
			<text transform="matrix(-3.7253 1.6 -1.6 -3.7253 2586.7493 -898.8293)" class="st5 st6">Pantoea</text>
			<path class="st7" d="M2529.3-868.9l-70.7,30.4"/>
		</g>
		<g>
			<path class="st4" d="M2520.3-901.2l-4.5,2.1"/>
			<text transform="matrix(-3.6704 1.7221 -1.7221 -3.6704 2572.2021 -930.8284)" class="st5 st6">Pantoea</text>
			<path class="st7" d="M2515.7-899l-104.5,49"/>
		</g>
		<g>
			<path class="st4" d="M2505.7-931l-4.5,2.3"/>
			<text transform="matrix(-3.6116 1.8423 -1.8423 -3.6116 2556.6023 -962.3328)" class="st5 st6">Pantoea</text>
			<path class="st7" d="M2501.2-928.7l-171.3,87.4"/>
		</g>
		<g>
			<path class="st4" d="M2490.1-960.3l-4.4,2.4"/>
			<text transform="matrix(-3.5488 1.9606 -1.9606 -3.5488 2567.9861 -1008.7775)" class="st5 st6">Enterobacter</text>
			<path class="st7" d="M2485.7-957.9l-33.7,18.6"/>
		</g>
		<g>
			<path class="st4" d="M2473.6-989.1l-4.3,2.6"/>
			<text transform="matrix(-3.4821 2.0766 -2.0766 -3.4821 2549.8186 -1040.0958)" class="st5 st6">Enterobacter</text>
			<path class="st7" d="M2469.3-986.5l-33,19.7"/>
		</g>
		<g>
			<path class="st4" d="M2456.1-1017.3l-4.2,2.7"/>
			<text transform="matrix(-3.4117 2.1905 -2.1905 -3.4117 2530.6267 -1070.8013)" class="st5 st6">Enterobacter</text>
			<path class="st7" d="M2451.9-1014.6l-32.4,20.8"/>
		</g>
		<g>
			<path class="st4" d="M2437.7-1044.9l-4.1,2.8"/>
			<text transform="matrix(-3.3375 2.3019 -2.3019 -3.3375 2510.4321 -1100.8571)" class="st5 st6">Enterobacter</text>
			<path class="st7" d="M2433.6-1042.1l-31.7,21.8"/>
		</g>
		<g>
			<path class="st4" d="M2418.5-1071.9l-4,3"/>
			<text transform="matrix(-3.2597 2.4108 -2.4108 -3.2597 2489.2563 -1130.2252)" class="st5 st6">Enterobacter</text>
			<path class="st7" d="M2414.4-1068.9l-92.8,68.6"/>
		</g>
		<g>
			<path class="st4" d="M2398.3-1098.2l-3.9,3.1"/>
			<text transform="matrix(-3.1783 2.5171 -2.5171 -3.1783 2467.1213 -1158.8809)" class="st5 st6">Enterobacter</text>
			<path class="st7" d="M2394.4-1095.1l-120.6,95.5"/>
		</g>
		<g>
			<path class="st4" d="M2377.3-1123.9l-3.8,3.2"/>
			<text transform="matrix(-3.0935 2.6207 -2.6207 -3.0935 2444.053 -1186.79)" class="st5 st6">Enterobacter</text>
			<path class="st7" d="M2373.4-1120.7l-29.3,24.9"/>
		</g>
		<g>
			<path class="st4" d="M2355.4-1148.9l-3.7,3.4"/>
			<text transform="matrix(-3.0053 2.7214 -2.7214 -3.0053 2420.0786 -1213.9222)" class="st5 st6">Enterobacter</text>
			<path class="st7" d="M2351.7-1145.5l-28.5,25.8"/>
		</g>
		<g>
			<path class="st4" d="M2332.7-1173.1l-3.6,3.5"/>
			<text transform="matrix(-2.9138 2.8191 -2.8191 -2.9138 2395.2175 -1240.2474)" class="st5 st6">Enterobacter</text>
			<path class="st7" d="M2329.1-1169.6l-55.3,53.5"/>
		</g>
		<g>
			<path class="st4" d="M2309.3-1196.6l-3.5,3.6"/>
			<text transform="matrix(-2.8191 2.9138 -2.9138 -2.8191 2345.9875 -1241.4327)" class="st5 st6">Massilia</text>
			<path class="st7" d="M2305.8-1193l-26.7,27.6"/>
		</g>
		<g>
			<path class="st4" d="M2285-1219.2l-3.4,3.7"/>
			<text transform="matrix(-2.7214 3.0053 -3.0053 -2.7214 2320.2598 -1265.2988)" class="st5 st6">Massilia</text>
			<path class="st7" d="M2281.7-1215.5l-25.8,28.5"/>
		</g>
		<g>
			<path class="st4" d="M2260.1-1241.1l-3.2,3.8"/>
			<text transform="matrix(-2.6207 3.0935 -3.0935 -2.6207 2293.7578 -1288.3013)" class="st5 st6">Massilia</text>
			<path class="st7" d="M2256.8-1237.3l-49.7,58.7"/>
		</g>
		<g>
			<path class="st4" d="M2234.4-1262.1l-3.1,3.9"/>
			<text transform="matrix(-2.5171 3.1783 -3.1783 -2.5171 2266.5107 -1310.4178)" class="st5 st6">Massilia</text>
			<path class="st7" d="M2231.3-1258.2l-23.9,30.2"/>
		</g>
		<g>
			<path class="st4" d="M2208-1282.3l-3,4"/>
			<text transform="matrix(-2.4108 3.2597 -3.2597 -2.4108 2238.5496 -1331.621)" class="st5 st6">Massilia</text>
			<path class="st7" d="M2205.1-1278.3l-22.9,30.9"/>
		</g>
		<g>
			<path class="st4" d="M2181-1301.6l-2.8,4.1"/>
			<text transform="matrix(-2.3019 3.3375 -3.3375 -2.3019 2209.9041 -1351.8885)" class="st5 st6">Massilia</text>
			<path class="st7" d="M2178.2-1297.5l-87.3,126.6"/>
		</g>
		<g>
			<path class="st4" d="M2153.4-1320l-2.7,4.2"/>
			<text transform="matrix(-2.1905 3.4117 -3.4117 -2.1905 2180.6035 -1371.202)" class="st5 st6">Massilia</text>
			<path class="st7" d="M2150.7-1315.8l-103.9,161.8"/>
		</g>
		<g>
			<path class="st4" d="M2125.2-1337.4l-2.6,4.3"/>
			<text transform="matrix(-2.0766 3.4821 -3.4821 -2.0766 2150.6833 -1389.5353)" class="st5 st6">Massilia</text>
			<path class="st7" d="M2122.6-1333.1l-118.2,198.2"/>
		</g>
		<g>
			<path class="st4" d="M2096.4-1354l-2.4,4.4"/>
			<text transform="matrix(-1.9606 3.5488 -3.5488 -1.9606 2139.5361 -1441.9253)" class="st5 st6">Acinetobacter</text>
			<path class="st7" d="M2094-1349.6l-18.6,33.7"/>
		</g>
		<g>
			<path class="st4" d="M2067.1-1369.5l-2.3,4.5"/>
			<text transform="matrix(-1.8423 3.6116 -3.6116 -1.8423 2107.301 -1458.866)" class="st5 st6">Acinetobacter</text>
			<path class="st7" d="M2064.9-1365.1l-17.5,34.3"/>
		</g>
		<g>
			<path class="st4" d="M2037.3-1384.1l-2.1,4.5"/>
			<text transform="matrix(-1.7221 3.6704 -3.6704 -1.7221 2067.3486 -1459.4264)" class="st5 st6">Halomonas</text>
			<path class="st7" d="M2035.2-1379.6l-32.7,69.6"/>
		</g>
		<g>
			<path class="st4" d="M2007-1397.7l-2,4.6"/>
			<text transform="matrix(-1.6 3.7253 -3.7253 -1.6 2043.0035 -1493.6006)" class="st5 st6">Pseudomonas</text>
			<path class="st7" d="M2005.1-1393.1l-15.2,35.3"/>
		</g>
		<g>
			<path class="st4" d="M1976.3-1410.3l-1.8,4.7"/>
			<text transform="matrix(-1.4761 3.7761 -3.7761 -1.4761 2009.1174 -1507.3232)" class="st5 st6">Pseudomonas</text>
			<path class="st7" d="M1974.5-1405.7l-14,35.8"/>
		</g>
		<g>
			<path class="st4" d="M1945.2-1421.9l-1.7,4.7"/>
			<text transform="matrix(-1.3507 3.8227 -3.8227 -1.3507 1974.7936 -1519.9242)" class="st5 st6">Pseudomonas</text>
			<path class="st7" d="M1943.6-1417.2l-25.6,72.5"/>
		</g>
		<g>
			<path class="st4" d="M1913.8-1432.4l-1.5,4.8"/>
			<text transform="matrix(-1.2237 3.8652 -3.8652 -1.2237 1940.0743 -1531.3816)" class="st5 st6">Pseudomonas</text>
			<path class="st7" d="M1912.3-1427.6l-11.6,36.7"/>
		</g>
		<g>
			<path class="st4" d="M1882-1441.9l-1.4,4.8"/>
			<text transform="matrix(-1.0954 3.9035 -3.9035 -1.0954 1905.0005 -1541.6876)" class="st5 st6">Pseudomonas</text>
			<path class="st7" d="M1880.6-1437.1l-10.4,37"/>
		</g>
		<g>
			<path class="st4" d="M1849.9-1450.3l-1.2,4.9"/>
			<text transform="matrix(-0.966 3.9376 -3.9376 -0.966 1869.5985 -1550.8289)" class="st5 st6">Pseudomonas</text>
			<path class="st7" d="M1848.7-1445.5l-36.7,149.4"/>
		</g>
		<g>
			<path class="st4" d="M1817.5-1457.7l-1,4.9"/>
			<text transform="matrix(-0.8355 3.9673 -3.9673 -0.8355 1833.9189 -1558.7997)" class="st5 st6">Pseudomonas</text>
			<path class="st7" d="M1816.5-1452.8l-7.9,37.6"/>
		</g>
		<g>
			<path class="st4" d="M1785-1464l-0.9,4.9"/>
			<text transform="matrix(-0.704 3.9927 -3.9927 -0.704 1797.9922 -1565.5861)" class="st5 st6">Pseudomonas</text>
			<path class="st7" d="M1784.1-1459.1l-6.7,37.9"/>
		</g>
		<g>
			<path class="st4" d="M1752.2-1469.2l-0.7,5"/>
			<text transform="matrix(-0.5718 4.0138 -4.0138 -0.5718 1761.8586 -1571.1846)" class="st5 st6">Pseudomonas</text>
			<path class="st7" d="M1751.5-1464.3l-5.4,38.1"/>
		</g>
		<g>
			<path class="st4" d="M1719.3-1473.4l-0.5,5"/>
			<text transform="matrix(-0.439 4.0305 -4.0305 -0.439 1725.5641 -1575.5839)" class="st5 st6">Pseudomonas</text>
			<path class="st7" d="M1718.7-1468.4l-4.2,38.2"/>
		</g>
		<g>
			<path class="st4" d="M1686.2-1476.4l-0.4,5"/>
			<text transform="matrix(-0.3057 4.0428 -4.0428 -0.3057 1689.1438 -1578.7843)" class="st5 st6">Pseudomonas</text>
			<path class="st7" d="M1685.8-1471.4l-5.8,76.7"/>
		</g>
		<g>
			<path class="st4" d="M1653.1-1478.4l-0.2,5"/>
			<text transform="matrix(-0.1721 4.0507 -4.0507 -0.1721 1652.6409 -1580.7806)" class="st5 st6">Pseudomonas</text>
			<path class="st7" d="M1652.9-1473.4l-1.6,38.4"/>
		</g>
		<g>
			<path class="st4" d="M1619.9-1479.2l0,5"/>
			<text transform="matrix(-3.824747e-02 4.0542 -4.0542 -3.824747e-02 1616.0861 -1581.5685)" class="st5 st6">Pseudomonas</text>
			<path class="st7" d="M1619.9-1474.2l-0.4,38.5"/>
		</g>
		<g>
			<path class="st4" d="M1586.7-1479l0.1,5"/>
			<text transform="matrix(9.561581e-02 4.0532 -4.0532 9.561581e-02 1579.5261 -1581.1536)" class="st5 st6">Pseudomonas</text>
			<path class="st7" d="M1586.9-1474l1.8,76.9"/>
		</g>
		<g>
			<path class="st4" d="M1553.6-1477.7l0.3,5"/>
			<text transform="matrix(0.2294 4.0478 -4.0478 0.2294 1543.2029 -1575.9788)" class="st5 st6">Xanthomonas</text>
			<path class="st7" d="M1553.9-1472.7l2.2,38.4"/>
		</g>
		<g>
			<path class="st4" d="M1520.5-1475.3l0.4,5"/>
			<text transform="matrix(0.3629 4.0381 -4.0381 0.3629 1506.8683 -1573.1572)" class="st5 st6">Xanthomonas</text>
			<path class="st7" d="M1520.9-1470.3l3.4,38.3"/>
		</g>
		<g>
			<path class="st4" d="M1487.5-1471.7l0.6,5"/>
			<text transform="matrix(0.496 4.0239 -4.0239 0.496 1466.1841 -1605.3367)" class="st5 st6">Stenotrophomonas</text>
			<path class="st7" d="M1488.1-1466.8l4.7,38.2"/>
		</g>
		<g>
			<path class="st4" d="M1454.6-1467.1l0.8,4.9"/>
			<text transform="matrix(0.6286 4.0053 -4.0053 0.6286 1428.9221 -1599.9567)" class="st5 st6">Stenotrophomonas</text>
			<path class="st7" d="M1455.4-1462.2l6,38"/>
		</g>
		<g>
			<path class="st4" d="M1421.9-1461.4l0.9,4.9"/>
			<text transform="matrix(0.7605 3.9824 -3.9824 0.7605 1401.7063 -1541.7976)" class="st5 st6">Luteimonas</text>
			<path class="st7" d="M1422.9-1456.5l7.2,37.8"/>
		</g>
		<g>
			<path class="st4" d="M1389.4-1454.7l1.1,4.9"/>
			<text transform="matrix(0.8915 3.9551 -3.9551 0.8915 1362.085 -1554.2552)" class="st5 st6">Thermomonas</text>
			<path class="st7" d="M1390.5-1449.8l8.5,37.5"/>
		</g>
		<g>
			<path class="st4" d="M1357.2-1446.9l1.3,4.8"/>
			<text transform="matrix(1.0216 3.9235 -3.9235 1.0216 1331.2638 -1527.4204)" class="st5 st6">Unassigned</text>
			<path class="st7" d="M1358.5-1442l96.9,372.2"/>
		</g>
		<g>
			<path class="st4" d="M1325.2-1438l1.4,4.8"/>
			<text transform="matrix(1.1506 3.8876 -3.8876 1.1506 1290.3368 -1538.9598)" class="st5 st6">Sphingomonas</text>
			<path class="st7" d="M1326.7-1433.2l10.9,36.9"/>
		</g>
		<g>
			<path class="st4" d="M1293.6-1428l1.6,4.7"/>
			<text transform="matrix(1.2783 3.8475 -3.8475 1.2783 1255.3641 -1527.8118)" class="st5 st6">Sphingomonas</text>
			<path class="st7" d="M1295.1-1423.3l12.1,36.5"/>
		</g>
		<g>
			<path class="st4" d="M1262.3-1417l1.7,4.7"/>
			<text transform="matrix(1.4046 3.8032 -3.8032 1.4046 1220.7755 -1515.5133)" class="st5 st6">Sphingomonas</text>
			<path class="st7" d="M1264-1412.4l26.7,72.2"/>
		</g>
		<g>
			<path class="st4" d="M1231.3-1405l1.9,4.6"/>
			<text transform="matrix(1.5294 3.7548 -3.7548 1.5294 1186.6143 -1502.0815)" class="st5 st6">Sphingomonas</text>
			<path class="st7" d="M1233.2-1400.4l14.5,35.6"/>
		</g>
		<g>
			<path class="st4" d="M1200.8-1392l2,4.6"/>
			<text transform="matrix(1.6525 3.7023 -3.7023 1.6525 1152.9136 -1487.528)" class="st5 st6">Sphingomonas</text>
			<path class="st7" d="M1202.8-1387.4l15.7,35.1"/>
		</g>
		<g>
			<path class="st4" d="M1170.7-1378l2.2,4.5"/>
			<text transform="matrix(1.7739 3.6457 -3.6457 1.7739 1119.7118 -1471.8722)" class="st5 st6">Sphingomonas</text>
			<path class="st7" d="M1172.9-1373.5l33.7,69.2"/>
		</g>
		<g>
			<path class="st4" d="M1141.1-1363l2.3,4.4"/>
			<text transform="matrix(1.8933 3.5851 -3.5851 1.8933 1087.0437 -1455.1282)" class="st5 st6">Sphingomonas</text>
			<path class="st7" d="M1143.5-1358.6l18,34"/>
		</g>
		<g>
			<path class="st4" d="M1112.1-1347l2.5,4.3"/>
			<text transform="matrix(2.0106 3.5207 -3.5207 2.0106 1054.9504 -1437.3141)" class="st5 st6">Sphingomonas</text>
			<path class="st7" d="M1114.5-1342.7l19.1,33.4"/>
		</g>
		<g>
			<path class="st4" d="M1083.5-1330.1l2.6,4.3"/>
			<text transform="matrix(-2.1257 -3.4524 3.4524 -2.1257 1087.6002 -1332.5916)" class="st5 st6">Sphingomonas</text>
			<path class="st7" d="M1086.1-1325.8l40.3,65.5"/>
		</g>
		<g>
			<path class="st4" d="M1055.5-1312.2l2.8,4.2"/>
			<text transform="matrix(-2.2385 -3.3803 3.3803 -2.2385 1059.5452 -1314.8597)" class="st5 st6">Sphingomonas</text>
			<path class="st7" d="M1058.3-1308l106.2,160.3"/>
		</g>
		<g>
			<path class="st4" d="M1028.2-1293.4l2.9,4.1"/>
			<text transform="matrix(-2.3489 -3.3046 3.3046 -2.3489 1032.0985 -1296.2145)" class="st5 st6">Sphingomonas</text>
			<path class="st7" d="M1031.1-1289.4l133.7,188.1"/>
		</g>
		<g>
			<path class="st4" d="M1001.5-1273.8l3,4"/>
			<text transform="matrix(-2.4567 -3.2252 3.2252 -2.4567 1005.28 -1276.675)" class="st5 st6">Sphingomonas</text>
			<path class="st7" d="M1004.5-1269.8l163.1,214.2"/>
		</g>
		<g>
			<path class="st4" d="M975.4-1253.2l3.2,3.9"/>
			<text transform="matrix(-2.5619 -3.1424 3.1424 -2.5619 979.1172 -1256.2554)" class="st5 st6">Methylobacterium-Methylorubrum</text>
			<path class="st7" d="M978.6-1249.3l24.3,29.8"/>
		</g>
		<g>
			<path class="st4" d="M950-1231.8l3.3,3.8"/>
			<text transform="matrix(-2.6642 -3.0561 3.0561 -2.6642 953.6478 -1234.9896)" class="st5 st6">Methylobacterium-Methylorubrum</text>
			<path class="st7" d="M953.3-1228.1l25.3,29"/>
		</g>
		<g>
			<path class="st4" d="M925.4-1209.6l3.4,3.7"/>
			<text transform="matrix(-2.7636 -2.9665 2.9665 -2.7636 928.8896 -1212.8904)" class="st5 st6">Methylobacterium-Methylorubrum</text>
			<path class="st7" d="M928.8-1206l26.2,28.1"/>
		</g>
		<g>
			<path class="st4" d="M901.5-1186.6l3.5,3.5"/>
			<text transform="matrix(-2.8601 -2.8736 2.8736 -2.8601 904.8831 -1189.9862)" class="st5 st6">Methylobacterium-Methylorubrum</text>
			<path class="st7" d="M905-1183.1l27.1,27.3"/>
		</g>
		<g>
			<path class="st4" d="M878.3-1162.8l3.6,3.4"/>
			<text transform="matrix(-2.9534 -2.7776 2.7776 -2.9534 881.6367 -1166.3032)" class="st5 st6">Methylobacterium-Methylorubrum</text>
			<path class="st7" d="M882-1159.4l84.1,79"/>
		</g>
		<g>
			<path class="st4" d="M856-1138.3l3.8,3.3"/>
			<text transform="matrix(-3.0435 -2.6786 2.6786 -3.0435 859.188 -1141.8654)" class="st5 st6">Methylobacterium-Methylorubrum</text>
			<path class="st7" d="M859.8-1135l115.5,101.6"/>
		</g>
		<g>
			<path class="st4" d="M834.5-1113l3.9,3.2"/>
			<text transform="matrix(-3.1302 -2.5767 2.5767 -3.1302 837.5569 -1116.6997)" class="st5 st6">Methylobacterium-Methylorubrum</text>
			<path class="st7" d="M838.4-1109.8l29.7,24.4"/>
		</g>
		<g>
			<path class="st4" d="M813.8-1087l4,3"/>
			<text transform="matrix(-3.2136 -2.4719 2.4719 -3.2136 816.7678 -1090.8351)" class="st5 st6">Methylobacterium-Methylorubrum</text>
			<path class="st7" d="M817.8-1084l30.5,23.4"/>
		</g>
		<g>
			<path class="st4" d="M794-1060.4l4.1,2.9"/>
			<text transform="matrix(-3.2935 -2.3645 2.3645 -3.2935 796.8462 -1064.2949)" class="st5 st6">Methylobacterium-Methylorubrum</text>
			<path class="st7" d="M798.1-1057.5l31.2,22.4"/>
		</g>
		<g>
			<path class="st4" d="M775.1-1033.1l4.2,2.8"/>
			<text transform="matrix(-3.3697 -2.2545 2.2545 -3.3697 777.8128 -1037.114)" class="st5 st6">Methylobacterium-Methylorubrum</text>
			<path class="st7" d="M779.3-1030.3l32,21.4"/>
		</g>
		<g>
			<path class="st4" d="M757.1-1005.2l4.2,2.6"/>
			<text transform="matrix(-3.4423 -2.142 2.142 -3.4423 759.6866 -1009.3172)" class="st5 st6">Rhizobiaceae_uncultured</text>
			<path class="st7" d="M761.4-1002.6l32.7,20.3"/>
		</g>
		<g>
			<path class="st4" d="M740.1-976.8l4.3,2.5"/>
			<text transform="matrix(-3.5112 -2.0272 2.0272 -3.5112 742.4824 -980.9409)" class="st5 st6">Rhizobiaceae_uncultured</text>
			<path class="st7" d="M744.4-974.3l33.3,19.2"/>
		</g>
		<g>
			<path class="st4" d="M724-947.8l4.4,2.4"/>
			<text transform="matrix(-3.5762 -1.9101 1.9101 -3.5762 726.2302 -952.0117)" class="st5 st6">Rhizobiaceae_uncultured</text>
			<path class="st7" d="M728.4-945.4l67.9,36.2"/>
		</g>
		<g>
			<path class="st4" d="M708.8-918.3l4.5,2.2"/>
			<text transform="matrix(-3.6373 -1.791 1.791 -3.6373 710.9426 -922.5602)" class="st5 st6">Aureimonas</text>
			<path class="st7" d="M713.3-916l34.5,17"/>
		</g>
		<g>
			<path class="st4" d="M694.7-888.2l4.6,2.1"/>
			<text transform="matrix(-3.6944 -1.67 1.67 -3.6944 696.6334 -892.6216)" class="st5 st6">Aureimonas</text>
			<path class="st7" d="M699.2-886.2l35,15.8"/>
		</g>
		<g>
			<path class="st4" d="M681.5-857.8l4.6,1.9"/>
			<text transform="matrix(-3.7475 -1.5471 1.5471 -3.7475 683.3231 -862.2212)" class="st5 st6">Aureimonas</text>
			<path class="st7" d="M686.1-855.9l71.1,29.4"/>
		</g>
		<g>
			<path class="st4" d="M669.3-826.9l4.7,1.8"/>
			<text transform="matrix(-3.7966 -1.4225 1.4225 -3.7966 671.0183 -831.4061)" class="st5 st6">Aureimonas</text>
			<path class="st7" d="M674-825.2l108,40.5"/>
		</g>
		<g>
			<path class="st4" d="M658.2-795.6l4.7,1.6"/>
			<text transform="matrix(-3.8415 -1.2964 1.2964 -3.8415 659.7422 -800.1961)" class="st5 st6">Aureimonas</text>
			<path class="st7" d="M662.9-794l36.4,12.3"/>
		</g>
		<g>
			<path class="st4" d="M648.1-764l4.8,1.4"/>
			<text transform="matrix(-3.8822 -1.1689 1.1689 -3.8822 649.4986 -768.6315)" class="st5 st6">Aureimonas</text>
			<path class="st7" d="M652.9-762.6l36.8,11.1"/>
		</g>
		<g>
			<path class="st4" d="M639.1-732.1l4.8,1.3"/>
			<text transform="matrix(-3.9186 -1.0401 1.0401 -3.9186 640.3066 -736.7451)" class="st5 st6">Allorhizobium-Neorhizobium-Pararhizobium-Rhizobium</text>
			<path class="st7" d="M643.9-730.8L1090-612.4"/>
		</g>
		<g>
			<path class="st4" d="M631.1-699.9l4.9,1.1"/>
			<text transform="matrix(-3.9508 -0.9102 0.9102 -3.9508 632.169 -704.5742)" class="st5 st6">Allorhizobium-Neorhizobium-Pararhizobium-Rhizobium</text>
			<path class="st7" d="M636-698.8l37.5,8.6"/>
		</g>
		<g>
			<path class="st4" d="M624.2-667.4l4.9,1"/>
			<text transform="matrix(-3.9787 -0.7792 0.7792 -3.9787 625.102 -672.1536)" class="st5 st6">Allorhizobium-Neorhizobium-Pararhizobium-Rhizobium</text>
			<path class="st7" d="M629.1-666.5l37.7,7.4"/>
		</g>
		<g>
			<path class="st4" d="M618.3-634.8l4.9,0.8"/>
			<text transform="matrix(-4.0023 -0.6475 0.6475 -4.0023 619.1048 -639.5182)" class="st5 st6">Allorhizobium-Neorhizobium-Pararhizobium-Rhizobium</text>
			<path class="st7" d="M623.3-634l75.9,12.3"/>
		</g>
		<g>
			<path class="st4" d="M613.6-601.9l5,0.6"/>
			<text transform="matrix(-4.0215 -0.515 0.515 -4.0215 614.1924 -606.6999)" class="st5 st6">Allorhizobium-Neorhizobium-Pararhizobium-Rhizobium</text>
			<path class="st7" d="M618.5-601.3L733-586.6"/>
		</g>
		<g>
			<path class="st4" d="M609.9-569l5,0.5"/>
			<text transform="matrix(-4.0363 -0.3819 0.3819 -4.0363 610.3596 -573.7359)" class="st5 st6">Brevundimonas</text>
			<path class="st7" d="M614.9-568.5l536.1,50.7"/>
		</g>
		<g>
			<path class="st4" d="M607.3-535.9l5,0.3"/>
			<text transform="matrix(-4.0467 -0.2485 0.2485 -4.0467 607.6237 -540.6652)" class="st5 st6">Ochrobactrum</text>
			<path class="st7" d="M612.3-535.6l575.8,35.4"/>
		</g>
		<g>
			<path class="st4" d="M605.8-502.7l5,0.1"/>
			<text transform="matrix(-4.0527 -0.1147 0.1147 -4.0527 605.9771 -507.5234)" class="st5 st6">Paracoccus</text>
			<path class="st7" d="M610.8-502.6l38.4,1.1"/>
		</g>
		<g>
			<path class="st4" d="M605.5-469.5l5,0"/>
			<text transform="matrix(-4.0543 1.912558e-02 -1.912558e-02 -4.0543 605.4308 -474.3443)" class="st5 st6">Paracoccus</text>
			<path class="st7" d="M610.5-469.6l38.5-0.2"/>
		</g>
		<g>
			<path class="st4" d="M606.2-436.4l5-0.2"/>
			<text transform="matrix(-4.0514 0.153 -0.153 -4.0514 605.9783 -441.1664)" class="st5 st6">Falsirhodobacter</text>
			<path class="st7" d="M611.2-436.6l38.4-1.5"/>
		</g>
		<g>
			<path class="st4" d="M608-403.2l5-0.4"/>
			<text transform="matrix(-4.0442 0.2866 -0.2866 -4.0442 607.6174 -408.0225)" class="st5 st6">Falsirhodobacter</text>
			<path class="st7" d="M612.9-403.6l38.4-2.7"/>
		</g>
		<g>
			<path class="st4" d="M610.8-370.2l5-0.5"/>
			<text transform="matrix(-4.0325 0.42 -0.42 -4.0325 610.3488 -374.9529)" class="st5 st6">Methylobacterium-Methylorubrum</text>
			<path class="st7" d="M615.8-370.7l38.3-4"/>
		</g>
		<g>
			<path class="st4" d="M614.8-337.2l5-0.7"/>
			<text transform="matrix(-4.0165 0.5529 -0.5529 -4.0165 614.1733 -341.9879)" class="st5 st6">Methylobacterium-Methylorubrum</text>
			<path class="st7" d="M619.8-337.9l38.1-5.2"/>
		</g>
		<g>
			<path class="st4" d="M619.9-304.4l4.9-0.8"/>
			<text transform="matrix(-3.996 0.6852 -0.6852 -3.996 619.0889 -309.1687)" class="st5 st6">Methylobacterium-Methylorubrum</text>
			<path class="st7" d="M624.8-305.3l75.8-13"/>
		</g>
		<g>
			<path class="st4" d="M626-271.8l4.9-1"/>
			<text transform="matrix(-3.9712 0.8167 -0.8167 -3.9712 625.0807 -276.5313)" class="st5 st6">Bradyrhizobium</text>
			<path class="st7" d="M630.9-272.8l113-23.2"/>
		</g>
		<g>
			<path class="st4" d="M633.3-239.4l4.9-1.2"/>
			<text transform="matrix(-3.9421 0.9474 -0.9474 -3.9421 632.1417 -244.1103)" class="st5 st6">Allorhizobium-Neorhizobium-Pararhizobium-Rhizobium</text>
			<path class="st7" d="M638.1-240.6l37.4-9"/>
		</g>
		<g>
			<path class="st4" d="M641.5-207.3l4.8-1.3"/>
			<text transform="matrix(-3.9087 1.077 -1.077 -3.9087 640.2747 -211.9367)" class="st5 st6">Allorhizobium-Neorhizobium-Pararhizobium-Rhizobium</text>
			<path class="st7" d="M646.4-208.6l37.1-10.2"/>
		</g>
		<g>
			<path class="st4" d="M650.9-175.5l4.8-1.5"/>
			<text transform="matrix(-3.871 1.2055 -1.2055 -3.871 649.467 -180.0508)" class="st5 st6">Aureimonas</text>
			<path class="st7" d="M655.7-177l73.4-22.9"/>
		</g>
		<g>
			<path class="st4" d="M661.3-144l4.7-1.6"/>
			<text transform="matrix(-3.8291 1.3326 -1.3326 -3.8291 659.7044 -148.4855)" class="st5 st6">Aureimonas</text>
			<path class="st7" d="M666-145.6l36.3-12.6"/>
		</g>
		<g>
			<path class="st4" d="M672.7-112.8l4.7-1.8"/>
			<text transform="matrix(-3.783 1.4583 -1.4583 -3.783 670.9747 -117.2782)" class="st5 st6">Aureimonas</text>
			<path class="st7" d="M677.4-114.6l35.9-13.8"/>
		</g>
		<g>
			<path class="st4" d="M685.1-82l4.6-2"/>
			<text transform="matrix(-3.7328 1.5824 -1.5824 -3.7328 683.2746 -86.4566)" class="st5 st6">Aureimonas</text>
			<path class="st7" d="M689.8-84l212.5-90.1"/>
		</g>
		<g>
			<path class="st4" d="M698.6-51.7l4.5-2.1"/>
			<text transform="matrix(-3.6785 1.7048 -1.7048 -3.6785 696.5872 -56.0581)" class="st5 st6">Aureimonas</text>
			<path class="st7" d="M703.1-53.8L947.4-167"/>
		</g>
		<g>
			<path class="st4" d="M713-21.8l4.5-2.3"/>
			<text transform="matrix(-3.6202 1.8253 -1.8253 -3.6202 710.8895 -26.117)" class="st5 st6">Sphingomonas</text>
			<path class="st7" d="M717.5-24.1l34.3-17.3"/>
		</g>
		<g>
			<path class="st4" d="M728.5,7.5l4.4-2.4"/>
			<text transform="matrix(-3.558 1.9438 -1.9438 -3.558 726.1743 3.339)" class="st5 st6">Sphingomonas</text>
			<path class="st7" d="M732.9,5.2l33.8-18.4"/>
		</g>
		<g>
			<path class="st4" d="M744.9,36.4l4.3-2.5"/>
			<text transform="matrix(-3.4919 2.0602 -2.0602 -3.4919 742.4246 32.2681)" class="st5 st6">Sphingomonas</text>
			<path class="st7" d="M749.2,33.9l66.3-39.1"/>
		</g>
		<g>
			<path class="st4" d="M762.2,64.7l4.2-2.7"/>
			<text transform="matrix(-3.422 2.1744 -2.1744 -3.422 759.6211 60.6484)" class="st5 st6">Sphingomonas</text>
			<path class="st7" d="M766.4,62l97.4-61.9"/>
		</g>
		<g>
			<path class="st4" d="M780.5,92.4l4.1-2.8"/>
			<text transform="matrix(-3.3483 2.2861 -2.2861 -3.3483 777.7446 88.4475)" class="st5 st6">Sphingomonas</text>
			<path class="st7" d="M784.6,89.6l31.8-21.7"/>
		</g>
		<g>
			<path class="st4" d="M799.6,119.5l4-3"/>
			<text transform="matrix(-3.271 2.3954 -2.3954 -3.271 796.7779 115.6288)" class="st5 st6">Sphingomonas</text>
			<path class="st7" d="M803.6,116.5l31-22.7"/>
		</g>
		<g>
			<path class="st4" d="M819.7,145.9l3.9-3.1"/>
			<text transform="matrix(-3.1901 2.5021 -2.5021 -3.1901 816.6963 142.1726)" class="st5 st6">Sphingomonas</text>
			<path class="st7" d="M823.6,142.9l60.5-47.5"/>
		</g>
		<g>
			<path class="st4" d="M840.6,171.7l3.8-3.2"/>
			<text transform="matrix(-3.1058 2.6061 -2.6061 -3.1058 837.4785 168.0407)" class="st5 st6">Schumannella</text>
			<path class="st7" d="M844.4,168.5l29.5-24.7"/>
		</g>
		<g>
			<path class="st4" d="M862.3,196.8l3.7-3.3"/>
			<text transform="matrix(-3.0181 2.7072 -2.7072 -3.0181 859.1053 193.2101)" class="st5 st6">Schumannella</text>
			<path class="st7" d="M866,193.4l28.6-25.7"/>
		</g>
		<g>
			<path class="st4" d="M884.9,221.1l3.6-3.5"/>
			<text transform="matrix(-2.927 2.8053 -2.8053 -2.927 881.5523 217.6495)" class="st5 st6">Frigoribacterium</text>
			<path class="st7" d="M888.5,217.7l55.5-53.2"/>
		</g>
		<g>
			<path class="st4" d="M908.2,244.7l3.5-3.6"/>
			<text transform="matrix(-2.8328 2.9005 -2.9005 -2.8328 904.7946 241.3328)" class="st5 st6">Kineococcus</text>
			<path class="st7" d="M911.7,241.1l26.9-27.5"/>
		</g>
		<g>
			<path class="st4" d="M932.3,267.5l3.4-3.7"/>
			<text transform="matrix(-2.7355 2.9924 -2.9924 -2.7355 928.8013 264.2396)" class="st5 st6">Kineococcus</text>
			<path class="st7" d="M935.7,263.8l26-28.4"/>
		</g>
		<g>
			<path class="st4" d="M957.2,289.5l3.2-3.8"/>
			<text transform="matrix(-2.6353 3.0811 -3.0811 -2.6353 953.5568 286.3428)" class="st5 st6">Quadrisphaera</text>
			<path class="st7" d="M960.5,285.7l25-29.2"/>
		</g>
		<g>
			<path class="st4" d="M982.8,310.6l3.1-3.9"/>
			<text transform="matrix(-2.5321 3.1664 -3.1664 -2.5321 979.0234 307.611)" class="st5 st6">Quadrisphaera</text>
			<path class="st7" d="M985.9,306.7l24-30"/>
		</g>
		<g>
			<path class="st4" d="M1009,330.9l3-4"/>
			<text transform="matrix(-2.4262 3.2483 -3.2483 -2.4262 1005.1809 328.029)" class="st5 st6">Pseudarthrobacter</text>
			<path class="st7" d="M1012,326.9l115.1-154.1"/>
		</g>
		<g>
			<path class="st4" d="M1035.9,350.3l2.9-4.1"/>
			<text transform="matrix(-2.3176 3.3266 -3.3266 -2.3176 1031.9987 347.5753)" class="st5 st6">Pseudokineococcus</text>
			<path class="st7" d="M1038.8,346.2l131.9-189.3"/>
		</g>
		<g>
			<path class="st4" d="M1063.5,368.8l2.7-4.2"/>
			<text transform="matrix(-2.2065 3.4013 -3.4013 -2.2065 1059.4502 366.2245)" class="st5 st6">Klenkia</text>
			<path class="st7" d="M1066.2,364.6l146.5-225.9"/>
		</g>
		<g>
			<path class="st4" d="M1091.6,386.4l2.6-4.3"/>
			<text transform="matrix(-2.093 3.4723 -3.4723 -2.093 1087.4962 383.9566)" class="st5 st6">Pseudomonas</text>
			<path class="st7" d="M1094.2,382.2l19.9-32.9"/>
		</g>
		<g>
			<path class="st4" d="M1120.3,403.1l2.4-4.4"/>
			<text transform="matrix(-1.9773 3.5395 -3.5395 -1.9773 1116.1152 400.7534)" class="st5 st6">Pseudomonas</text>
			<path class="st7" d="M1122.7,398.7l18.8-33.6"/>
		</g>
		<g>
			<path class="st4" d="M1149.5,418.8l2.3-4.4"/>
			<text transform="matrix(-1.8593 3.6028 -3.6028 -1.8593 1145.2755 416.5965)" class="st5 st6">Pseudomonas</text>
			<path class="st7" d="M1151.8,414.4l35.3-68.4"/>
		</g>
		<g>
			<path class="st4" d="M1179.3,433.5l2.1-4.5"/>
			<text transform="matrix(-1.7394 3.6623 -3.6623 -1.7394 1174.9397 431.468)" class="st5 st6">Pseudomonas</text>
			<path class="st7" d="M1181.4,429l16.5-34.7"/>
		</g>
		<g>
			<path class="st4" d="M1209.5,447.3l2-4.6"/>
			<text transform="matrix(-1.6175 3.7177 -3.7177 -1.6175 1205.0786 445.3512)" class="st5 st6">Pseudomonas</text>
			<path class="st7" d="M1211.5,442.7l15.3-35.3"/>
		</g>
		<g>
			<path class="st4" d="M1240.1,460l1.8-4.6"/>
			<text transform="matrix(-1.4939 3.7691 -3.7691 -1.4939 1235.6586 458.2322)" class="st5 st6">Pseudomonas</text>
			<path class="st7" d="M1242,455.4l28.3-71.5"/>
		</g>
		<g>
			<path class="st4" d="M1271.2,471.7l1.7-4.7"/>
			<text transform="matrix(-1.3687 3.8163 -3.8163 -1.3687 1266.6503 470.0965)" class="st5 st6">Halomonas</text>
			<path class="st7" d="M1272.9,467l142.8-398.2"/>
		</g>
		<g>
			<path class="st4" d="M1302.6,482.4l1.5-4.8"/>
			<text transform="matrix(-1.2419 3.8594 -3.8594 -1.2419 1298.0166 480.932)" class="st5 st6">Unassigned</text>
			<path class="st7" d="M1304.1,477.6l11.8-36.6"/>
		</g>
		<g>
			<path class="st4" d="M1334.3,492l1.4-4.8"/>
			<text transform="matrix(-1.1138 3.8983 -3.8983 -1.1138 1329.7183 490.7245)" class="st5 st6">Unassigned</text>
			<path class="st7" d="M1335.7,487.2l10.6-37"/>
		</g>
		<g>
			<path class="st4" d="M1366.4,500.6l1.2-4.9"/>
			<text transform="matrix(-0.9845 3.933 -3.933 -0.9845 1361.7349 499.467)" class="st5 st6">Rhodoferax</text>
			<path class="st7" d="M1367.6,495.8l9.3-37.3"/>
		</g>
		<g>
			<path class="st4" d="M1398.7,508.2l1.1-4.9"/>
			<text transform="matrix(-0.8542 3.9633 -3.9633 -0.8542 1394.0155 507.1472)" class="st5 st6">Polaromonas</text>
			<path class="st7" d="M1399.8,503.3l8.1-37.6"/>
		</g>
		<g>
			<path class="st4" d="M1431.3,514.6l0.9-4.9"/>
			<text transform="matrix(-0.7229 3.9894 -3.9894 -0.7229 1426.5326 513.7588)" class="st5 st6">Polaromonas</text>
			<path class="st7" d="M1432.1,509.7l13.7-75.7"/>
		</g>
		<g>
			<path class="st4" d="M1464,520l0.7-4.9"/>
			<text transform="matrix(-0.5908 4.0111 -4.0111 -0.5908 1459.2524 519.2913)" class="st5 st6">Variovorax</text>
			<path class="st7" d="M1464.7,515l16.8-114.2"/>
		</g>
		<g>
			<path class="st4" d="M1496.9,524.3l0.6-5"/>
			<text transform="matrix(-0.458 4.0284 -4.0284 -0.458 1492.1396 523.7412)" class="st5 st6">Massilia</text>
			<path class="st7" d="M1497.5,519.3l4.3-38.2"/>
		</g>
		<g>
			<path class="st4" d="M1529.9,527.5l0.4-5"/>
			<text transform="matrix(-0.3248 4.0413 -4.0413 -0.3248 1525.1509 527.1022)" class="st5 st6">Massilia</text>
			<path class="st7" d="M1530.3,522.5l3.1-38.3"/>
		</g>
		<g>
			<path class="st4" d="M1563.1,529.6l0.2-5"/>
			<text transform="matrix(-0.1912 4.0498 -4.0498 -0.1912 1558.2562 529.3698)" class="st5 st6">Enterococcus</text>
			<path class="st7" d="M1563.3,524.6l1.8-38.4"/>
		</g>
		<g>
			<path class="st4" d="M1596.2,530.6l0.1-5"/>
			<text transform="matrix(-5.737043e-02 4.0539 -4.0539 -5.737043e-02 1591.4178 530.5483)" class="st5 st6">Enterococcus</text>
			<path class="st7" d="M1596.3,525.6l0.5-38.5"/>
		</g>
		<g>
			<path class="st4" d="M1629.4,530.5l-0.1-5"/>
			<text transform="matrix(7.649548e-02 4.0536 -4.0536 7.649548e-02 1624.6016 530.6268)" class="st5 st6">Enterococcus</text>
			<path class="st7" d="M1629.3,525.5l-1.5-76.9"/>
		</g>
		<g>
			<path class="st4" d="M1662.6,529.4l-0.3-5"/>
			<text transform="matrix(0.2103 4.0489 -4.0489 0.2103 1657.7699 529.6122)" class="st5 st6">Enterococcus</text>
			<path class="st7" d="M1662.3,524.4l-6-115.2"/>
		</g>
		<g>
			<path class="st4" d="M1695.7,527.1l-0.4-5"/>
			<text transform="matrix(0.3438 4.0397 -4.0397 0.3438 1690.8855 527.5035)" class="st5 st6">Enterococcus</text>
			<path class="st7" d="M1695.2,522.1l-13-153.3"/>
		</g>
		<g>
			<path class="st4" d="M1728.7,523.7l-0.6-5"/>
			<text transform="matrix(0.477 4.0262 -4.0262 0.477 1723.918 524.301)" class="st5 st6">Weissella</text>
			<path class="st7" d="M1728.1,518.8l-22.6-191"/>
		</g>
		<g>
			<path class="st4" d="M1761.6,519.3l-0.8-4.9"/>
			<text transform="matrix(0.6097 4.0082 -4.0082 0.6097 1756.8217 520.0084)" class="st5 st6">Staphylococcus</text>
			<path class="st7" d="M1760.8,514.3l-5.8-38"/>
		</g>
		<g>
			<path class="st4" d="M1794.3,513.8l-0.9-4.9"/>
			<text transform="matrix(0.7417 3.9859 -3.9859 0.7417 1789.5688 514.6333)" class="st5 st6">Staphylococcus</text>
			<path class="st7" d="M1793.4,508.8l-7-37.8"/>
		</g>
		<g>
			<path class="st4" d="M1826.8,507.1l-1.1-4.9"/>
			<text transform="matrix(0.8729 3.9593 -3.9593 0.8729 1822.1179 508.1824)" class="st5 st6">Staphylococcus</text>
			<path class="st7" d="M1825.7,502.3l-16.6-75.1"/>
		</g>
		<g>
			<path class="st4" d="M1859.1,499.5l-1.2-4.8"/>
			<text transform="matrix(1.0031 3.9283 -3.9283 1.0031 1854.438 500.6579)" class="st5 st6">Staphylococcus</text>
			<path class="st7" d="M1857.9,494.6l-9.5-37.3"/>
		</g>
		<g>
			<path class="st4" d="M1891.1,490.7l-1.4-4.8"/>
			<text transform="matrix(1.1322 3.893 -3.893 1.1322 1886.4933 492.0741)" class="st5 st6">Staphylococcus</text>
			<path class="st7" d="M1889.7,485.9L1879,449"/>
		</g>
		<g>
			<path class="st4" d="M1922.8,480.9l-1.6-4.8"/>
			<text transform="matrix(1.2601 3.8535 -3.8535 1.2601 1918.245 482.4309)" class="st5 st6">Bacillus</text>
			<path class="st7" d="M1921.3,476.2L1873.4,330"/>
		</g>
		<g>
			<path class="st4" d="M1954.2,470.1l-1.7-4.7"/>
			<text transform="matrix(1.3867 3.8098 -3.8098 1.3867 1949.6636 471.7498)" class="st5 st6">Bacillus</text>
			<path class="st7" d="M1952.5,465.4L1742-112.9"/>
		</g>
		<g>
			<path class="st4" d="M1985.2,458.2l-1.9-4.6"/>
			<text transform="matrix(1.5117 3.762 -3.762 1.5117 1980.7084 460.0347)" class="st5 st6">Paenibacillus</text>
			<path class="st7" d="M1983.3,453.6l-243.8-606.7"/>
		</g>
		<g>
			<path class="st4" d="M2015.7,445.4l-2-4.6"/>
			<text transform="matrix(1.6351 3.71 -3.71 1.6351 2011.3503 447.3006)" class="st5 st6">Saccharopolyspora</text>
			<path class="st7" d="M2013.7,440.8l-15.5-35.2"/>
		</g>
		<g>
			<path class="st4" d="M2045.9,431.5l-2.2-4.5"/>
			<text transform="matrix(1.7566 3.654 -3.654 1.7566 2041.559 433.5638)" class="st5 st6">Saccharopolyspora</text>
			<path class="st7" d="M2043.7,427l-16.7-34.7"/>
		</g>
		<g>
			<path class="st4" d="M2075.5,416.6l-2.3-4.4"/>
			<text transform="matrix(1.8763 3.594 -3.594 1.8763 2071.2947 418.8355)" class="st5 st6">Saccharopolyspora</text>
			<path class="st7" d="M2073.2,412.2l-35.6-68.2"/>
		</g>
		<g>
			<path class="st4" d="M2104.7,400.8l-2.5-4.4"/>
			<text transform="matrix(1.994 3.5301 -3.5301 1.994 2100.5288 403.1335)" class="st5 st6">Saccharopolyspora</text>
			<path class="st7" d="M2102.2,396.4l-18.9-33.5"/>
		</g>
		<g>
			<path class="st4" d="M2133.3,384l-2.6-4.3"/>
			<text transform="matrix(-2.1094 -3.4624 3.4624 -2.1094 2208.6902 498.4492)" class="st5 st6">Saccharopolyspora</text>
			<path class="st7" d="M2130.7,379.7l-20-32.8"/>
		</g>
		<g>
			<path class="st4" d="M2161.4,366.2l-2.7-4.2"/>
			<text transform="matrix(-2.2226 -3.3908 3.3908 -2.2226 2240.478 478.1721)" class="st5 st6">Saccharopolyspora</text>
			<path class="st7" d="M2158.6,362.1l-21.1-32.2"/>
		</g>
		<g>
			<path class="st4" d="M2188.8,347.6l-2.9-4.1"/>
			<text transform="matrix(-2.3333 -3.3156 3.3156 -2.3333 2271.5771 456.8504)" class="st5 st6">Saccharopolyspora</text>
			<path class="st7" d="M2185.9,343.5l-22.1-31.5"/>
		</g>
		<g>
			<path class="st4" d="M2215.6,328.1l-3-4"/>
			<text transform="matrix(-2.4415 -3.2368 3.2368 -2.4415 2301.9587 434.5139)" class="st5 st6">Saccharopolyspora</text>
			<path class="st7" d="M2212.6,324.1l-23.2-30.7"/>
		</g>
		<g>
			<path class="st4" d="M2241.8,307.6l-3.1-3.9"/>
			<text transform="matrix(-2.547 -3.1544 3.1544 -2.547 2331.5811 411.1928)" class="st5 st6">Saccharopolyspora</text>
			<path class="st7" d="M2238.7,303.8l-24.2-29.9"/>
		</g>
		<g>
			<path class="st4" d="M2267.3,286.4l-3.3-3.8"/>
			<text transform="matrix(-2.6498 -3.0686 3.0686 -2.6498 2360.4255 386.9037)" class="st5 st6">Saccharopolyspora</text>
			<path class="st7" d="M2264,282.6l-25.1-29.1"/>
		</g>
		<g>
			<path class="st4" d="M2292,264.3l-3.4-3.7"/>
			<text transform="matrix(-2.7496 -2.9795 2.9795 -2.7496 2388.4473 361.6728)" class="st5 st6">Saccharopolyspora</text>
			<path class="st7" d="M2288.6,260.6l-26.1-28.3"/>
		</g>
		<g>
			<path class="st4" d="M2316,241.4l-3.5-3.6"/>
			<text transform="matrix(-2.8465 -2.8871 2.8871 -2.8465 2356.2988 275.3664)" class="st5 st6">Klenkia</text>
			<path class="st7" d="M2312.5,237.8l-27-27.4"/>
		</g>
		<g>
			<path class="st4" d="M2339.3,217.7l-3.6-3.4"/>
			<text transform="matrix(-2.9403 -2.7915 2.7915 -2.9403 2380.6428 250.3325)" class="st5 st6">Klenkia</text>
			<path class="st7" d="M2335.7,214.2l-27.9-26.5"/>
		</g>
		<g>
			<path class="st4" d="M2361.7,193.2l-3.7-3.3"/>
			<text transform="matrix(-3.0308 -2.6929 2.6929 -3.0308 2471.3037 284.1798)" class="st5 st6">Pseudokineococcus</text>
			<path class="st7" d="M2358,189.9L1783-321"/>
		</g>
		<g>
			<path class="st4" d="M2383.4,168.1l-3.8-3.2"/>
			<text transform="matrix(-3.1181 -2.5914 2.5914 -3.1181 2454.1497 220.6758)" class="st5 st6">Leucobacter</text>
			<path class="st7" d="M2379.5,164.9l-29.6-24.6"/>
		</g>
		<g>
			<path class="st4" d="M2404.1,142.2l-3.9-3.1"/>
			<text transform="matrix(-3.2019 -2.487 2.487 -3.2019 2476.6318 192.4398)" class="st5 st6">Leucobacter</text>
			<path class="st7" d="M2400.2,139.1l-30.4-23.6"/>
		</g>
		<g>
			<path class="st4" d="M2424.1,115.7l-4-2.9"/>
			<text transform="matrix(-3.2823 -2.38 2.38 -3.2823 2498.1724 163.483)" class="st5 st6">Leucobacter</text>
			<path class="st7" d="M2420,112.7l-62.3-45.2"/>
		</g>
		<g>
			<path class="st4" d="M2443.1,88.5l-4.1-2.8"/>
			<text transform="matrix(-3.3591 -2.2703 2.2703 -3.3591 2518.7405 133.8255)" class="st5 st6">Leucobacter</text>
			<path class="st7" d="M2439,85.7l-95.6-64.6"/>
		</g>
		<g>
			<path class="st4" d="M2461.2,60.7L2457,58"/>
			<text transform="matrix(-3.4322 -2.1582 2.1582 -3.4322 2538.3271 103.5081)" class="st5 st6">Leucobacter</text>
			<path class="st7" d="M2457,58l-130.2-81.9"/>
		</g>
		<g>
			<path class="st4" d="M2478.4,32.3l-4.3-2.5"/>
			<text transform="matrix(-3.5016 -2.0437 2.0437 -3.5016 2568.4124 79.2806)" class="st5 st6">Schumannella</text>
			<path class="st7" d="M2474.1,29.8l-33.2-19.4"/>
		</g>
		<g>
			<path class="st4" d="M2494.7,3.4l-4.4-2.4"/>
			<text transform="matrix(-3.5671 -1.927 1.927 -3.5671 2586.1641 47.3546)" class="st5 st6">Schumannella</text>
			<path class="st7" d="M2490.3,1l-33.8-18.3"/>
		</g>
		<g>
			<path class="st4" d="M2510-26.1l-4.5-2.2"/>
			<text transform="matrix(-3.6288 -1.8082 1.8082 -3.6288 2587.7139 7.3151)" class="st5 st6">Herbiconiux</text>
			<path class="st7" d="M2505.5-28.3l-34.4-17.2"/>
		</g>
		<g>
			<path class="st4" d="M2524.3-56l-4.5-2.1"/>
			<text transform="matrix(-3.6865 -1.6874 1.6874 -3.6865 2603.0813 -25.2121)" class="st5 st6">Herbiconiux</text>
			<path class="st7" d="M2519.7-58.1l-35-16"/>
		</g>
		<g>
			<path class="st4" d="M2537.6-86.4l-4.6-1.9"/>
			<text transform="matrix(-3.7402 -1.5648 1.5648 -3.7402 2640.3281 -48.6206)" class="st5 st6">Curtobacterium</text>
			<path class="st7" d="M2533-88.3l-35.5-14.8"/>
		</g>
		<g>
			<path class="st4" d="M2549.9-117.2l-4.7-1.8"/>
			<text transform="matrix(-3.7898 -1.4404 1.4404 -3.7898 2653.8196 -82.8515)" class="st5 st6">Curtobacterium</text>
			<path class="st7" d="M2545.2-119l-36-13.7"/>
		</g>
		<g>
			<path class="st4" d="M2561.1-148.4l-4.7-1.6"/>
			<text transform="matrix(-3.8353 -1.3145 1.3145 -3.8353 2686.386 -110.5845)" class="st5 st6">Pseudoclavibacter</text>
			<path class="st7" d="M2556.4-150.1l-72.8-24.9"/>
		</g>
		<g>
			<path class="st4" d="M2571.4-180l-4.8-1.5"/>
			<text transform="matrix(-3.8766 -1.1872 1.1872 -3.8766 2677.363 -152.5658)" class="st5 st6">Microbacterium</text>
			<path class="st7" d="M2566.6-181.5l-110.3-33.8"/>
		</g>
		<g>
			<path class="st4" d="M2580.6-211.9l-4.8-1.3"/>
			<text transform="matrix(-3.9137 -1.0586 1.0586 -3.9137 2697.7156 -185.1733)" class="st5 st6">Brachybacterium</text>
			<path class="st7" d="M2575.8-213.2l-37.1-10"/>
		</g>
		<g>
			<path class="st4" d="M2588.7-244.1l-4.9-1.1"/>
			<text transform="matrix(-3.9465 -0.9288 0.9288 -3.9465 2706.6714 -221.2248)" class="st5 st6">Brachybacterium</text>
			<path class="st7" d="M2583.8-245.2l-37.4-8.8"/>
		</g>
		<g>
			<path class="st4" d="M2595.8-276.5l-4.9-1"/>
			<text transform="matrix(-3.975 -0.798 0.798 -3.975 2689.1697 -262.6255)" class="st5 st6">Sanguibacter</text>
			<path class="st7" d="M2590.9-277.5l-75.4-15.1"/>
		</g>
		<g>
			<path class="st4" d="M2601.8-309.1l-4.9-0.8"/>
			<text transform="matrix(-3.9992 -0.6663 0.6663 -3.9992 2651.7097 -305.6619)" class="st5 st6">Salana</text>
			<path class="st7" d="M2596.8-309.9l-37.9-6.3"/>
		</g>
		<g>
			<path class="st4" d="M2606.7-341.9l-5-0.7"/>
			<text transform="matrix(-4.019 -0.5339 0.5339 -4.019 2656.708 -340.1295)" class="st5 st6">Salana</text>
			<path class="st7" d="M2601.7-342.6l-38.1-5.1"/>
		</g>
		<g>
			<path class="st4" d="M2610.5-374.9l-5-0.5"/>
			<text transform="matrix(-4.0345 -0.401 0.401 -4.0345 2716.3179 -369.2014)" class="st5 st6">Quadrisphaera</text>
			<path class="st7" d="M2605.5-375.4l-842-83.7"/>
		</g>
		<g>
			<path class="st4" d="M2613.3-408l-5-0.3"/>
			<text transform="matrix(-4.0455 -0.2676 0.2676 -4.0455 2719.1829 -405.7698)" class="st5 st6">Quadrisphaera</text>
			<path class="st7" d="M2608.3-408.3l-882.7-58.4"/>
		</g>
		<g>
			<path class="st4" d="M2614.9-441.1l-5-0.2"/>
			<text transform="matrix(-4.0521 -0.1338 0.1338 -4.0521 2721.6968 -442.3794)" class="st5 st6">Brevibacterium</text>
			<path class="st7" d="M2609.9-441.3l-922.6-30.5"/>
		</g>
		<g>
			<path class="st4" d="M2615.4-474.3h-5"/>
			<text transform="matrix(-4.0543 0 0 -4.0543 2722.1443 -479.0854)" class="st5 st6">Brevibacterium</text>
			<path class="st7" d="M2610.4-474.3l-923.1,0"/>
		</g>
		<g>
			<path class="st7" d="M2503.5-117.9l-35.7-14.3 M2497.5-103.2c4.1-9.8,8-19.6,11.8-29.5"/>
		</g>
		<g>
			<path class="st7" d="M2476-153.5l-36.1-13.4 M2467.8-132.1c5.6-14.2,10.9-28.4,15.9-42.9"/>
		</g>
		<g>
			<path class="st7" d="M2448.4-190.9l-109.3-37 M2439.9-166.8c5.9-16,11.4-32.1,16.4-48.4"/>
		</g>
		<g>
			<path class="st7" d="M2360,128l-30-24.1 M2349.9,140.3c6.8-8.1,13.4-16.4,19.9-24.7"/>
		</g>
		<g>
			<path class="st7" d="M2344.1,85.9l-30.6-23.3 M2330,103.9c9.5-11.9,18.8-24,27.7-36.3"/>
		</g>
		<g>
			<path class="st7" d="M2328.7,42l-31.2-22.4 M2313.5,62.6c10.3-13.5,20.3-27.4,29.8-41.5"/>
		</g>
		<g>
			<path class="st7" d="M2312.5-1.9l-31.9-21.5 M2297.5,19.6c10.2-14.2,19.9-28.7,29.2-43.5"/>
		</g>
		<g>
			<path class="st7" d="M2478-59.7l-34.7-16.6 M2471.1-45.5c4.7-9.5,9.3-19,13.7-28.6"/>
		</g>
		<g>
			<path class="st7" d="M2448.8-3.4l-33.5-18.8 M2440.9,10.4c5.3-9.1,10.5-18.4,15.5-27.7"/>
		</g>
		<g>
			<path class="st7" d="M2429.7-49l-102.4-53.2 M2415.2-22.2c10-17.7,19.3-35.8,28.1-54.1"/>
		</g>
		<g>
			<path class="st7" d="M2305.1-62.1L2272-81.7 M2280.6-23.4c17.1-25.4,32.7-51.7,46.8-78.8"/>
		</g>
		<g>
			<path class="st7" d="M2309.4-153.1l-34.9-16.1 M2272-81.7c27.4-46.2,49.9-95.2,67.2-146.1"/>
		</g>
		<g>
			<path class="st7" d="M2561.4-331.9l-76.1-11.4 M2558.9-316.3c1.7-10.4,3.3-20.9,4.7-31.4"/>
		</g>
		<g>
			<path class="st7" d="M2542.6-238.6l-37.3-9.4 M2538.6-223.2c2.8-10.2,5.4-20.5,7.8-30.8"/>
		</g>
		<g>
			<path class="st7" d="M2510.7-270.2l-37.5-8.5 M2505.4-248c3.7-14.8,7.1-29.6,10.1-44.6"/>
		</g>
		<g>
			<path class="st7" d="M2479.8-310.9l-151.2-28.4 M2473.2-278.7c4.8-21.4,8.9-42.9,12.1-64.6"/>
		</g>
		<g>
			<path class="st7" d="M2306.8-252.6l-513.1-163.4 M2274.4-169.1c25-54.3,43.2-111.5,54.2-170.2"/>
		</g>
		<g>
			<path class="st7" d="M1517.6,482.8l48.3-497.7 M1501.8,481.1c10.5,1.2,21.1,2.2,31.6,3.1"/>
		</g>
		<g>
			<path class="st7" d="M1392.4,462.2l8.7-37.5 M1376.9,458.5c10.3,2.6,20.6,5,30.9,7.2"/>
		</g>
		<g>
			<path class="st7" d="M1423.4,429.6l7.8-37.7 M1401.1,424.7c14.8,3.5,29.8,6.5,44.8,9.3"/>
		</g>
		<g>
			<path class="st7" d="M1456.3,396.8l67-378.7 M1431.2,392c16.7,3.5,33.5,6.4,50.3,8.9"/>
		</g>
		<g>
			<path class="st7" d="M1331,445.8L1454,40.9 M1315.9,441c10.1,3.2,20.2,6.3,30.4,9.2"/>
		</g>
		<g>
			<path class="st7" d="M1212.3,401l15.9-35 M1197.9,394.3c9.6,4.5,19.2,8.9,28.9,13.1"/>
		</g>
		<g>
			<path class="st7" d="M1249.2,375.2l15.1-35.4 M1228.2,366c13.9,6.3,27.9,12.3,42.1,17.9"/>
		</g>
		<g>
			<path class="st7" d="M1127.7,357.3L1147,324 M1114,349.2c9.1,5.5,18.2,10.8,27.5,15.9"/>
		</g>
		<g>
			<path class="st7" d="M1166.9,335.3l18.5-33.7 M1147,324c13.2,7.7,26.5,15,40.1,22"/>
		</g>
		<g>
			<path class="st7" d="M1224.3,321.6l117.5-242.2 M1185.4,301.5c25.6,14,51.9,26.8,78.8,38.2"/>
		</g>
		<g>
			<path class="st7" d="M825.4,80.9l31.4-22.2 M816.3,67.9c6,8.7,12.1,17.4,18.3,25.9"/>
		</g>
		<g>
			<path class="st7" d="M870.2,77.2l61.7-46 M856.8,58.7c8.8,12.4,17.9,24.7,27.3,36.7"/>
		</g>
		<g>
			<path class="st7" d="M759.1-27.3l34.1-17.9 M751.9-41.4c4.8,9.5,9.7,18.8,14.8,28.1"/>
		</g>
		<g>
			<path class="st7" d="M804.1-25.1l33.6-18.7 M793.2-45.2c7.1,13.5,14.5,26.8,22.2,39.9"/>
		</g>
		<g>
			<path class="st7" d="M850.4-21.6l33-19.7 M837.7-43.8c8.3,14.9,17,29.5,26.2,43.9"/>
		</g>
		<g>
			<path class="st7" d="M906.8-4.4l127.9-85.4 M883.5-41.3c14.9,25,31.1,49.2,48.5,72.6"/>
		</g>
		<g>
			<path class="st7" d="M707.7-143.3l144.4-53 M702.3-158.2c3.5,10,7.1,19.9,10.9,29.8"/>
		</g>
		<g>
			<path class="st7" d="M679.4-234.2l37.2-9.6 M675.5-249.6c2.5,10.3,5.1,20.5,7.9,30.7"/>
		</g>
		<g>
			<path class="st7" d="M722.6-221.7l74-21 M716.6-243.8c3.8,14.8,8,29.4,12.5,44"/>
		</g>
		<g>
			<path class="st7" d="M655.8-358.9l38.2-4.6 M654.1-374.7c1.1,10.5,2.4,21,3.8,31.5"/>
		</g>
		<g>
			<path class="st7" d="M697.1-340.9l38.1-5.6 M694-363.5c1.8,15.1,4,30.2,6.6,45.2"/>
		</g>
		<g>
			<path class="st7" d="M739.2-321.2l37.9-6.7 M735.1-346.4c2.5,16.9,5.4,33.6,8.8,50.3"/>
		</g>
		<g>
			<path class="st7" d="M785.7-285.1l37.5-8.6 M777.1-327.8c5,28.7,11.6,57.1,19.5,85.1"/>
		</g>
		<g>
			<path class="st7" d="M836.1-244.5l36.9-10.9 M823.2-293.7c7.6,33,17.2,65.6,28.9,97.4"/>
		</g>
		<g>
			<path class="st7" d="M886.5-214.3l36.2-13 M873-255.4c8.2,27.7,18,54.8,29.2,81.4"/>
		</g>
		<g>
			<path class="st7" d="M934.4-196.9l35.6-14.6 M922.7-227.3c7.3,20.5,15.6,40.6,24.8,60.3"/>
		</g>
		<g>
			<path class="st7" d="M999.3-149l34-18.1 M969.9-211.5c17.5,42.6,39.2,83.4,64.7,121.7"/>
		</g>
		<g>
			<path class="st7" d="M997.6,266.7l73.5-88.9 M985.5,256.4c8,6.9,16.2,13.6,24.5,20.2"/>
		</g>
		<g>
			<path class="st7" d="M950,224.6l52.8-55.9 M938.6,213.6c7.6,7.4,15.3,14.7,23.1,21.8"/>
		</g>
		<g>
			<path class="st7" d="M884.2,155.9l29.1-25.2 M873.9,143.8c6.8,8.1,13.7,16.1,20.8,24"/>
		</g>
		<g>
			<path class="st7" d="M928.4,147.7l28.4-25.9 M913.2,130.7c10,11.5,20.3,22.8,30.8,33.8"/>
		</g>
		<g>
			<path class="st7" d="M979.4,145.7l27.4-27 M956.8,121.8c14.8,16.2,30.1,31.8,46,46.9"/>
		</g>
		<g>
			<path class="st7" d="M1038.2,149.1l26-28.3 M1006.9,118.7c20.4,20.8,41.9,40.5,64.3,59"/>
		</g>
		<g>
			<path class="st7" d="M1095,147.6l24.5-29.6 M1064.2,120.7c20.1,18.4,41,35.8,62.9,52.1"/>
		</g>
		<g>
			<path class="st7" d="M1144.7,137.9l23.3-30.6 M1119.6,118c16.5,13.7,33.6,26.7,51.2,38.9"/>
		</g>
		<g>
			<path class="st7" d="M1190.1,123.5l44.2-62.9 M1168,107.3c14.5,11,29.4,21.5,44.7,31.4"/>
		</g>
		<g>
			<path class="st7" d="M1120.4-41.4l28.8-25.5 M1033.2-167.1c48.2,90.6,117.1,168.6,201.1,227.7"/>
		</g>
		<g>
			<path class="st7" d="M1238.3,15.8l23.3-30.6 M1149.2-66.9c53.9,61,119.4,110.8,192.6,146.3"/>
		</g>
		<g>
			<path class="st7" d="M1335.4,32.9l18.3-33.8 M1261.5-14.8c46.8,35.6,98.8,63.8,154.2,83.6"/>
		</g>
		<g>
			<path class="st7" d="M1402.8,22.5l14.8-35.5 M1353.7-0.9c31.9,17.3,65.5,31.3,100.2,41.9"/>
		</g>
		<g>
			<path class="st7" d="M1469.6,5.5l10.8-36.9 M1417.6-13c34,14.2,69.4,24.6,105.7,31"/>
		</g>
		<g>
			<path class="st7" d="M1522.8-21.1l7.3-37.8 M1480.5-31.4c27.9,8.2,56.5,13.7,85.4,16.5"/>
		</g>
		<g>
			<path class="st7" d="M1863.7,453.3l-20.3-74.2 M1848.3,457.4c10.3-2.6,20.5-5.4,30.6-8.4"/>
		</g>
		<g>
			<path class="st7" d="M1770.7,473.8l-6.4-37.9 M1755,476.3c10.5-1.6,20.9-3.4,31.3-5.3"/>
		</g>
		<g>
			<path class="st7" d="M1786.8,431.8l-7.3-37.8 M1764.3,435.9c15-2.5,30-5.5,44.9-8.7"/>
		</g>
		<g>
			<path class="st7" d="M1811.6,387.2l-8.7-37.5 M1779.4,394c21.5-4.2,42.8-9.2,64-14.9"/>
		</g>
		<g>
			<path class="st7" d="M1838.3,340.6l-20.7-74.1 M1802.8,349.7c23.8-5.6,47.4-12.1,70.6-19.7"/>
		</g>
		<g>
			<path class="st7" d="M1581,486.8l1.2-38.4 M1565.1,486.2c10.6,0.5,21.2,0.8,31.7,1"/>
		</g>
		<g>
			<path class="st7" d="M1605,448.8l0.2-38.5 M1582.1,448.4c15.2,0.5,30.5,0.6,45.7,0.3"/>
		</g>
		<g>
			<path class="st7" d="M1630.8,410.1l-0.9-38.5 M1605.2,410.3c17,0.1,34.1-0.3,51.1-1.2"/>
		</g>
		<g>
			<path class="st7" d="M1656.1,370.6l-2.1-38.4 M1629.9,371.6c17.5-0.4,34.9-1.3,52.3-2.8"/>
		</g>
		<g>
			<path class="st7" d="M1679.8,330.4l-3.3-38.3 M1654,332.2c17.2-0.9,34.4-2.4,51.5-4.4"/>
		</g>
		<g>
			<path class="st7" d="M1747.6,282.6L1685.9-58 M1676.5,292.1c47.7-4.1,95-12.7,141.2-25.6"/>
		</g>
		<g>
			<path class="st7" d="M1607.9-51.2l0.2-38.5 M1530.1-58.9c51.4,10,104.3,10.3,155.8,0.9"/>
		</g>
		<g>
			<path class="st7" d="M1676.1-95.3l-6.6-37.9 M1608.2-89.7c45.6,0.3,90.9-7.6,133.8-23.2"/>
		</g>
		<g>
			<path class="st7" d="M1705-141.3l-10.5-37 M1669.5-133.2c24-4.2,47.4-10.8,70-19.9"/>
		</g>
		<g>
			<path class="st7" d="M1885.5-1395.6l-22,73.7 M1900.7-1391c-10.1-3.2-20.2-6.2-30.4-9.1"/>
		</g>
		<g>
			<path class="st7" d="M1975.3-1363.9l-14.6,35.6 M1989.9-1357.8c-9.7-4.2-19.5-8.2-29.4-12"/>
		</g>
		<g>
			<path class="st7" d="M1939.4-1336.8l-13.7,35.9 M1960.7-1328.3c-14.1-5.8-28.3-11.2-42.7-16.3"/>
		</g>
		<g>
			<path class="st7" d="M1894.8-1312l-12.4,36.4 M1925.7-1300.8c-20.5-7.8-41.2-14.9-62.2-21.1"/>
		</g>
		<g>
			<path class="st7" d="M1847.5-1286.6l-10.8,36.9 M1882.4-1275.5c-23.2-7.9-46.6-14.7-70.4-20.5"/>
		</g>
		<g>
			<path class="st7" d="M1793-1418.3l-29.2,151 M1808.6-1415.2c-10.4-2.2-20.7-4.2-31.2-6"/>
		</g>
		<g>
			<path class="st7" d="M1800.5-1259.3l-9,37.4 M1836.7-1249.6c-24-7-48.3-12.9-72.9-17.6"/>
		</g>
		<g>
			<path class="st7" d="M1635.4-1435.5l-1,38.4 M1651.2-1435c-10.6-0.4-21.2-0.7-31.7-0.8"/>
		</g>
		<g>
			<path class="st7" d="M1611.5-1397.4l0,38.5 M1634.4-1397.1c-15.2-0.4-30.5-0.4-45.7-0.1"/>
		</g>
		<g>
			<path class="st7" d="M1730.3-1428.3l-4.8,38.2 M1746.1-1426.2c-10.5-1.5-21-2.8-31.5-4"/>
		</g>
		<g>
			<path class="st7" d="M1702.8-1392.7l-3.8,38.3 M1725.5-1390.2c-15.1-1.9-30.3-3.4-45.5-4.6"/>
		</g>
		<g>
			<path class="st7" d="M1655.3-1357.8l-5.8,115.2 M1699-1354.5c-29.1-2.9-58.3-4.4-87.5-4.4"/>
		</g>
		<g>
			<path class="st7" d="M1720.9-1235.5l-5.5,38.1 M1791.4-1221.9c-46.6-11.3-94.1-18.2-142-20.6"/>
		</g>
		<g>
			<path class="st7" d="M1477.1-1426.5l5.3,38.1 M1492.8-1428.6c-10.5,1.3-21,2.8-31.4,4.4"/>
		</g>
		<g>
			<path class="st7" d="M1540.2-1433.3l2.8,38.4 M1556-1434.3c-10.6,0.6-21.1,1.4-31.7,2.3"/>
		</g>
		<g>
			<path class="st7" d="M1512.7-1392.2l4.1,38.2 M1543-1394.9c-20.3,1.5-40.5,3.6-60.6,6.5"/>
		</g>
		<g>
			<path class="st7" d="M1414.5-1415.7l15.7,75.3 M1430.1-1418.8c-10.4,2-20.8,4.1-31.1,6.5"/>
		</g>
		<g>
			<path class="st7" d="M1473.3-1348.2l23.9,152 M1516.7-1353.9c-29.1,3.1-57.9,7.6-86.5,13.6"/>
		</g>
		<g>
			<path class="st7" d="M1606.2-1205l0.4,76.9 M1715.4-1197.5c-72.4-10.5-146-10.1-218.2,1.3"/>
		</g>
		<g>
			<path class="st7" d="M2333.7-1107.8l-28.9,25.3 M2344.1-1095.8c-6.8-8.1-13.8-16-20.9-23.9"/>
		</g>
		<g>
			<path class="st7" d="M2289.5-1099.5l-84.9,78.2 M2304.8-1082.5c-10-11.5-20.4-22.7-31-33.6"/>
		</g>
		<g>
			<path class="st7" d="M2410.9-1007.1l-32,21.3 M2419.6-993.8c-5.7-8.9-11.6-17.7-17.6-26.4"/>
		</g>
		<g>
			<path class="st7" d="M2444.3-953.1l-33.4,19.2 M2452.1-939.3c-5.1-9.3-10.4-18.4-15.8-27.5"/>
		</g>
		<g>
			<path class="st7" d="M2395.3-960.1l-32.7,20.2 M2410.9-933.9c-10.1-17.6-20.8-34.9-32.1-51.8"/>
		</g>
		<g>
			<path class="st7" d="M2342.8-970.5l-31.8,21.6 M2362.6-939.9c-12.8-20.7-26.5-40.9-41-60.4"/>
		</g>
		<g>
			<path class="st7" d="M2292.8-974.6l-31,22.7 M2310.9-948.9c-11.8-17.3-24.2-34.3-37.2-50.7"/>
		</g>
		<g>
			<path class="st7" d="M2234.2-987.4l-29.7,24.4 M2261.8-951.9c-17.7-24.2-36.8-47.4-57.2-69.5"/>
		</g>
		<g>
			<path class="st7" d="M2511.6-809.5l-36,13.4 M2517.1-794.6c-3.5-10-7.2-19.9-11.1-29.8"/>
		</g>
		<g>
			<path class="st7" d="M2467.4-817.5l-35.7,14.3 M2475.6-796.1c-5.3-14.3-11-28.4-17-42.4"/>
		</g>
		<g>
			<path class="st7" d="M2421.8-826.7l-35.3,15.3 M2431.7-803.2c-6.3-15.8-13.1-31.5-20.4-46.9"/>
		</g>
		<g>
			<path class="st7" d="M2554.5-656.9l-37.8,7.3 M2557.4-641.3c-1.8-10.4-3.8-20.8-6-31.2"/>
		</g>
		<g>
			<path class="st7" d="M2512.1-672l-37.6,8.2 M2516.7-649.6c-2.9-15-6.2-29.9-9.8-44.7"/>
		</g>
		<g>
			<path class="st7" d="M2531.8-749.3l-73.7,22 M2536.2-734.1c-2.9-10.2-5.9-20.3-9.1-30.4"/>
		</g>
		<g>
			<path class="st7" d="M2466.9-695.7l-37.2,9.6 M2474.5-663.7c-4.7-21.4-10.2-42.6-16.4-63.6"/>
		</g>
		<g>
			<path class="st7" d="M2410.6-749.6l-36.4,12.5 M2429.7-686c-11.1-42.9-25.5-84.8-43.1-125.4"/>
		</g>
		<g>
			<path class="st7" d="M2353.9-790l-35.4,15 M2374.2-737.1c-12.3-35.7-27.1-70.6-44.3-104.2"/>
		</g>
		<g>
			<path class="st7" d="M2268.2-873.1l-32.9,19.9 M2318.5-774.9c-28.8-67.8-67.2-131.1-114-188"/>
		</g>
		<g>
			<path class="st7" d="M2194.9-1237.8l-46.8,61.1 M2207.4-1228.1c-8.3-6.6-16.7-13-25.2-19.3"/>
		</g>
		<g>
			<path class="st7" d="M2267.5-1176.3l-26.3,28.1 M2279-1165.3c-7.6-7.4-15.3-14.6-23.2-21.7"/>
		</g>
		<g>
			<path class="st7" d="M2224.4-1163.6l-25.6,28.7 M2241.3-1148.2c-11.1-10.4-22.5-20.6-34.1-30.4"/>
		</g>
		<g>
			<path class="st7" d="M2173.8-1156.3l-24.5,29.7 M2198.8-1134.9c-16.4-14.6-33.3-28.5-50.7-41.8"/>
		</g>
		<g>
			<path class="st7" d="M2120.6-1149.4l-23.2,30.7 M2149.4-1126.6c-18.9-15.6-38.4-30.3-58.5-44.2"/>
		</g>
		<g>
			<path class="st7" d="M2072.4-1136.8l-22,31.5 M2097.4-1118.7c-16.4-12.4-33.3-24.2-50.6-35.3"/>
		</g>
		<g>
			<path class="st7" d="M2027.7-1120.5l-20.9,32.3 M2050.4-1105.2c-15-10.4-30.3-20.4-46-29.7"/>
		</g>
		<g>
			<path class="st7" d="M2134.5-983.6l-27.6,26.8 M2235.4-853.1c-57.4-94.7-135.5-175-228.5-235.1"/>
		</g>
		<g>
			<path class="st7" d="M2061.5-1323.5l-18,34 M2075.4-1315.9c-9.3-5.1-18.6-10.1-28-14.9"/>
		</g>
		<g>
			<path class="st7" d="M2023.1-1300l-103.2,206.4 M2043.4-1289.5c-13.5-7.1-27.1-14-40.9-20.4"/>
		</g>
		<g>
			<path class="st7" d="M2019.2-1033.1l-22.7,31 M2106.9-956.8c-54.2-55.8-117.4-102-186.9-136.7"/>
		</g>
		<g>
			<path class="st7" d="M1811.7-1096.4l-11.8,36.6 M1996.5-1002c-113.1-82.7-249.7-126.9-389.8-126.1"/>
		</g>
		<g>
			<path class="st7" d="M1628.3-1089.4l-7.8,269.1 M1799.8-1059.8c-111.5-36.1-231-39.6-344.5-10"/>
		</g>
		<g>
			<path class="st7" d="M650.3-422.2l38.4-2.1 M649.6-438c0.4,10.6,1,21.1,1.7,31.7"/>
		</g>
		<g>
			<path class="st7" d="M649-485.6l38.5,0.5 M649.3-501.5c-0.3,10.6-0.4,21.2-0.4,31.7"/>
		</g>
		<g>
			<path class="st7" d="M687.6-454.7l538.3-11.4 M687.4-485.2c-0.2,20.3,0.2,40.6,1.3,60.9"/>
		</g>
		<g>
			<path class="st7" d="M670-674.6l37.6,8 M673.4-690.1c-2.4,10.3-4.6,20.7-6.6,31.1"/>
		</g>
		<g>
			<path class="st7" d="M703.1-644.2l37.8,7.1 M707.6-666.6c-3.2,14.9-6,29.9-8.4,44.9"/>
		</g>
		<g>
			<path class="st7" d="M736.6-611.9l379.9,59.9 M740.9-637.1c-3.1,16.7-5.8,33.6-8,50.5"/>
		</g>
		<g>
			<path class="st7" d="M694.4-766.7l366.4,117 M699.4-781.8c-3.4,10-6.6,20.1-9.7,30.2"/>
		</g>
		<g>
			<path class="st7" d="M740.9-884.8l34.8,16.4 M747.8-899.1c-4.7,9.5-9.2,19.1-13.6,28.7"/>
		</g>
		<g>
			<path class="st7" d="M766.2-847.5l35.2,15.6 M775.7-868.3c-6.5,13.8-12.7,27.7-18.5,41.8"/>
		</g>
		<g>
			<path class="st7" d="M791.4-808.5l249.3,101.7 M801.4-832c-6.9,15.6-13.3,31.4-19.3,47.3"/>
		</g>
		<g>
			<path class="st7" d="M785.8-968.7l33,19.8 M794-982.3c-5.6,9-11,18.1-16.3,27.2"/>
		</g>
		<g>
			<path class="st7" d="M807.2-929.2l234.3,132.7 M818.8-949c-7.8,13.1-15.3,26.3-22.5,39.8"/>
		</g>
		<g>
			<path class="st7" d="M858.1-1073l120.4,95.8 M868.1-1085.4c-6.7,8.2-13.3,16.5-19.8,24.8"/>
		</g>
		<g>
			<path class="st7" d="M943.5-1166.9l26.7,27.7 M955-1177.8c-7.7,7.2-15.4,14.6-22.9,22"/>
		</g>
		<g>
			<path class="st7" d="M990.6-1209.4l24.8,29.4 M1002.9-1219.5c-8.2,6.7-16.3,13.5-24.3,20.5"/>
		</g>
		<g>
			<path class="st7" d="M992.5-1160l25.7,28.6 M1015.4-1180c-15.5,13.1-30.6,26.7-45.3,40.8"/>
		</g>
		<g>
			<path class="st7" d="M991.6-1106.4l26.9,27.5 M1018.2-1131.4c-18.1,16.3-35.5,33.3-52.2,51.1"/>
		</g>
		<g>
			<path class="st7" d="M996.5-1056.5l27.9,26.5 M1018.5-1078.9c-15,14.7-29.4,29.9-43.2,45.6"/>
		</g>
		<g>
			<path class="st7" d="M1000.8-1004.1l29,25.2 M1024.4-1030.1c-16.1,16.9-31.4,34.6-45.9,52.8"/>
		</g>
		<g>
			<path class="st7" d="M820.2-1022.1l158,109.6 M829.4-1035.1c-6.2,8.6-12.2,17.3-18.1,26.1"/>
		</g>
		<g>
			<path class="st7" d="M1003.1-946.4l60.7,47.2 M1029.9-978.9c-18.4,21.2-35.6,43.3-51.6,66.4"/>
		</g>
		<g>
			<path class="st7" d="M1147.5-1317l18.5,33.7 M1161.4-1324.5c-9.4,4.9-18.6,10-27.8,15.3"/>
		</g>
		<g>
			<path class="st7" d="M1146.1-1272.1l38.7,66.5 M1166-1283.3c-13.4,7.3-26.5,15-39.5,23"/>
		</g>
		<g>
			<path class="st7" d="M1233.1-1358.7l15.1,35.4 M1247.7-1364.8c-9.8,4-19.5,8.1-29.2,12.5"/>
		</g>
		<g>
			<path class="st7" d="M1227.2-1314.1l16,35 M1248.2-1323.3c-14,6-27.9,12.3-41.6,19"/>
		</g>
		<g>
			<path class="st7" d="M1322.4-1391.7l11.5,36.7 M1337.6-1396.3c-10.1,3-20.2,6.2-30.3,9.5"/>
		</g>
		<g>
			<path class="st7" d="M1312.2-1347.8l12.4,36.4 M1333.9-1355c-14.5,4.6-29,9.5-43.3,14.8"/>
		</g>
		<g>
			<path class="st7" d="M1283.5-1296.3l14.2,35.7 M1324.6-1311.5c-27.6,9.4-54.8,20.2-81.4,32.4"/>
		</g>
		<g>
			<path class="st7" d="M1240.2-1235.2l16.8,34.6 M1297.7-1260.5c-39,15.5-76.7,33.9-113,55"/>
		</g>
		<g>
			<path class="st7" d="M1209.9-1175.7l19.1,33.4 M1257.1-1200.6c-32,15.6-62.9,33.2-92.6,52.9"/>
		</g>
		<g>
			<path class="st7" d="M1196.4-1122.6l20.7,32.4 M1229-1142.3c-22.1,12.6-43.5,26.3-64.2,41"/>
		</g>
		<g>
			<path class="st7" d="M1192-1073.4l22,31.5 M1217.1-1090.1c-16.9,10.8-33.4,22.3-49.4,34.5"/>
		</g>
		<g>
			<path class="st7" d="M1133.6-976.2l26.5,27.9 M1214-1041.9c-56.9,39.8-107.5,87.8-150.1,142.7"/>
		</g>
		<g>
			<path class="st7" d="M1095.2-876.8l30.3,23.7 M1160.1-948.3c-46.8,44.5-86.7,95.6-118.6,151.8"/>
		</g>
		<g>
			<path class="st7" d="M1078-782.9l33.3,19.3 M1125.5-853.1c-34.9,44.6-63.4,93.9-84.8,146.4"/>
		</g>
		<g>
			<path class="st7" d="M1083-708l35.2,15.6 M1111.3-763.6c-20.9,36-37.8,74.2-50.5,113.9"/>
		</g>
		<g>
			<path class="st7" d="M1102.5-653l36.3,12.8 M1118.1-692.4c-11.5,25.9-20.9,52.6-28.1,80"/>
		</g>
		<g>
			<path class="st7" d="M1125.6-596.7l37.3,9.4 M1138.8-640.2c-10.1,28.6-17.5,58.1-22.2,88.1"/>
		</g>
		<g>
			<path class="st7" d="M1155.6-552.7l37.9,6.5 M1162.9-587.2c-5.8,22.8-9.8,46.1-12,69.5"/>
		</g>
		<g>
			<path class="st7" d="M1190.2-523.3l38.2,4.5 M1193.5-546.2c-2.6,15.2-4.4,30.6-5.4,46"/>
		</g>
		<g>
			<path class="st7" d="M1226.3-492.5l38.4,1.8 M1228.4-518.8c-2,17.5-2.9,35.1-2.5,52.7"/>
		</g>
		<g>
			<path class="st7" d="M1375.2-728.2l26.1,28.2 M1620.5-820.3c-188.6-5.5-346.9,141.1-355.8,329.6"/>
		</g>
		<g>
			<path class="st7" d="M1342.2-323.5l33.5-18.8 M1401.3-700c-104.4,96.7-128.9,252.4-59.1,376.5
				c69.7,124.1,215.4,184.1,352.3,145.2"/>
		</g>
		<g>
			<path class="st7" d="M2296.7,199.2L2159.5,64.5 M2285.5,210.4c7.5-7.4,14.9-15,22.2-22.7"/>
		</g>
		<g>
			<path class="st7" d="M2150.8,321.1l-64.8-95.4 M2137.6,329.9c8.9-5.8,17.6-11.7,26.3-17.8"/>
		</g>
		<g>
			<path class="st7" d="M2097.1,355l-38.9-66.3 M2083.3,362.9c9.2-5.2,18.3-10.6,27.4-16.1"/>
		</g>
		<g>
			<path class="st7" d="M2012.7,399.1l-16.1-34.9 M1998.2,405.6c9.7-4.3,19.3-8.7,28.8-13.3"/>
		</g>
		<g>
			<path class="st7" d="M2017.2,354.3l-17-34.5 M1996.6,364.1c13.8-6.4,27.5-13.1,41-20.1"/>
		</g>
		<g>
			<path class="st7" d="M2029.5,304.8l-18.2-33.9 M2000.3,319.8c19.7-9.7,39-20,57.9-31.1"/>
		</g>
		<g>
			<path class="st7" d="M2049.2,249.2l-19.9-32.9 M2011.3,270.9c25.6-13.8,50.5-28.9,74.6-45.3"/>
		</g>
		<g>
			<path class="st7" d="M2250.8,243l-25.6-28.7 M2238.9,253.5c8-6.9,15.9-14,23.7-21.1"/>
		</g>
		<g>
			<path class="st7" d="M2202.1,283.7l-23.7-30.3 M2189.5,293.4c8.4-6.4,16.8-12.9,25-19.5"/>
		</g>
		<g>
			<path class="st7" d="M2202.1,234.2l-74-88.6 M2178.4,253.4c16-12.5,31.6-25.5,46.8-39.1"/>
		</g>
		<g>
			<path class="st7" d="M2080,182.9l-22.4-31.3 M2029.2,216.3c34.7-21,67.8-44.7,98.9-70.7"/>
		</g>
		<g>
			<path class="st7" d="M2110.5,110.3l-325-379.9 M2057.7,151.6c36.4-26,70.5-55.2,101.8-87.1"/>
		</g>
		<g>
			<path class="st7" d="M1563.4-209.2l6.7-37.9 M1375.7-342.4c39.5,70.2,108.3,119.1,187.7,133.2c79.3,14.1,160.8-8.1,222-60.5"/>
		</g>
		<g>
			<path class="st7" d="M1686.2-256.3l-12.6-36.3 M1570.1-247.1c79,14,159.6-14,212.8-73.9"/>
		</g>
		<g>
			<path class="st7" d="M1748.2-340.1l-27.5-26.8 M1673.6-292.6c57.2-19.9,101.7-65.6,120.1-123.3"/>
		</g>
		<g>
			<path class="st7" d="M1749.9-409.4l-34.9-16.2 M1720.6-366.9c24.3-25,39.4-57.5,42.9-92.1"/>
		</g>
		<g>
			<path class="st7" d="M1722.2-445.6l-37.3-9.5 M1715-425.6c6-12.9,9.6-26.9,10.5-41.1"/>
		</g>
		<g>
			<path class="st7" d="M1686.8-464.7l-38.2-4.8 M1685-455.2c1.6-6.2,2.4-12.7,2.4-19.1"/>
		</g>
	</g>
	<g id="scaleHolder">
	</g>
	<g id="bootstrapHolder">
	</g>
	<g id="branchlengthHolder">
	</g>
	<g id="branchIDHolder">
	</g>
	<g id="datasetHolder">
	</g>
</g>
<g id="wrapperHolder">
</g>
<g id="legendHolder">
</g>
</svg>
