<?xml version="1.0" encoding="utf-8"?>
<!-- Generator: Adobe Illustrator 27.4.1, SVG Export Plug-In . SVG Version: 6.00 Build 0)  -->
<svg version="1.1" id="图层_1" xmlns="http://www.w3.org/2000/svg" xmlns:xlink="http://www.w3.org/1999/xlink" x="0px" y="0px"
	 viewBox="0 0 633.2 635.1" style="enable-background:new 0 0 633.2 635.1;" xml:space="preserve">
<style type="text/css">
	
		.st0{fill:none;stroke:#AAAAAA;stroke-width:8.879400e-02;stroke-linecap:round;stroke-miterlimit:2.9598;stroke-dasharray:1.4799,2.9598;stroke-dashoffset:2;}
	.st1{font-family:'ArialMT';}
	.st2{font-size:4.7357px;}
	.st3{fill:none;stroke:#000000;stroke-width:0.296;stroke-linecap:round;stroke-miterlimit:2.9598;}
</style>
<g id="mainHolder" transform="translate(640.97955,438.57225) rotate(-150) scale(0.29598,0.29598)">
	<g id="rangeHolder">
	</g>
	<g id="rangeDatasetHolder">
	</g>
	<g id="pruningHolder">
	</g>
	<g id="treeHolder">
		<g>
			<path class="st0" d="M2145.5-371.6l-4.9,0.9"/>
			<text transform="matrix(-3.3273 0.5867 -0.5867 -3.3273 2198.0811 -385.7065)" class="st1 st2">ASV 31</text>
			<path class="st3" d="M2140.6-370.7l-37.9,6.7"/>
		</g>
		<g>
			<path class="st0" d="M2139.2-404.1l-4.9,1"/>
			<text transform="matrix(-3.3061 0.6962 -0.6962 -3.3061 2199.9895 -421.8488)" class="st1 st2">ASV 184</text>
			<path class="st3" d="M2134.3-403.1l-37.6,7.9"/>
		</g>
		<g>
			<path class="st0" d="M2131.8-436.5l-4.9,1.2"/>
			<text transform="matrix(-3.2813 0.805 -0.805 -3.2813 2183.3542 -454.0813)" class="st1 st2">ASV 20</text>
			<path class="st3" d="M2126.9-435.3l-74.7,18.3"/>
		</g>
		<g>
			<path class="st0" d="M2123.4-468.6l-4.8,1.4"/>
			<text transform="matrix(-3.2529 0.9129 -0.9129 -3.2529 2174.3101 -487.8669)" class="st1 st2">ASV 32</text>
			<path class="st3" d="M2118.6-467.2l-37,10.4"/>
		</g>
		<g>
			<path class="st0" d="M2113.9-500.4l-4.8,1.5"/>
			<text transform="matrix(-3.221 1.0198 -1.0198 -3.221 2164.1519 -521.3354)" class="st1 st2">ASV 19</text>
			<path class="st3" d="M2109.1-498.9l-36.7,11.6"/>
		</g>
		<g>
			<path class="st0" d="M2103.3-531.8l-4.7,1.7"/>
			<text transform="matrix(-3.1856 1.1255 -1.1255 -3.1856 2159.05 -556.6214)" class="st1 st2">ASV 111</text>
			<path class="st3" d="M2098.6-530.2l-36.3,12.8"/>
		</g>
		<g>
			<path class="st0" d="M2091.8-562.9l-4.7,1.8"/>
			<text transform="matrix(-3.1467 1.2301 -1.2301 -3.1467 2148.8435 -590.416)" class="st1 st2">ASV 128</text>
			<path class="st3" d="M2087.1-561.1l-35.8,14"/>
		</g>
		<g>
			<path class="st0" d="M2079.2-593.7l-4.6,2"/>
			<text transform="matrix(-3.1044 1.3333 -1.3333 -3.1044 2135.3159 -622.9863)" class="st1 st2">ASV 169</text>
			<path class="st3" d="M2074.6-591.7l-70.7,30.4"/>
		</g>
		<g>
			<path class="st0" d="M2065.6-623.9l-4.5,2.1"/>
			<text transform="matrix(-3.0587 1.4351 -1.4351 -3.0587 2112.6646 -651.3132)" class="st1 st2">ASV 28</text>
			<path class="st3" d="M2061.1-621.8l-104.5,49"/>
		</g>
		<g>
			<path class="st0" d="M2051-653.7l-4.5,2.3"/>
			<text transform="matrix(-3.0096 1.5353 -1.5353 -3.0096 2097.1448 -682.6547)" class="st1 st2">ASV 15</text>
			<path class="st3" d="M2046.5-651.5l-171.3,87.4"/>
		</g>
		<g>
			<path class="st0" d="M2035.4-683l-4.4,2.4"/>
			<text transform="matrix(-2.9573 1.6338 -1.6338 -2.9573 2080.5989 -713.4694)" class="st1 st2">ASV 63</text>
			<path class="st3" d="M2031.1-680.6l-33.7,18.6"/>
		</g>
		<g>
			<path class="st0" d="M2018.9-711.8l-4.3,2.6"/>
			<text transform="matrix(-2.9018 1.7305 -1.7305 -2.9018 2063.0479 -743.7234)" class="st1 st2">ASV 40</text>
			<path class="st3" d="M2014.6-709.2l-33,19.7"/>
		</g>
		<g>
			<path class="st0" d="M2001.4-740l-4.2,2.7"/>
			<text transform="matrix(-2.843 1.8254 -1.8254 -2.843 2044.5031 -773.3801)" class="st1 st2">ASV 58</text>
			<path class="st3" d="M1997.2-737.3l-32.4,20.8"/>
		</g>
		<g>
			<path class="st0" d="M1983.1-767.6l-4.1,2.8"/>
			<text transform="matrix(-2.7812 1.9183 -1.9183 -2.7812 2024.9908 -802.4065)" class="st1 st2">ASV 38</text>
			<path class="st3" d="M1978.9-764.8l-31.7,21.8"/>
		</g>
		<g>
			<path class="st0" d="M1963.8-794.6l-4,3"/>
			<text transform="matrix(-2.7164 2.009 -2.009 -2.7164 2004.5338 -830.7717)" class="st1 st2">ASV 55</text>
			<path class="st3" d="M1959.7-791.7l-92.8,68.6"/>
		</g>
		<g>
			<path class="st0" d="M1943.6-821l-3.9,3.1"/>
			<text transform="matrix(-2.6486 2.0976 -2.0976 -2.6486 1983.1487 -858.4464)" class="st1 st2">ASV 36</text>
			<path class="st3" d="M1939.7-817.9l-120.6,95.5"/>
		</g>
		<g>
			<path class="st0" d="M1922.6-846.7l-3.8,3.2"/>
			<text transform="matrix(-2.5779 2.1839 -2.1839 -2.5779 1960.8611 -885.4032)" class="st1 st2">ASV 74</text>
			<path class="st3" d="M1918.8-843.4l-29.3,24.9"/>
		</g>
		<g>
			<path class="st0" d="M1900.7-871.6l-3.7,3.4"/>
			<text transform="matrix(-2.5044 2.2678 -2.2678 -2.5044 1937.6987 -911.6066)" class="st1 st2">ASV 81</text>
			<path class="st3" d="M1897-868.3l-28.5,25.8"/>
		</g>
		<g>
			<path class="st0" d="M1878-895.9l-3.6,3.5"/>
			<text transform="matrix(-2.4282 2.3493 -2.3493 -2.4282 1920.0756 -943.2205)" class="st1 st2">ASV 125</text>
			<path class="st3" d="M1874.4-892.4l-55.3,53.5"/>
		</g>
		<g>
			<path class="st0" d="M1854.6-919.3l-3.5,3.6"/>
			<text transform="matrix(-2.3493 2.4282 -2.4282 -2.3493 1895.0271 -968.0464)" class="st1 st2">ASV 612</text>
			<path class="st3" d="M1851.1-915.7l-26.7,27.6"/>
		</g>
		<g>
			<path class="st0" d="M1830.3-942l-3.4,3.7"/>
			<text transform="matrix(-2.2678 2.5044 -2.5044 -2.2678 1869.1682 -992.0331)" class="st1 st2">ASV 388</text>
			<path class="st3" d="M1827-938.3l-25.8,28.5"/>
		</g>
		<g>
			<path class="st0" d="M1805.4-963.9l-3.2,3.8"/>
			<text transform="matrix(-2.1839 2.5779 -2.5779 -2.1839 1842.5344 -1015.1548)" class="st1 st2">ASV 506</text>
			<path class="st3" d="M1802.1-960l-49.7,58.7"/>
		</g>
		<g>
			<path class="st0" d="M1779.7-984.9l-3.1,3.9"/>
			<text transform="matrix(-2.0976 2.6486 -2.6486 -2.0976 1815.1519 -1037.3816)" class="st1 st2">ASV 400</text>
			<path class="st3" d="M1776.6-981l-23.9,30.2"/>
		</g>
		<g>
			<path class="st0" d="M1753.4-1005.1l-3,4"/>
			<text transform="matrix(-2.009 2.7164 -2.7164 -2.009 1787.0483 -1058.6904)" class="st1 st2">ASV 422</text>
			<path class="st3" d="M1750.4-1001l-22.9,30.9"/>
		</g>
		<g>
			<path class="st0" d="M1726.4-1024.3l-2.8,4.1"/>
			<text transform="matrix(-1.9183 2.7812 -2.7812 -1.9183 1758.2576 -1079.0651)" class="st1 st2">ASV 340</text>
			<path class="st3" d="M1723.5-1020.2l-87.3,126.6"/>
		</g>
		<g>
			<path class="st0" d="M1698.7-1042.7l-2.7,4.2"/>
			<text transform="matrix(-1.8254 2.8431 -2.8431 -1.8254 1728.8121 -1098.4742)" class="st1 st2">ASV 520</text>
			<path class="st3" d="M1696-1038.5l-103.9,161.8"/>
		</g>
		<g>
			<path class="st0" d="M1670.5-1060.2l-2.6,4.3"/>
			<text transform="matrix(-1.7305 2.9018 -2.9018 -1.7305 1698.7389 -1116.901)" class="st1 st2">ASV 767</text>
			<path class="st3" d="M1668-1055.9l-118.2,198.2"/>
		</g>
		<g>
			<path class="st0" d="M1641.7-1076.7l-2.4,4.4"/>
			<text transform="matrix(-1.6338 2.9573 -2.9573 -1.6338 1668.0752 -1134.3259)" class="st1 st2">ASV 745</text>
			<path class="st3" d="M1639.3-1072.3l-18.6,33.7"/>
		</g>
		<g>
			<path class="st0" d="M1612.4-1092.3l-2.3,4.5"/>
			<text transform="matrix(-1.5353 3.0096 -3.0096 -1.5353 1640.3574 -1157.5979)" class="st1 st2">ASV 1186</text>
			<path class="st3" d="M1610.2-1087.8l-17.5,34.3"/>
		</g>
		<g>
			<path class="st0" d="M1582.6-1106.9l-2.1,4.5"/>
			<text transform="matrix(-1.4351 3.0587 -3.0587 -1.4351 1605.1057 -1166.0933)" class="st1 st2">ASV 749</text>
			<path class="st3" d="M1580.5-1102.4l-32.7,69.6"/>
		</g>
		<g>
			<path class="st0" d="M1552.4-1120.5l-2,4.6"/>
			<text transform="matrix(-1.3333 3.1044 -3.1044 -1.3333 1572.871 -1180.3978)" class="st1 st2">ASV 189</text>
			<path class="st3" d="M1550.4-1115.9l-15.2,35.3"/>
		</g>
		<g>
			<path class="st0" d="M1521.7-1133.1l-1.8,4.7"/>
			<text transform="matrix(-1.2301 3.1467 -3.1467 -1.2301 1540.1786 -1193.6351)" class="st1 st2">ASV 171</text>
			<path class="st3" d="M1519.8-1128.4l-14,35.8"/>
		</g>
		<g>
			<path class="st0" d="M1490.6-1144.6l-1.7,4.7"/>
			<text transform="matrix(-1.1255 3.1856 -3.1856 -1.1255 1506.6698 -1204.6613)" class="st1 st2">ASV 115</text>
			<path class="st3" d="M1488.9-1139.9l-25.6,72.5"/>
		</g>
		<g>
			<path class="st0" d="M1459.1-1155.2l-1.5,4.8"/>
			<text transform="matrix(-1.0198 3.221 -3.221 -1.0198 1473.5723 -1216.8329)" class="st1 st2">ASV 180</text>
			<path class="st3" d="M1457.6-1150.4l-11.6,36.7"/>
		</g>
		<g>
			<path class="st0" d="M1427.3-1164.7l-1.4,4.8"/>
			<text transform="matrix(-0.9129 3.2529 -3.2529 -0.9129 1439.4131 -1225.6254)" class="st1 st2">ASV 116</text>
			<path class="st3" d="M1425.9-1159.8l-10.4,37"/>
		</g>
		<g>
			<path class="st0" d="M1395.2-1173.1l-1.2,4.9"/>
			<text transform="matrix(-0.805 3.2813 -3.2813 -0.805 1405.5853 -1235.5826)" class="st1 st2">ASV 108</text>
			<path class="st3" d="M1394-1168.2l-36.7,149.4"/>
		</g>
		<g>
			<path class="st0" d="M1362.8-1180.5l-1,4.9"/>
			<text transform="matrix(-0.6962 3.3061 -3.3061 -0.6962 1369.3274 -1234.557)" class="st1 st2">ASV 46</text>
			<path class="st3" d="M1361.8-1175.6l-7.9,37.6"/>
		</g>
		<g>
			<path class="st0" d="M1330.3-1186.8l-0.9,4.9"/>
			<text transform="matrix(-0.5867 3.3273 -3.3273 -0.5867 1334.9585 -1241.043)" class="st1 st2">ASV 76</text>
			<path class="st3" d="M1329.4-1181.9l-6.7,37.9"/>
		</g>
		<g>
			<path class="st0" d="M1297.5-1192l-0.7,4.9"/>
			<text transform="matrix(-0.4765 3.3448 -3.3448 -0.4765 1301.481 -1254.024)" class="st1 st2">ASV 114</text>
			<path class="st3" d="M1296.8-1187l-5.4,38.1"/>
		</g>
		<g>
			<path class="st0" d="M1264.6-1196.1l-0.5,5"/>
			<text transform="matrix(-0.3658 3.3587 -3.3587 -0.3658 1265.673 -1250.5946)" class="st1 st2">ASV 99</text>
			<path class="st3" d="M1264-1191.2l-4.2,38.2"/>
		</g>
		<g>
			<path class="st0" d="M1231.5-1199.2l-0.4,5"/>
			<text transform="matrix(-0.2548 3.369 -3.369 -0.2548 1230.8312 -1253.6476)" class="st1 st2">ASV 80</text>
			<path class="st3" d="M1231.1-1194.2l-5.8,76.7"/>
		</g>
		<g>
			<path class="st0" d="M1198.4-1201.1l-0.2,5"/>
			<text transform="matrix(-0.1434 3.3756 -3.3756 -0.1434 1196.2854 -1264.4413)" class="st1 st2">ASV 392</text>
			<path class="st3" d="M1198.2-1196.1l-1.6,38.4"/>
		</g>
		<g>
			<path class="st0" d="M1165.2-1202l0,5"/>
			<text transform="matrix(-3.187307e-02 3.3785 -3.3785 -3.187307e-02 1161.0228 -1265.1973)" class="st1 st2">ASV 250</text>
			<path class="st3" d="M1165.2-1197l-0.4,38.5"/>
		</g>
		<g>
			<path class="st0" d="M1132-1201.8l0.1,5"/>
			<text transform="matrix(7.967976e-02 3.3777 -3.3777 7.967976e-02 1125.7572 -1264.7893)" class="st1 st2">ASV 277</text>
			<path class="st3" d="M1132.2-1196.8l1.8,76.9"/>
		</g>
		<g>
			<path class="st0" d="M1098.9-1200.4l0.3,5"/>
			<text transform="matrix(0.1911 3.3732 -3.3732 0.1911 1090.5221 -1263.2178)" class="st1 st2">ASV 158</text>
			<path class="st3" d="M1099.2-1195.4l2.2,38.4"/>
		</g>
		<g>
			<path class="st0" d="M1065.8-1198l0.4,5"/>
			<text transform="matrix(0.3024 3.365 -3.365 0.3024 1055.3589 -1260.4824)" class="st1 st2">ASV 190</text>
			<path class="st3" d="M1066.2-1193l3.4,38.3"/>
		</g>
		<g>
			<path class="st0" d="M1032.8-1194.5l0.6,5"/>
			<text transform="matrix(0.4133 3.3532 -3.3532 0.4133 1020.305 -1256.5874)" class="st1 st2">ASV 242</text>
			<path class="st3" d="M1033.4-1189.5l4.7,38.2"/>
		</g>
		<g>
			<path class="st0" d="M999.9-1189.9l0.8,4.9"/>
			<text transform="matrix(0.5238 3.3378 -3.3378 0.5238 985.3977 -1251.5404)" class="st1 st2">ASV 343</text>
			<path class="st3" d="M1000.7-1185l6,38"/>
		</g>
		<g>
			<path class="st0" d="M967.2-1184.2l0.9,4.9"/>
			<text transform="matrix(0.6337 3.3186 -3.3186 0.6337 950.6799 -1245.3397)" class="st1 st2">ASV 303</text>
			<path class="st3" d="M968.2-1179.3l7.2,37.8"/>
		</g>
		<g>
			<path class="st0" d="M934.8-1177.4l1.1,4.9"/>
			<text transform="matrix(0.7429 3.2959 -3.2959 0.7429 916.1846 -1238.0035)" class="st1 st2">ASV 499</text>
			<path class="st3" d="M935.9-1172.6l8.5,37.5"/>
		</g>
		<g>
			<path class="st0" d="M902.5-1169.6l1.3,4.8"/>
			<text transform="matrix(0.8513 3.2696 -3.2696 0.8513 879.7087 -1238.1349)" class="st1 st2">ASV 7685</text>
			<path class="st3" d="M903.8-1164.8l96.9,372.2"/>
		</g>
		<g>
			<path class="st0" d="M870.5-1160.7l1.4,4.8"/>
			<text transform="matrix(0.9588 3.2397 -3.2397 0.9588 848.0101 -1219.9215)" class="st1 st2">ASV 700</text>
			<path class="st3" d="M872-1155.9l10.9,36.9"/>
		</g>
		<g>
			<path class="st0" d="M838.9-1150.8l1.6,4.7"/>
			<text transform="matrix(1.0652 3.2063 -3.2063 1.0652 814.4133 -1209.2043)" class="st1 st2">ASV 259</text>
			<path class="st3" d="M840.5-1146l12.1,36.5"/>
		</g>
		<g>
			<path class="st0" d="M807.6-1139.8l1.7,4.7"/>
			<text transform="matrix(1.1705 3.1694 -3.1694 1.1705 781.1823 -1197.3838)" class="st1 st2">ASV 187</text>
			<path class="st3" d="M809.3-1135.1l26.6,72.2"/>
		</g>
		<g>
			<path class="st0" d="M776.6-1127.8l1.9,4.6"/>
			<text transform="matrix(1.2745 3.129 -3.129 1.2745 748.8088 -1183.3717)" class="st1 st2">ASV 311</text>
			<path class="st3" d="M778.5-1123.2l14.5,35.6"/>
		</g>
		<g>
			<path class="st0" d="M746.1-1114.8l2,4.6"/>
			<text transform="matrix(1.3771 3.0852 -3.0852 1.3771 715.9839 -1170.4843)" class="st1 st2">ASV 219</text>
			<path class="st3" d="M748.1-1110.2l15.7,35.1"/>
		</g>
		<g>
			<path class="st0" d="M716-1100.7l2.2,4.5"/>
			<text transform="matrix(1.4782 3.0381 -3.0381 1.4782 684.09 -1155.4357)" class="st1 st2">ASV 213</text>
			<path class="st3" d="M718.2-1096.2l33.7,69.2"/>
		</g>
		<g>
			<path class="st0" d="M686.4-1085.7l2.3,4.4"/>
			<text transform="matrix(1.5777 2.9876 -2.9876 1.5777 652.704 -1139.3418)" class="st1 st2">ASV 450</text>
			<path class="st3" d="M688.8-1081.3l18,34"/>
		</g>
		<g>
			<path class="st0" d="M657.4-1069.8l2.5,4.3"/>
			<text transform="matrix(1.6755 2.9339 -2.9339 1.6755 621.8713 -1122.2214)" class="st1 st2">ASV 371</text>
			<path class="st3" d="M659.8-1065.4l19.1,33.4"/>
		</g>
		<g>
			<path class="st0" d="M628.8-1052.8l2.6,4.3"/>
			<text transform="matrix(-1.7714 -2.877 2.877 -1.7714 632.9042 -1055.3455)" class="st1 st2">ASV 243</text>
			<path class="st3" d="M631.4-1048.6l40.3,65.5"/>
		</g>
		<g>
			<path class="st0" d="M600.9-1035l2.8,4.2"/>
			<text transform="matrix(-1.8654 -2.8169 2.8169 -1.8654 604.8522 -1037.614)" class="st1 st2">ASV 601</text>
			<path class="st3" d="M603.6-1030.8l106.2,160.3"/>
		</g>
		<g>
			<path class="st0" d="M573.5-1016.2l2.9,4.1"/>
			<text transform="matrix(-1.9574 -2.7538 2.7538 -1.9574 577.4031 -1018.9718)" class="st1 st2">ASV 449</text>
			<path class="st3" d="M576.4-1012.1L710.1-824"/>
		</g>
		<g>
			<path class="st0" d="M546.8-996.5l3,4"/>
			<text transform="matrix(-2.0473 -2.6877 2.6877 -2.0473 550.5814 -999.4274)" class="st1 st2">ASV 552</text>
			<path class="st3" d="M549.8-992.5l163.1,214.2"/>
		</g>
		<g>
			<path class="st0" d="M520.7-976l3.2,3.9"/>
			<text transform="matrix(-2.1349 -2.6186 2.6186 -2.1349 524.4241 -979.0156)" class="st1 st2">ASV 97</text>
			<path class="st3" d="M523.9-972.1l24.3,29.8"/>
		</g>
		<g>
			<path class="st0" d="M495.3-954.6l3.3,3.8"/>
			<text transform="matrix(-2.2202 -2.5467 2.5467 -2.2202 498.9528 -957.7435)" class="st1 st2">ASV 64</text>
			<path class="st3" d="M498.6-950.8l25.3,29"/>
		</g>
		<g>
			<path class="st0" d="M470.7-932.4l3.4,3.7"/>
			<text transform="matrix(-2.303 -2.472 2.472 -2.303 474.1958 -935.6459)" class="st1 st2">ASV 96</text>
			<path class="st3" d="M474.1-928.7l26.2,28.1"/>
		</g>
		<g>
			<path class="st0" d="M446.8-909.4l3.5,3.5"/>
			<text transform="matrix(-2.3834 -2.3947 2.3947 -2.3834 450.1813 -912.7446)" class="st1 st2">ASV 69</text>
			<path class="st3" d="M450.3-905.8l27.1,27.3"/>
		</g>
		<g>
			<path class="st0" d="M423.7-885.6l3.6,3.4"/>
			<text transform="matrix(-2.4612 -2.3147 2.3147 -2.4612 426.9388 -889.0603)" class="st1 st2">ASV 52</text>
			<path class="st3" d="M427.3-882.1l84.1,79"/>
		</g>
		<g>
			<path class="st0" d="M401.3-861l3.8,3.3"/>
			<text transform="matrix(-2.5362 -2.2322 2.2322 -2.5362 404.4925 -864.6216)" class="st1 st2">ASV 83</text>
			<path class="st3" d="M405.1-857.7l115.5,101.6"/>
		</g>
		<g>
			<path class="st0" d="M379.8-835.8l3.9,3.2"/>
			<text transform="matrix(-2.6085 -2.1472 2.1472 -2.6085 382.8614 -839.4542)" class="st1 st2">ASV 244</text>
			<path class="st3" d="M383.7-832.6l29.7,24.4"/>
		</g>
		<g>
			<path class="st0" d="M359.1-809.8l4,3"/>
			<text transform="matrix(-2.678 -2.0599 2.0599 -2.678 362.0759 -813.5914)" class="st1 st2">ASV 407</text>
			<path class="st3" d="M363.1-806.7l30.5,23.4"/>
		</g>
		<g>
			<path class="st0" d="M339.4-783.2l4.1,2.9"/>
			<text transform="matrix(-2.7445 -1.9704 1.9704 -2.7445 342.152 -787.0526)" class="st1 st2">ASV 149</text>
			<path class="st3" d="M343.4-780.2l31.2,22.4"/>
		</g>
		<g>
			<path class="st0" d="M320.4-755.9l4.2,2.8"/>
			<text transform="matrix(-2.8081 -1.8787 1.8787 -2.8081 323.1184 -759.8727)" class="st1 st2">ASV 207</text>
			<path class="st3" d="M324.6-753.1l32,21.4"/>
		</g>
		<g>
			<path class="st0" d="M302.5-728l4.2,2.6"/>
			<text transform="matrix(-2.8686 -1.785 1.785 -2.8686 304.9892 -732.076)" class="st1 st2">ASV 161</text>
			<path class="st3" d="M306.7-725.4l32.7,20.3"/>
		</g>
		<g>
			<path class="st0" d="M285.4-699.5l4.3,2.5"/>
			<text transform="matrix(-2.926 -1.6893 1.6893 -2.926 287.7891 -703.7)" class="st1 st2">ASV 195</text>
			<path class="st3" d="M289.7-697l33.3,19.2"/>
		</g>
		<g>
			<path class="st0" d="M269.3-670.5l4.4,2.4"/>
			<text transform="matrix(-2.9801 -1.5918 1.5918 -2.9801 271.5372 -674.7692)" class="st1 st2">ASV 235</text>
			<path class="st3" d="M273.7-668.2l67.9,36.2"/>
		</g>
		<g>
			<path class="st0" d="M254.1-641l4.5,2.2"/>
			<text transform="matrix(-3.0311 -1.4925 1.4925 -3.0311 256.2468 -645.3159)" class="st1 st2">ASV 306</text>
			<path class="st3" d="M258.6-638.8l34.5,17"/>
		</g>
		<g>
			<path class="st0" d="M240-611l4.6,2.1"/>
			<text transform="matrix(-3.0787 -1.3917 1.3917 -3.0787 241.9411 -615.376)" class="st1 st2">ASV 204</text>
			<path class="st3" d="M244.5-608.9l35,15.8"/>
		</g>
		<g>
			<path class="st0" d="M226.8-580.5l4.6,1.9"/>
			<text transform="matrix(-3.123 -1.2893 1.2893 -3.123 228.6279 -584.9813)" class="st1 st2">ASV 210</text>
			<path class="st3" d="M231.4-578.6l71.1,29.4"/>
		</g>
		<g>
			<path class="st0" d="M214.6-549.7l4.7,1.8"/>
			<text transform="matrix(-3.1638 -1.1855 1.1855 -3.1638 216.3251 -554.1596)" class="st1 st2">ASV 177</text>
			<path class="st3" d="M219.3-547.9l108,40.5"/>
		</g>
		<g>
			<path class="st0" d="M203.5-518.4l4.7,1.6"/>
			<text transform="matrix(-3.2012 -1.0804 1.0804 -3.2012 205.0468 -522.952)" class="st1 st2">ASV 279</text>
			<path class="st3" d="M208.2-516.8l36.4,12.3"/>
		</g>
		<g>
			<path class="st0" d="M193.4-486.8l4.8,1.4"/>
			<text transform="matrix(-3.2351 -0.9741 0.9741 -3.2351 194.8048 -491.3893)" class="st1 st2">ASV 193</text>
			<path class="st3" d="M198.2-485.4l36.8,11.1"/>
		</g>
		<g>
			<path class="st0" d="M184.4-454.9l4.8,1.3"/>
			<text transform="matrix(-3.2655 -0.8667 0.8667 -3.2655 185.6109 -459.5033)" class="st1 st2">ASV 347</text>
			<path class="st3" d="M189.2-453.6l446.1,118.4"/>
		</g>
		<g>
			<path class="st0" d="M176.4-422.7l4.9,1.1"/>
			<text transform="matrix(-3.2924 -0.7585 0.7585 -3.2924 177.4757 -427.3321)" class="st1 st2">ASV 133</text>
			<path class="st3" d="M181.3-421.5l37.5,8.6"/>
		</g>
		<g>
			<path class="st0" d="M169.5-390.2l4.9,1"/>
			<text transform="matrix(-3.3156 -0.6494 0.6494 -3.3156 170.4054 -394.9103)" class="st1 st2">ASV 143</text>
			<path class="st3" d="M174.4-389.2l37.7,7.4"/>
		</g>
		<g>
			<path class="st0" d="M163.6-357.5l4.9,0.8"/>
			<text transform="matrix(-3.3352 -0.5395 0.5395 -3.3352 164.4098 -362.2731)" class="st1 st2">ASV 179</text>
			<path class="st3" d="M168.6-356.7l75.9,12.3"/>
		</g>
		<g>
			<path class="st0" d="M158.9-324.7l5,0.6"/>
			<text transform="matrix(-3.3512 -0.4291 0.4291 -3.3512 159.4957 -329.4566)" class="st1 st2">ASV 120</text>
			<path class="st3" d="M163.8-324.1l114.5,14.7"/>
		</g>
		<g>
			<path class="st0" d="M155.2-291.7l5,0.5"/>
			<text transform="matrix(-3.3636 -0.3183 0.3183 -3.3636 155.6677 -296.4934)" class="st1 st2">ASV 605</text>
			<path class="st3" d="M160.2-291.2l536.1,50.7"/>
		</g>
		<g>
			<path class="st0" d="M152.6-258.6l5,0.3"/>
			<text transform="matrix(-3.3723 -0.2071 0.2071 -3.3723 152.9303 -263.4222)" class="st1 st2">ASV 346</text>
			<path class="st3" d="M157.6-258.3L733.5-223"/>
		</g>
		<g>
			<path class="st0" d="M151.1-225.5l5,0.1"/>
			<text transform="matrix(-3.3773 -9.560901e-02 9.560901e-02 -3.3773 151.2848 -230.2776)" class="st1 st2">ASV 224</text>
			<path class="st3" d="M156.1-225.3l38.4,1.1"/>
		</g>
		<g>
			<path class="st0" d="M150.8-192.3l5,0"/>
			<text transform="matrix(-3.3786 1.593780e-02 -1.593780e-02 -3.3786 150.7348 -197.1007)" class="st1 st2">ASV 437</text>
			<path class="st3" d="M155.8-192.3l38.5-0.2"/>
		</g>
		<g>
			<path class="st0" d="M151.5-159.1l5-0.2"/>
			<text transform="matrix(-3.3762 0.1275 -0.1275 -3.3762 151.2823 -163.9217)" class="st1 st2">ASV 247</text>
			<path class="st3" d="M156.5-159.3l38.4-1.5"/>
		</g>
		<g>
			<path class="st0" d="M153.3-126l5-0.4"/>
			<text transform="matrix(-3.3702 0.2389 -0.2389 -3.3702 152.921 -130.7779)" class="st1 st2">ASV 473</text>
			<path class="st3" d="M158.2-126.3l38.4-2.7"/>
		</g>
		<g>
			<path class="st0" d="M156.2-92.9l5-0.5"/>
			<text transform="matrix(-3.3604 0.35 -0.35 -3.3604 155.6535 -97.708)" class="st1 st2">ASV 45</text>
			<path class="st3" d="M161.1-93.5l38.3-4"/>
		</g>
		<g>
			<path class="st0" d="M160.1-60l5-0.7"/>
			<text transform="matrix(-3.347 0.4607 -0.4607 -3.347 159.4808 -64.745)" class="st1 st2">ASV 61</text>
			<path class="st3" d="M165.1-60.7l38.1-5.2"/>
		</g>
		<g>
			<path class="st0" d="M165.2-27.2l4.9-0.8"/>
			<text transform="matrix(-3.33 0.571 -0.571 -3.33 164.3912 -31.927)" class="st1 st2">ASV 602</text>
			<path class="st3" d="M170.1-28l75.8-13"/>
		</g>
		<g>
			<path class="st0" d="M171.3,5.4l4.9-1"/>
			<text transform="matrix(-3.3093 0.6806 -0.6806 -3.3093 170.3826 0.7119)" class="st1 st2">ASV 163</text>
			<path class="st3" d="M176.2,4.4l113-23.2"/>
		</g>
		<g>
			<path class="st0" d="M178.6,37.8l4.9-1.2"/>
			<text transform="matrix(-3.2851 0.7895 -0.7895 -3.2851 177.4482 33.1351)" class="st1 st2">ASV 868</text>
			<path class="st3" d="M183.4,36.6l37.4-9"/>
		</g>
		<g>
			<path class="st0" d="M186.9,69.9l4.8-1.3"/>
			<text transform="matrix(-3.2572 0.8975 -0.8975 -3.2572 185.5834 65.3065)" class="st1 st2">ASV 990</text>
			<path class="st3" d="M191.7,68.6l37.1-10.2"/>
		</g>
		<g>
			<path class="st0" d="M196.2,101.8l4.8-1.5"/>
			<text transform="matrix(-3.2258 1.0046 -1.0046 -3.2258 194.7712 97.1926)" class="st1 st2">ASV 198</text>
			<path class="st3" d="M201,100.3l73.4-22.9"/>
		</g>
		<g>
			<path class="st0" d="M206.6,133.3l4.7-1.6"/>
			<text transform="matrix(-3.1909 1.1105 -1.1105 -3.1909 205.0063 128.7573)" class="st1 st2">ASV 157</text>
			<path class="st3" d="M211.3,131.6l36.3-12.6"/>
		</g>
		<g>
			<path class="st0" d="M218,164.4l4.7-1.8"/>
			<text transform="matrix(-3.1525 1.2152 -1.2152 -3.1525 216.2805 159.9671)" class="st1 st2">ASV 202</text>
			<path class="st3" d="M222.7,162.6l35.9-13.8"/>
		</g>
		<g>
			<path class="st0" d="M230.5,195.2l4.6-2"/>
			<text transform="matrix(-3.1106 1.3187 -1.3187 -3.1106 228.5808 190.7879)" class="st1 st2">ASV 191</text>
			<path class="st3" d="M235.1,193.3l212.5-90.1"/>
		</g>
		<g>
			<path class="st0" d="M243.9,225.5l4.5-2.1"/>
			<text transform="matrix(-3.0654 1.4206 -1.4206 -3.0654 241.8921 221.1842)" class="st1 st2">ASV 140</text>
			<path class="st3" d="M248.4,223.4l244.3-113.2"/>
		</g>
		<g>
			<path class="st0" d="M258.4,255.4l4.5-2.3"/>
			<text transform="matrix(-3.0168 1.5211 -1.5211 -3.0168 256.1945 251.1251)" class="st1 st2">ASV 118</text>
			<path class="st3" d="M262.8,253.2l34.3-17.3"/>
		</g>
		<g>
			<path class="st0" d="M273.8,284.8l4.4-2.4"/>
			<text transform="matrix(-2.965 1.6198 -1.6198 -2.965 271.4819 280.5801)" class="st1 st2">ASV 155</text>
			<path class="st3" d="M278.2,282.4l33.8-18.4"/>
		</g>
		<g>
			<path class="st0" d="M290.2,313.6l4.3-2.5"/>
			<text transform="matrix(-2.9099 1.7168 -1.7168 -2.9099 287.7322 309.5139)" class="st1 st2">ASV 375</text>
			<path class="st3" d="M294.5,311.1l66.3-39.1"/>
		</g>
		<g>
			<path class="st0" d="M307.5,341.9l4.2-2.7"/>
			<text transform="matrix(-2.8516 1.812 -1.812 -2.8516 304.9272 337.8937)" class="st1 st2">ASV 501</text>
			<path class="st3" d="M311.7,339.3l97.4-61.9"/>
		</g>
		<g>
			<path class="st0" d="M325.8,369.7l4.1-2.8"/>
			<text transform="matrix(-2.7903 1.9051 -1.9051 -2.7903 323.0519 365.6912)" class="st1 st2">ASV 238</text>
			<path class="st3" d="M329.9,366.8l31.8-21.7"/>
		</g>
		<g>
			<path class="st0" d="M344.9,396.7l4-3"/>
			<text transform="matrix(-2.7258 1.9962 -1.9962 -2.7258 342.0846 392.8734)" class="st1 st2">ASV 290</text>
			<path class="st3" d="M349,393.8l31-22.7"/>
		</g>
		<g>
			<path class="st0" d="M365,423.2l3.9-3.1"/>
			<text transform="matrix(-2.6584 2.0851 -2.0851 -2.6584 362.0025 419.4157)" class="st1 st2">ASV 820</text>
			<path class="st3" d="M368.9,420.1l60.5-47.5"/>
		</g>
		<g>
			<path class="st0" d="M385.9,449l3.8-3.2"/>
			<text transform="matrix(-2.5882 2.1717 -2.1717 -2.5882 382.786 445.2825)" class="st1 st2">ASV 117</text>
			<path class="st3" d="M389.7,445.7l29.5-24.7"/>
		</g>
		<g>
			<path class="st0" d="M407.6,474l3.7-3.3"/>
			<text transform="matrix(-2.5151 2.256 -2.256 -2.5151 404.4141 470.4523)" class="st1 st2">ASV 132</text>
			<path class="st3" d="M411.3,470.7L440,445"/>
		</g>
		<g>
			<path class="st0" d="M430.2,498.4l3.6-3.5"/>
			<text transform="matrix(-2.4392 2.3378 -2.3378 -2.4392 426.8583 494.8912)" class="st1 st2">ASV 396</text>
			<path class="st3" d="M433.8,494.9l55.5-53.2"/>
		</g>
		<g>
			<path class="st0" d="M453.5,521.9l3.5-3.6"/>
			<text transform="matrix(-2.3607 2.417 -2.417 -2.3607 450.1015 518.5792)" class="st1 st2">ASV 372</text>
			<path class="st3" d="M457,518.4l26.9-27.5"/>
		</g>
		<g>
			<path class="st0" d="M477.7,544.7l3.4-3.7"/>
			<text transform="matrix(-2.2796 2.4937 -2.4937 -2.2796 474.1093 541.4833)" class="st1 st2">ASV 534</text>
			<path class="st3" d="M481,541l26-28.4"/>
		</g>
		<g>
			<path class="st0" d="M502.5,566.7l3.2-3.8"/>
			<text transform="matrix(-2.196 2.5676 -2.5676 -2.196 498.8615 563.5842)" class="st1 st2">ASV 144</text>
			<path class="st3" d="M505.8,562.9l25-29.2"/>
		</g>
		<g>
			<path class="st0" d="M528.1,587.9l3.1-3.9"/>
			<text transform="matrix(-2.1101 2.6387 -2.6387 -2.1101 524.3333 584.8573)" class="st1 st2">ASV 181</text>
			<path class="st3" d="M531.2,583.9l24-30"/>
		</g>
		<g>
			<path class="st0" d="M554.3,608.1l3-4"/>
			<text transform="matrix(-2.0218 2.7069 -2.7069 -2.0218 550.4896 605.2756)" class="st1 st2">ASV 461</text>
			<path class="st3" d="M557.3,604.1l115.1-154.1"/>
		</g>
		<g>
			<path class="st0" d="M581.2,627.6l2.9-4.1"/>
			<text transform="matrix(-1.9314 2.7722 -2.7722 -1.9314 577.3068 624.8181)" class="st1 st2">ASV 265</text>
			<path class="st3" d="M584.1,623.5L716,434.1"/>
		</g>
		<g>
			<path class="st0" d="M608.8,646.1l2.7-4.2"/>
			<text transform="matrix(-1.8388 2.8344 -2.8344 -1.8388 604.7576 643.4691)" class="st1 st2">ASV 285</text>
			<path class="st3" d="M611.5,641.9L758,416"/>
		</g>
		<g>
			<path class="st0" d="M636.9,663.7l2.6-4.3"/>
			<text transform="matrix(-1.7442 2.8936 -2.8936 -1.7442 632.8051 661.1995)" class="st1 st2">ASV 241</text>
			<path class="st3" d="M639.5,659.4l19.9-32.9"/>
		</g>
		<g>
			<path class="st0" d="M665.6,680.3l2.4-4.4"/>
			<text transform="matrix(-1.6477 2.9496 -2.9496 -1.6477 661.4235 677.9983)" class="st1 st2">ASV 292</text>
			<path class="st3" d="M668.1,676l18.8-33.6"/>
		</g>
		<g>
			<path class="st0" d="M694.8,696l2.3-4.4"/>
			<text transform="matrix(-1.5495 3.0024 -3.0024 -1.5495 690.5844 693.8393)" class="st1 st2">ASV 119</text>
			<path class="st3" d="M697.1,691.6l35.3-68.4"/>
		</g>
		<g>
			<path class="st0" d="M724.6,710.8l2.1-4.5"/>
			<text transform="matrix(-1.4495 3.0519 -3.0519 -1.4495 720.2461 708.7113)" class="st1 st2">ASV 30</text>
			<path class="st3" d="M726.7,706.3l16.5-34.7"/>
		</g>
		<g>
			<path class="st0" d="M754.8,724.5l2-4.6"/>
			<text transform="matrix(-1.3479 3.0981 -3.0981 -1.3479 750.3865 722.5953)" class="st1 st2">ASV 93</text>
			<path class="st3" d="M756.8,719.9l15.3-35.3"/>
		</g>
		<g>
			<path class="st0" d="M785.4,737.2l1.8-4.6"/>
			<text transform="matrix(-1.2449 3.1409 -3.1409 -1.2449 780.9686 735.4754)" class="st1 st2">ASV 75</text>
			<path class="st3" d="M787.3,732.6l28.3-71.5"/>
		</g>
		<g>
			<path class="st0" d="M816.5,749l1.7-4.7"/>
			<text transform="matrix(-1.1406 3.1803 -3.1803 -1.1406 811.9579 747.3406)" class="st1 st2">ASV 1089</text>
			<path class="st3" d="M818.2,744.3L961,346"/>
		</g>
		<g>
			<path class="st0" d="M847.9,759.6l1.5-4.8"/>
			<text transform="matrix(-1.0349 3.2162 -3.2162 -1.0349 843.3221 758.1746)" class="st1 st2">ASV 598</text>
			<path class="st3" d="M849.4,754.9l11.8-36.6"/>
		</g>
		<g>
			<path class="st0" d="M879.6,769.3l1.4-4.8"/>
			<text transform="matrix(-0.9282 3.2486 -3.2486 -0.9282 875.0294 767.9695)" class="st1 st2">ASV 838</text>
			<path class="st3" d="M881,764.5l10.6-37"/>
		</g>
		<g>
			<path class="st0" d="M911.7,777.9l1.2-4.9"/>
			<text transform="matrix(-0.8205 3.2775 -3.2775 -0.8205 907.0408 776.7099)" class="st1 st2">ASV 509</text>
			<path class="st3" d="M912.9,773l9.3-37.3"/>
		</g>
		<g>
			<path class="st0" d="M944,785.4l1.1-4.9"/>
			<text transform="matrix(-0.7118 3.3028 -3.3028 -0.7118 939.3243 784.3911)" class="st1 st2">ASV 272</text>
			<path class="st3" d="M945.1,780.5l8.1-37.6"/>
		</g>
		<g>
			<path class="st0" d="M976.6,791.9l0.9-4.9"/>
			<text transform="matrix(-0.6024 3.3245 -3.3245 -0.6024 971.8423 791.0002)" class="st1 st2">ASV 217</text>
			<path class="st3" d="M977.5,786.9l13.7-75.7"/>
		</g>
		<g>
			<path class="st0" d="M1009.3,797.2l0.7-4.9"/>
			<text transform="matrix(-0.4923 3.3426 -3.3426 -0.4923 1004.5583 796.5311)" class="st1 st2">ASV 327</text>
			<path class="st3" d="M1010,792.3l16.8-114.2"/>
		</g>
		<g>
			<path class="st0" d="M1042.2,801.5l0.6-5"/>
			<text transform="matrix(-0.3817 3.357 -3.357 -0.3817 1037.4443 800.982)" class="st1 st2">ASV 692</text>
			<path class="st3" d="M1042.8,796.6l4.3-38.2"/>
		</g>
		<g>
			<path class="st0" d="M1075.2,804.7l0.4-5"/>
			<text transform="matrix(-0.2706 3.3678 -3.3678 -0.2706 1070.4604 804.3438)" class="st1 st2">ASV 823</text>
			<path class="st3" d="M1075.6,799.7l3.1-38.3"/>
		</g>
		<g>
			<path class="st0" d="M1108.4,806.8l0.2-5"/>
			<text transform="matrix(-0.1593 3.3749 -3.3749 -0.1593 1103.563 806.6136)" class="st1 st2">ASV 139</text>
			<path class="st3" d="M1108.6,801.8l1.8-38.4"/>
		</g>
		<g>
			<path class="st0" d="M1141.5,807.9l0.1-5"/>
			<text transform="matrix(-4.780886e-02 3.3783 -3.3783 -4.780886e-02 1136.7251 807.7892)" class="st1 st2">ASV 101</text>
			<path class="st3" d="M1141.6,802.9l0.5-38.5"/>
		</g>
		<g>
			<path class="st0" d="M1174.7,807.8l-0.1-5"/>
			<text transform="matrix(6.374614e-02 3.378 -3.378 6.374614e-02 1169.9098 807.8699)" class="st1 st2">ASV 94</text>
			<path class="st3" d="M1174.6,802.8l-1.5-76.9"/>
		</g>
		<g>
			<path class="st0" d="M1207.9,806.6l-0.3-5"/>
			<text transform="matrix(0.1752 3.3741 -3.3741 0.1752 1203.0789 806.8547)" class="st1 st2">ASV 258</text>
			<path class="st3" d="M1207.6,801.6l-6-115.2"/>
		</g>
		<g>
			<path class="st0" d="M1241,804.3l-0.4-5"/>
			<text transform="matrix(0.2865 3.3664 -3.3664 0.2865 1236.1945 804.7468)" class="st1 st2">ASV 427</text>
			<path class="st3" d="M1240.6,799.4l-13-153.3"/>
		</g>
		<g>
			<path class="st0" d="M1274,801l-0.6-5"/>
			<text transform="matrix(0.3975 3.3551 -3.3551 0.3975 1269.2229 801.5418)" class="st1 st2">ASV 109</text>
			<path class="st3" d="M1273.4,796l-22.6-191"/>
		</g>
		<g>
			<path class="st0" d="M1306.9,796.5l-0.8-4.9"/>
			<text transform="matrix(0.5081 3.3402 -3.3402 0.5081 1302.1293 797.2538)" class="st1 st2">ASV 100</text>
			<path class="st3" d="M1306.1,791.6l-5.8-38"/>
		</g>
		<g>
			<path class="st0" d="M1339.6,791l-0.9-4.9"/>
			<text transform="matrix(0.6181 3.3216 -3.3216 0.6181 1334.874 791.8787)" class="st1 st2">ASV 70</text>
			<path class="st3" d="M1338.7,786.1l-7-37.8"/>
		</g>
		<g>
			<path class="st0" d="M1372.1,784.4l-1.1-4.9"/>
			<text transform="matrix(0.7274 3.2994 -3.2994 0.7274 1367.4233 785.4249)" class="st1 st2">ASV 66</text>
			<path class="st3" d="M1371,779.5l-16.6-75.1"/>
		</g>
		<g>
			<path class="st0" d="M1404.4,776.7l-1.2-4.8"/>
			<text transform="matrix(0.8359 3.2736 -3.2736 0.8359 1399.744 777.9021)" class="st1 st2">ASV 85</text>
			<path class="st3" d="M1403.2,771.9l-9.5-37.3"/>
		</g>
		<g>
			<path class="st0" d="M1436.4,768l-1.4-4.8"/>
			<text transform="matrix(0.9435 3.2442 -3.2442 0.9435 1431.7971 769.3152)" class="st1 st2">ASV 56</text>
			<path class="st3" d="M1435,763.2l-10.7-36.9"/>
		</g>
		<g>
			<path class="st0" d="M1468.1,758.2l-1.6-4.8"/>
			<text transform="matrix(1.0501 3.2113 -3.2113 1.0501 1463.5494 759.6733)" class="st1 st2">ASV 739</text>
			<path class="st3" d="M1466.6,753.4l-47.8-146.2"/>
		</g>
		<g>
			<path class="st0" d="M1499.5,747.3l-1.7-4.7"/>
			<text transform="matrix(1.1556 3.1749 -3.1749 1.1556 1494.9673 748.9895)" class="st1 st2">ASV 421</text>
			<path class="st3" d="M1497.8,742.7l-210.5-578.3"/>
		</g>
		<g>
			<path class="st0" d="M1530.5,735.5l-1.9-4.6"/>
			<text transform="matrix(1.2597 3.135 -3.135 1.2597 1526.0142 737.275)" class="st1 st2">ASV 167</text>
			<path class="st3" d="M1528.6,730.8l-243.8-606.7"/>
		</g>
		<g>
			<path class="st0" d="M1561,722.6l-2-4.6"/>
			<text transform="matrix(1.3625 3.0917 -3.0917 1.3625 1556.6571 724.5421)" class="st1 st2">ASV 126</text>
			<path class="st3" d="M1559,718l-15.5-35.2"/>
		</g>
		<g>
			<path class="st0" d="M1591.2,708.7l-2.2-4.5"/>
			<text transform="matrix(1.4639 3.045 -3.045 1.4639 1586.8618 710.8054)" class="st1 st2">ASV 113</text>
			<path class="st3" d="M1589,704.2l-16.7-34.7"/>
		</g>
		<g>
			<path class="st0" d="M1620.9,693.9l-2.3-4.4"/>
			<text transform="matrix(1.5636 2.995 -2.995 1.5636 1616.6002 696.0759)" class="st1 st2">ASV 77</text>
			<path class="st3" d="M1618.5,689.4l-35.6-68.2"/>
		</g>
		<g>
			<path class="st0" d="M1650,678l-2.5-4.4"/>
			<text transform="matrix(1.6616 2.9418 -2.9418 1.6616 1645.8357 680.3793)" class="st1 st2">ASV 84</text>
			<path class="st3" d="M1647.6,673.7l-18.9-33.5"/>
		</g>
		<g>
			<path class="st0" d="M1678.6,661.2l-2.6-4.3"/>
			<text transform="matrix(-1.7578 -2.8853 2.8853 -1.7578 1710.9631 705.0583)" class="st1 st2">ASV 89</text>
			<path class="st3" d="M1676,657l-20-32.8"/>
		</g>
		<g>
			<path class="st0" d="M1706.7,643.5l-2.7-4.2"/>
			<text transform="matrix(-1.8521 -2.8257 2.8257 -1.8521 1745.3169 693.681)" class="st1 st2">ASV 131</text>
			<path class="st3" d="M1703.9,639.3l-21.1-32.2"/>
		</g>
		<g>
			<path class="st0" d="M1734.1,624.8l-2.9-4.1"/>
			<text transform="matrix(-1.9444 -2.763 2.763 -1.9444 1774.4042 673.7308)" class="st1 st2">ASV 151</text>
			<path class="st3" d="M1731.3,620.8l-22.1-31.5"/>
		</g>
		<g>
			<path class="st0" d="M1760.9,605.3l-3-4"/>
			<text transform="matrix(-2.0346 -2.6973 2.6973 -2.0346 1802.8145 652.8309)" class="st1 st2">ASV 182</text>
			<path class="st3" d="M1757.9,601.3l-23.2-30.7"/>
		</g>
		<g>
			<path class="st0" d="M1787.1,584.9l-3.1-3.9"/>
			<text transform="matrix(-2.1225 -2.6287 2.6287 -2.1225 1830.5199 631.0074)" class="st1 st2">ASV 106</text>
			<path class="st3" d="M1784,581l-24.2-29.9"/>
		</g>
		<g>
			<path class="st0" d="M1812.6,563.6l-3.3-3.8"/>
			<text transform="matrix(-2.2081 -2.5572 2.5572 -2.2081 1857.4847 608.2798)" class="st1 st2">ASV 135</text>
			<path class="st3" d="M1809.3,559.8l-25.1-29.1"/>
		</g>
		<g>
			<path class="st0" d="M1837.3,541.5l-3.4-3.7"/>
			<text transform="matrix(-2.2914 -2.4829 2.4829 -2.2914 1883.6907 584.6728)" class="st1 st2">ASV 142</text>
			<path class="st3" d="M1833.9,537.8l-26.1-28.3"/>
		</g>
		<g>
			<path class="st0" d="M1861.3,518.6l-3.5-3.6"/>
			<text transform="matrix(-2.3721 -2.4059 2.4059 -2.3721 1909.1025 560.215)" class="st1 st2">ASV 301</text>
			<path class="st3" d="M1857.8,515.1l-27-27.4"/>
		</g>
		<g>
			<path class="st0" d="M1884.6,494.9l-3.6-3.4"/>
			<text transform="matrix(-2.4502 -2.3263 2.3263 -2.4502 1933.6919 534.9307)" class="st1 st2">ASV 357</text>
			<path class="st3" d="M1881,491.5l-27.9-26.5"/>
		</g>
		<g>
			<path class="st0" d="M1907,470.5l-3.7-3.3"/>
			<text transform="matrix(-2.5257 -2.2441 2.2441 -2.5257 1957.4308 508.8469)" class="st1 st2">ASV 232</text>
			<path class="st3" d="M1903.3,467.2l-575-510.9"/>
		</g>
		<g>
			<path class="st0" d="M1928.7,445.3l-3.8-3.2"/>
			<text transform="matrix(-2.5984 -2.1595 2.1595 -2.5984 1980.2998 481.9989)" class="st1 st2">ASV 227</text>
			<path class="st3" d="M1924.8,442.1l-29.6-24.6"/>
		</g>
		<g>
			<path class="st0" d="M1949.4,419.5l-3.9-3.1"/>
			<text transform="matrix(-2.6683 -2.0725 2.0725 -2.6683 2002.2666 454.4073)" class="st1 st2">ASV 175</text>
			<path class="st3" d="M1945.5,416.4l-30.4-23.6"/>
		</g>
		<g>
			<path class="st0" d="M1969.4,392.9l-4-2.9"/>
			<text transform="matrix(-2.7352 -1.9833 1.9833 -2.7352 2023.3125 426.1037)" class="st1 st2">ASV 222</text>
			<path class="st3" d="M1965.3,390l-62.3-45.2"/>
		</g>
		<g>
			<path class="st0" d="M1988.4,365.7l-4.1-2.8"/>
			<text transform="matrix(-2.7992 -1.8919 1.8919 -2.7992 2043.4152 397.1211)" class="st1 st2">ASV 121</text>
			<path class="st3" d="M1984.3,362.9l-95.6-64.6"/>
		</g>
		<g>
			<path class="st0" d="M2006.5,337.9l-4.2-2.7"/>
			<text transform="matrix(-2.8601 -1.7985 1.7985 -2.8601 2055.0122 362.7557)" class="st1 st2">ASV 95</text>
			<path class="st3" d="M2002.3,335.3l-130.2-81.9"/>
		</g>
		<g>
			<path class="st0" d="M2023.7,309.6l-4.3-2.5"/>
			<text transform="matrix(-2.918 -1.7031 1.7031 -2.918 2080.6875 337.2473)" class="st1 st2">ASV 236</text>
			<path class="st3" d="M2019.4,307l-33.2-19.4"/>
		</g>
		<g>
			<path class="st0" d="M2040,280.6l-4.4-2.4"/>
			<text transform="matrix(-2.9726 -1.6058 1.6058 -2.9726 2097.8215 306.4206)" class="st1 st2">ASV 284</text>
			<path class="st3" d="M2035.6,278.3l-33.8-18.3"/>
		</g>
		<g>
			<path class="st0" d="M2055.3,251.2l-4.5-2.2"/>
			<text transform="matrix(-3.024 -1.5068 1.5068 -3.024 2113.9294 275.0456)" class="st1 st2">ASV 162</text>
			<path class="st3" d="M2050.8,248.9l-34.4-17.2"/>
		</g>
		<g>
			<path class="st0" d="M2069.6,221.2l-4.5-2.1"/>
			<text transform="matrix(-3.0721 -1.4062 1.4062 -3.0721 2128.9941 243.156)" class="st1 st2">ASV 220</text>
			<path class="st3" d="M2065,219.2l-35-16"/>
		</g>
		<g>
			<path class="st0" d="M2082.9,190.8l-4.6-1.9"/>
			<text transform="matrix(-3.1168 -1.304 1.304 -3.1168 2142.9958 210.7849)" class="st1 st2">ASV 565</text>
			<path class="st3" d="M2078.3,188.9l-35.5-14.8"/>
		</g>
		<g>
			<path class="st0" d="M2095.2,160l-4.7-1.8"/>
			<text transform="matrix(-3.1582 -1.2004 1.2004 -3.1582 2155.9229 177.969)" class="st1 st2">ASV 921</text>
			<path class="st3" d="M2090.5,158.2l-36-13.7"/>
		</g>
		<g>
			<path class="st0" d="M2106.5,128.8l-4.7-1.6"/>
			<text transform="matrix(-3.1961 -1.0954 1.0954 -3.1961 2167.7581 144.7447)" class="st1 st2">ASV 723</text>
			<path class="st3" d="M2101.7,127.2l-72.8-24.9"/>
		</g>
		<g>
			<path class="st0" d="M2116.7,97.2l-4.8-1.5"/>
			<text transform="matrix(-3.2305 -0.9893 0.9893 -3.2305 2178.4863 111.1475)" class="st1 st2">ASV 686</text>
			<path class="st3" d="M2111.9,95.8L2001.6,62"/>
		</g>
		<g>
			<path class="st0" d="M2125.9,65.4l-4.8-1.3"/>
			<text transform="matrix(-3.2614 -0.8821 0.8821 -3.2614 2188.1062 77.2162)" class="st1 st2">ASV 253</text>
			<path class="st3" d="M2121.1,64.1l-37.1-10"/>
		</g>
		<g>
			<path class="st0" d="M2134,33.2l-4.9-1.1"/>
			<text transform="matrix(-3.2888 -0.774 0.774 -3.2888 2196.5996 42.986)" class="st1 st2">ASV 403</text>
			<path class="st3" d="M2129.2,32l-37.4-8.8"/>
		</g>
		<g>
			<path class="st0" d="M2141.1,0.8l-4.9-1"/>
			<text transform="matrix(-3.3125 -0.665 0.665 -3.3125 2203.9534 8.4917)" class="st1 st2">ASV 542</text>
			<path class="st3" d="M2136.2-0.2l-75.4-15.1"/>
		</g>
		<g>
			<path class="st0" d="M2147.1-31.9l-4.9-0.8"/>
			<text transform="matrix(-3.3327 -0.5553 0.5553 -3.3327 2210.1658 -26.2275)" class="st1 st2">ASV 275</text>
			<path class="st3" d="M2142.1-32.7l-37.9-6.3"/>
		</g>
		<g>
			<path class="st0" d="M2152-64.7l-5-0.7"/>
			<text transform="matrix(-3.3492 -0.4449 0.4449 -3.3492 2215.2341 -61.1286)" class="st1 st2">ASV 446</text>
			<path class="st3" d="M2147-65.3l-38.1-5.1"/>
		</g>
		<g>
			<path class="st0" d="M2155.8-97.7l-5-0.5"/>
			<text transform="matrix(-3.362 -0.3341 0.3341 -3.362 2219.1428 -96.1799)" class="st1 st2">ASV 234</text>
			<path class="st3" d="M2150.8-98.1l-842-83.7"/>
		</g>
		<g>
			<path class="st0" d="M2158.6-130.7l-5-0.3"/>
			<text transform="matrix(-3.3712 -0.223 0.223 -3.3712 2221.8926 -131.3423)" class="st1 st2">ASV 337</text>
			<path class="st3" d="M2153.6-131.1l-882.7-58.4"/>
		</g>
		<g>
			<path class="st0" d="M2160.2-163.9l-5-0.2"/>
			<text transform="matrix(-3.3768 -0.1115 0.1115 -3.3768 2223.481 -166.5752)" class="st1 st2">ASV 282</text>
			<path class="st3" d="M2155.2-164l-922.6-30.5"/>
		</g>
		<g>
			<path class="st0" d="M2160.7-197h-5"/>
			<text transform="matrix(-3.3786 0 0 -3.3786 2223.9058 -201.8426)" class="st1 st2">ASV 458</text>
			<path class="st3" d="M2155.7-197l-923.1,0"/>
		</g>
		<g>
			<path class="st3" d="M2048.8,159.4l-35.7-14.3 M2042.8,174.1c4.1-9.8,8-19.6,11.8-29.5"/>
		</g>
		<g>
			<path class="st3" d="M2021.3,123.8l-36.1-13.4 M2013.1,145.1c5.6-14.2,10.9-28.4,15.9-42.9"/>
		</g>
		<g>
			<path class="st3" d="M1993.8,86.3l-109.3-37 M1985.2,110.4c5.9-16,11.4-32.1,16.4-48.4"/>
		</g>
		<g>
			<path class="st3" d="M1905.3,405.2l-30-24.1 M1895.2,417.5c6.8-8.1,13.4-16.4,19.9-24.7"/>
		</g>
		<g>
			<path class="st3" d="M1889.4,363.2l-30.6-23.3 M1875.3,381.2c9.5-11.9,18.8-24,27.7-36.3"/>
		</g>
		<g>
			<path class="st3" d="M1874,319.3l-31.2-22.4 M1858.8,339.8c10.3-13.5,20.3-27.4,29.8-41.5"/>
		</g>
		<g>
			<path class="st3" d="M1857.8,275.3l-31.9-21.5 M1842.8,296.8c10.2-14.2,19.9-28.7,29.2-43.5"/>
		</g>
		<g>
			<path class="st3" d="M2023.3,217.5l-34.7-16.6 M2016.4,231.8c4.7-9.5,9.3-19,13.7-28.6"/>
		</g>
		<g>
			<path class="st3" d="M1994.1,273.9l-33.5-18.8 M1986.2,287.6c5.3-9.1,10.5-18.4,15.5-27.7"/>
		</g>
		<g>
			<path class="st3" d="M1975,228.2l-102.4-53.2 M1960.5,255c10-17.7,19.3-35.8,28.1-54.1"/>
		</g>
		<g>
			<path class="st3" d="M1850.4,215.1l-33.1-19.6 M1825.9,253.9c17.1-25.4,32.7-51.7,46.8-78.8"/>
		</g>
		<g>
			<path class="st3" d="M1854.7,124.2l-34.9-16.1 M1817.3,195.5c27.4-46.2,49.9-95.2,67.2-146.1"/>
		</g>
		<g>
			<path class="st3" d="M2106.7-54.7l-76.1-11.4 M2104.2-39c1.7-10.4,3.3-20.9,4.7-31.4"/>
		</g>
		<g>
			<path class="st3" d="M2088,38.7l-37.3-9.4 M2083.9,54c2.8-10.2,5.4-20.5,7.8-30.8"/>
		</g>
		<g>
			<path class="st3" d="M2056,7l-37.5-8.5 M2050.7,29.2c3.7-14.8,7.1-29.6,10.1-44.6"/>
		</g>
		<g>
			<path class="st3" d="M2025.1-33.7l-151.2-28.4 M2018.5-1.5c4.8-21.4,8.9-42.9,12.1-64.6"/>
		</g>
		<g>
			<path class="st3" d="M1852.1,24.7L1339-138.7 M1819.7,108.1c25-54.3,43.2-111.5,54.2-170.2"/>
		</g>
		<g>
			<path class="st3" d="M1062.9,760l48.3-497.7 M1047.1,758.3c10.5,1.2,21.1,2.2,31.6,3.1"/>
		</g>
		<g>
			<path class="st3" d="M937.7,739.4l8.7-37.5 M922.2,735.7c10.3,2.6,20.6,5,30.9,7.2"/>
		</g>
		<g>
			<path class="st3" d="M968.7,706.9l7.8-37.7 M946.4,702c14.8,3.5,29.8,6.5,44.8,9.3"/>
		</g>
		<g>
			<path class="st3" d="M1001.6,674l67-378.7 M976.5,669.2c16.7,3.5,33.5,6.4,50.3,8.9"/>
		</g>
		<g>
			<path class="st3" d="M876.4,723l122.9-404.8 M861.2,718.3c10.1,3.2,20.2,6.3,30.4,9.2"/>
		</g>
		<g>
			<path class="st3" d="M757.6,678.2l15.9-35 M743.2,671.5c9.6,4.5,19.2,8.9,28.9,13.1"/>
		</g>
		<g>
			<path class="st3" d="M794.5,652.4l15.1-35.4 M773.5,643.2c13.9,6.3,27.9,12.3,42.1,17.9"/>
		</g>
		<g>
			<path class="st3" d="M673,634.5l19.3-33.3 M659.4,626.5c9.1,5.5,18.2,10.8,27.5,15.9"/>
		</g>
		<g>
			<path class="st3" d="M712.2,612.5l18.5-33.7 M692.3,601.3c13.2,7.7,26.5,15,40.1,22"/>
		</g>
		<g>
			<path class="st3" d="M769.6,598.9l117.5-242.2 M730.7,578.8c25.6,14,51.9,26.8,78.8,38.2"/>
		</g>
		<g>
			<path class="st3" d="M370.7,358.2l31.4-22.2 M361.7,345.1c6,8.7,12.1,17.4,18.3,25.9"/>
		</g>
		<g>
			<path class="st3" d="M415.5,354.5l61.7-46 M402.1,336c8.8,12.4,17.9,24.7,27.3,36.7"/>
		</g>
		<g>
			<path class="st3" d="M304.4,250l34.1-17.9 M297.2,235.8c4.8,9.5,9.7,18.8,14.8,28.1"/>
		</g>
		<g>
			<path class="st3" d="M349.4,252.2l33.6-18.7 M338.5,232.1c7.1,13.5,14.5,26.8,22.2,39.9"/>
		</g>
		<g>
			<path class="st3" d="M395.7,255.6l33-19.7 M383,233.5c8.3,14.9,17,29.5,26.2,43.9"/>
		</g>
		<g>
			<path class="st3" d="M452.1,272.8L580,187.4 M428.8,235.9c14.9,25,31.1,49.2,48.5,72.6"/>
		</g>
		<g>
			<path class="st3" d="M253,134l144.4-53 M247.6,119c3.5,10,7.1,19.9,10.9,29.8"/>
		</g>
		<g>
			<path class="st3" d="M224.7,43l37.2-9.6 M220.8,27.6c2.5,10.3,5.1,20.5,7.9,30.7"/>
		</g>
		<g>
			<path class="st3" d="M267.9,55.5l74-21 M261.9,33.4c3.8,14.8,8,29.4,12.5,44"/>
		</g>
		<g>
			<path class="st3" d="M201.2-81.7l38.2-4.6 M199.4-97.4c1.1,10.5,2.4,21,3.8,31.5"/>
		</g>
		<g>
			<path class="st3" d="M242.4-63.6l38.1-5.6 M239.3-86.3c1.8,15.1,4,30.2,6.6,45.2"/>
		</g>
		<g>
			<path class="st3" d="M284.5-43.9l37.9-6.7 M280.4-69.2c2.5,16.9,5.4,33.6,8.8,50.3"/>
		</g>
		<g>
			<path class="st3" d="M331-7.8l37.5-8.6 M322.4-50.6c5,28.7,11.6,57.1,19.5,85.1"/>
		</g>
		<g>
			<path class="st3" d="M381.4,32.7l36.9-10.9 M368.5-16.4c7.6,33,17.2,65.6,28.9,97.4"/>
		</g>
		<g>
			<path class="st3" d="M431.8,62.9l36.2-13 M418.3,21.8c8.2,27.7,18,54.8,29.2,81.4"/>
		</g>
		<g>
			<path class="st3" d="M479.7,80.3l35.6-14.6 M468,49.9c7.3,20.5,15.6,40.6,24.8,60.3"/>
		</g>
		<g>
			<path class="st3" d="M544.6,128.2l34-18.1 M515.3,65.7c17.5,42.6,39.2,83.4,64.7,121.7"/>
		</g>
		<g>
			<path class="st3" d="M542.9,543.9l73.5-88.9 M530.8,533.7c8,6.9,16.2,13.6,24.5,20.2"/>
		</g>
		<g>
			<path class="st3" d="M495.3,501.8l52.8-55.9 M483.9,490.8c7.6,7.4,15.3,14.7,23.1,21.8"/>
		</g>
		<g>
			<path class="st3" d="M429.5,433.1l29.1-25.2 M419.2,421c6.8,8.1,13.7,16.1,20.8,24"/>
		</g>
		<g>
			<path class="st3" d="M473.7,425l28.4-25.9 M458.5,407.9c10,11.5,20.3,22.8,30.8,33.8"/>
		</g>
		<g>
			<path class="st3" d="M524.7,422.9l27.4-27 M502.1,399.1c14.8,16.2,30.1,31.8,46,46.9"/>
		</g>
		<g>
			<path class="st3" d="M583.5,426.3l26-28.3 M552.2,396c20.4,20.8,41.9,40.5,64.3,59"/>
		</g>
		<g>
			<path class="st3" d="M640.3,424.8l24.5-29.6 M609.6,398c20.1,18.4,41,35.8,62.9,52.1"/>
		</g>
		<g>
			<path class="st3" d="M690,415.2l23.3-30.6 M664.9,395.2c16.5,13.7,33.6,26.7,51.2,38.9"/>
		</g>
		<g>
			<path class="st3" d="M735.4,400.7l44.2-62.9 M713.3,384.6c14.5,11,29.4,21.5,44.7,31.4"/>
		</g>
		<g>
			<path class="st3" d="M665.7,235.8l28.8-25.5 M578.5,110.1c48.2,90.6,117.1,168.6,201.1,227.7"/>
		</g>
		<g>
			<path class="st3" d="M783.6,293l23.3-30.6 M694.5,210.3c53.9,61,119.4,110.8,192.6,146.3"/>
		</g>
		<g>
			<path class="st3" d="M880.7,310.1l18.3-33.8 M806.8,262.4C853.7,298,905.6,326.2,961,346"/>
		</g>
		<g>
			<path class="st3" d="M948.1,299.8l14.8-35.5 M899.1,276.3c31.9,17.3,65.5,31.3,100.2,41.9"/>
		</g>
		<g>
			<path class="st3" d="M1014.9,282.7l10.8-36.9 M962.9,264.3c34,14.2,69.4,24.6,105.7,31"/>
		</g>
		<g>
			<path class="st3" d="M1068.1,256.1l7.3-37.8 M1025.8,245.8c27.9,8.2,56.5,13.7,85.4,16.5"/>
		</g>
		<g>
			<path class="st3" d="M1409,730.5l-20.3-74.2 M1393.6,734.6c10.3-2.6,20.5-5.4,30.6-8.4"/>
		</g>
		<g>
			<path class="st3" d="M1316,751l-6.4-37.9 M1300.3,753.6c10.5-1.6,20.9-3.4,31.3-5.3"/>
		</g>
		<g>
			<path class="st3" d="M1332.1,709l-7.3-37.8 M1309.6,713.1c15-2.5,30-5.5,44.9-8.7"/>
		</g>
		<g>
			<path class="st3" d="M1356.9,664.4l-8.7-37.5 M1324.7,671.3c21.5-4.2,42.8-9.2,64-14.9"/>
		</g>
		<g>
			<path class="st3" d="M1383.7,617.8l-20.7-74.1 M1348.1,627c23.8-5.6,47.4-12.1,70.6-19.7"/>
		</g>
		<g>
			<path class="st3" d="M1126.3,764l1.2-38.4 M1110.4,763.4c10.6,0.5,21.2,0.8,31.7,1"/>
		</g>
		<g>
			<path class="st3" d="M1150.3,726l0.2-38.5 M1127.4,725.6c15.2,0.5,30.5,0.6,45.7,0.3"/>
		</g>
		<g>
			<path class="st3" d="M1176.1,687.3l-0.9-38.5 M1150.5,687.6c17,0.1,34.1-0.3,51.1-1.2"/>
		</g>
		<g>
			<path class="st3" d="M1201.4,647.9l-2.1-38.4 M1175.2,648.9c17.5-0.4,34.9-1.3,52.3-2.8"/>
		</g>
		<g>
			<path class="st3" d="M1225.1,607.7l-3.3-38.3 M1199.3,609.5c17.2-0.9,34.4-2.4,51.5-4.4"/>
		</g>
		<g>
			<path class="st3" d="M1293,559.9l-61.7-340.6 M1221.8,569.4c47.7-4.1,95-12.7,141.2-25.6"/>
		</g>
		<g>
			<path class="st3" d="M1153.3,226l0.2-38.5 M1075.4,218.3c51.4,10,104.3,10.3,155.8,0.9"/>
		</g>
		<g>
			<path class="st3" d="M1221.4,181.9l-6.6-37.9 M1153.5,187.6c45.6,0.3,90.9-7.6,133.8-23.2"/>
		</g>
		<g>
			<path class="st3" d="M1250.4,135.9l-10.5-37 M1214.9,144c24-4.2,47.4-10.8,70-19.9"/>
		</g>
		<g>
			<path class="st3" d="M1430.8-1118.4l-22,73.7 M1446-1113.7c-10.1-3.2-20.2-6.2-30.4-9.1"/>
		</g>
		<g>
			<path class="st3" d="M1520.6-1086.7l-14.6,35.6 M1535.2-1080.5c-9.7-4.2-19.5-8.2-29.4-12"/>
		</g>
		<g>
			<path class="st3" d="M1484.7-1059.5l-13.7,35.9 M1506-1051.1c-14.1-5.8-28.3-11.2-42.7-16.3"/>
		</g>
		<g>
			<path class="st3" d="M1440.1-1034.7l-12.4,36.4 M1471-1023.6c-20.5-7.8-41.2-14.9-62.2-21.1"/>
		</g>
		<g>
			<path class="st3" d="M1392.8-1009.3l-10.8,36.9 M1427.7-998.3c-23.2-7.9-46.6-14.7-70.4-20.5"/>
		</g>
		<g>
			<path class="st3" d="M1338.3-1141.1l-29.2,151 M1353.9-1137.9c-10.4-2.2-20.7-4.2-31.2-6"/>
		</g>
		<g>
			<path class="st3" d="M1345.8-982.1l-9,37.4 M1382-972.4c-24-7-48.3-12.9-72.9-17.6"/>
		</g>
		<g>
			<path class="st3" d="M1180.7-1158.3l-1,38.4 M1196.6-1157.7c-10.6-0.4-21.2-0.7-31.7-0.8"/>
		</g>
		<g>
			<path class="st3" d="M1156.8-1120.1l0,38.5 M1179.7-1119.8c-15.2-0.4-30.5-0.4-45.7-0.1"/>
		</g>
		<g>
			<path class="st3" d="M1275.6-1151.1l-4.8,38.2 M1291.4-1149c-10.5-1.5-21-2.8-31.5-4"/>
		</g>
		<g>
			<path class="st3" d="M1248.1-1115.5l-3.8,38.3 M1270.8-1112.9c-15.1-1.9-30.3-3.4-45.5-4.6"/>
		</g>
		<g>
			<path class="st3" d="M1200.6-1080.5l-5.8,115.2 M1244.3-1077.2c-29.1-2.9-58.3-4.4-87.5-4.4"/>
		</g>
		<g>
			<path class="st3" d="M1266.2-958.3l-5.5,38.1 M1336.7-944.7c-46.6-11.3-94.1-18.2-142-20.6"/>
		</g>
		<g>
			<path class="st3" d="M1022.4-1149.3l5.3,38.1 M1038.1-1151.4c-10.5,1.3-21,2.8-31.4,4.4"/>
		</g>
		<g>
			<path class="st3" d="M1085.5-1156l2.8,38.4 M1101.3-1157c-10.6,0.6-21.1,1.4-31.7,2.3"/>
		</g>
		<g>
			<path class="st3" d="M1058-1114.9l4.1,38.2 M1088.3-1117.7c-20.3,1.5-40.5,3.6-60.6,6.5"/>
		</g>
		<g>
			<path class="st3" d="M959.8-1138.4l15.7,75.3 M975.4-1141.5c-10.4,2-20.8,4.1-31.1,6.5"/>
		</g>
		<g>
			<path class="st3" d="M1018.6-1071l23.9,152 M1062-1076.7c-29.1,3.1-57.9,7.6-86.5,13.6"/>
		</g>
		<g>
			<path class="st3" d="M1151.5-927.8l0.4,76.9 M1260.7-920.2c-72.4-10.5-146-10.1-218.2,1.3"/>
		</g>
		<g>
			<path class="st3" d="M1879-830.6l-28.9,25.3 M1889.4-818.6c-6.8-8.1-13.8-16-20.9-23.9"/>
		</g>
		<g>
			<path class="st3" d="M1834.8-822.3l-84.9,78.2 M1850.1-805.3c-10-11.5-20.4-22.7-31-33.6"/>
		</g>
		<g>
			<path class="st3" d="M1956.2-729.8l-32,21.3 M1964.9-716.5c-5.7-8.9-11.6-17.7-17.6-26.4"/>
		</g>
		<g>
			<path class="st3" d="M1989.6-675.8l-33.4,19.2 M1997.4-662c-5.1-9.3-10.4-18.4-15.8-27.5"/>
		</g>
		<g>
			<path class="st3" d="M1940.6-682.9l-32.7,20.2 M1956.2-656.7c-10.1-17.6-20.8-34.9-32.1-51.8"/>
		</g>
		<g>
			<path class="st3" d="M1888.1-693.3l-31.8,21.6 M1907.9-662.6c-12.8-20.7-26.5-40.9-41-60.4"/>
		</g>
		<g>
			<path class="st3" d="M1838.1-697.4l-31,22.7 M1856.2-671.7c-11.8-17.3-24.2-34.3-37.2-50.7"/>
		</g>
		<g>
			<path class="st3" d="M1779.5-710.2l-29.7,24.4 M1807.1-674.6c-17.7-24.2-36.8-47.4-57.2-69.5"/>
		</g>
		<g>
			<path class="st3" d="M2056.9-532.3l-36,13.4 M2062.4-517.4c-3.5-10-7.2-19.9-11.1-29.8"/>
		</g>
		<g>
			<path class="st3" d="M2012.7-540.2l-35.7,14.3 M2020.9-518.9c-5.3-14.3-11-28.4-17-42.4"/>
		</g>
		<g>
			<path class="st3" d="M1967.1-549.5l-35.3,15.3 M1977-525.9c-6.3-15.8-13.1-31.5-20.4-46.9"/>
		</g>
		<g>
			<path class="st3" d="M2099.8-379.6l-37.8,7.3 M2102.7-364c-1.8-10.4-3.8-20.8-6-31.2"/>
		</g>
		<g>
			<path class="st3" d="M2057.4-394.7l-37.6,8.2 M2062-372.3c-2.9-15-6.2-29.9-9.8-44.7"/>
		</g>
		<g>
			<path class="st3" d="M2077.1-472.1l-73.7,22 M2081.5-456.8c-2.9-10.2-5.9-20.3-9.1-30.4"/>
		</g>
		<g>
			<path class="st3" d="M2012.2-418.4l-37.2,9.6 M2019.8-386.5c-4.7-21.4-10.2-42.6-16.4-63.6"/>
		</g>
		<g>
			<path class="st3" d="M1955.9-472.3l-36.4,12.5 M1975-408.8c-11.1-42.9-25.5-84.8-43.1-125.4"/>
		</g>
		<g>
			<path class="st3" d="M1899.2-512.7l-35.4,15 M1919.5-459.8c-12.3-35.7-27.1-70.6-44.3-104.2"/>
		</g>
		<g>
			<path class="st3" d="M1813.5-595.8l-32.9,19.9 M1863.8-497.7c-28.8-67.8-67.2-131.1-114-188"/>
		</g>
		<g>
			<path class="st3" d="M1740.2-960.6l-46.8,61.1 M1752.7-950.8c-8.3-6.6-16.7-13-25.2-19.3"/>
		</g>
		<g>
			<path class="st3" d="M1812.8-899l-26.3,28.1 M1824.3-888.1c-7.6-7.4-15.3-14.6-23.2-21.7"/>
		</g>
		<g>
			<path class="st3" d="M1769.7-886.4l-25.6,28.7 M1786.6-870.9c-11.1-10.4-22.5-20.6-34.1-30.4"/>
		</g>
		<g>
			<path class="st3" d="M1719.2-879l-24.5,29.7 M1744.1-857.6c-16.4-14.6-33.3-28.5-50.7-41.8"/>
		</g>
		<g>
			<path class="st3" d="M1665.9-872.1l-23.2,30.7 M1694.7-849.4c-18.9-15.6-38.4-30.3-58.5-44.2"/>
		</g>
		<g>
			<path class="st3" d="M1617.8-859.6l-22,31.5 M1642.7-841.4c-16.4-12.4-33.3-24.2-50.6-35.3"/>
		</g>
		<g>
			<path class="st3" d="M1573-843.3l-20.9,32.3 M1595.8-828c-15-10.4-30.3-20.4-46-29.7"/>
		</g>
		<g>
			<path class="st3" d="M1679.8-706.4l-27.6,26.8 M1780.7-575.9c-57.4-94.7-135.5-175-228.5-235.1"/>
		</g>
		<g>
			<path class="st3" d="M1606.8-1046.2l-18,34 M1620.7-1038.7c-9.3-5.1-18.6-10.1-28-14.9"/>
		</g>
		<g>
			<path class="st3" d="M1568.4-1022.7l-103.2,206.4 M1588.7-1012.3c-13.5-7.1-27.1-14-40.9-20.4"/>
		</g>
		<g>
			<path class="st3" d="M1564.5-755.8l-22.7,31 M1652.2-679.6c-54.2-55.8-117.4-102-186.9-136.7"/>
		</g>
		<g>
			<path class="st3" d="M1357-819.1l-11.8,36.6 M1541.8-724.8C1428.7-807.5,1292-851.7,1152-850.9"/>
		</g>
		<g>
			<path class="st3" d="M1173.6-812.2l-7.8,269.1 M1345.2-782.6c-111.5-36.1-231-39.6-344.5-10"/>
		</g>
		<g>
			<path class="st3" d="M195.6-144.9L234-147 M194.9-160.8c0.4,10.6,1,21.1,1.7,31.7"/>
		</g>
		<g>
			<path class="st3" d="M194.3-208.4l38.5,0.5 M194.6-224.3c-0.3,10.6-0.4,21.2-0.4,31.7"/>
		</g>
		<g>
			<path class="st3" d="M232.9-177.4l538.3-11.4 M232.7-207.9c-0.2,20.3,0.2,40.6,1.3,60.9"/>
		</g>
		<g>
			<path class="st3" d="M215.3-397.4l37.6,8 M218.7-412.9c-2.4,10.3-4.6,20.7-6.6,31.1"/>
		</g>
		<g>
			<path class="st3" d="M248.4-367l37.8,7.1 M252.9-389.4c-3.2,14.9-6,29.9-8.4,44.9"/>
		</g>
		<g>
			<path class="st3" d="M281.9-334.7l379.9,59.9 M286.2-359.9c-3.1,16.7-5.8,33.6-8,50.5"/>
		</g>
		<g>
			<path class="st3" d="M239.7-489.4l366.4,117 M244.7-504.5c-3.4,10-6.6,20.1-9.7,30.2"/>
		</g>
		<g>
			<path class="st3" d="M286.2-607.5l34.8,16.4 M293.1-621.8c-4.7,9.5-9.2,19.1-13.6,28.7"/>
		</g>
		<g>
			<path class="st3" d="M311.5-570.3l35.2,15.6 M321-591.1c-6.5,13.8-12.7,27.7-18.5,41.8"/>
		</g>
		<g>
			<path class="st3" d="M336.7-531.2L586-429.5 M346.7-554.7c-6.9,15.6-13.3,31.4-19.3,47.3"/>
		</g>
		<g>
			<path class="st3" d="M331.1-691.5l33,19.8 M339.4-705c-5.6,9-11,18.1-16.3,27.2"/>
		</g>
		<g>
			<path class="st3" d="M352.6-652l234.3,132.7 M364.1-671.7c-7.8,13.1-15.3,26.3-22.5,39.8"/>
		</g>
		<g>
			<path class="st3" d="M403.4-795.8L523.8-700 M413.4-808.1c-6.7,8.2-13.3,16.5-19.8,24.8"/>
		</g>
		<g>
			<path class="st3" d="M488.8-889.7l26.7,27.7 M500.3-900.6c-7.7,7.2-15.4,14.6-22.9,22"/>
		</g>
		<g>
			<path class="st3" d="M535.9-932.2l24.8,29.4 M548.2-942.3c-8.2,6.7-16.3,13.5-24.3,20.5"/>
		</g>
		<g>
			<path class="st3" d="M537.8-882.7l25.7,28.6 M560.7-902.8c-15.5,13.1-30.6,26.7-45.3,40.8"/>
		</g>
		<g>
			<path class="st3" d="M536.9-829.2l26.9,27.5 M563.5-854.2c-18.1,16.3-35.5,33.3-52.2,51.1"/>
		</g>
		<g>
			<path class="st3" d="M541.8-779.3l27.9,26.5 M563.8-801.7c-15,14.7-29.4,29.9-43.2,45.6"/>
		</g>
		<g>
			<path class="st3" d="M546.1-726.9l29,25.2 M569.7-752.8c-16.1,16.9-31.4,34.6-45.9,52.8"/>
		</g>
		<g>
			<path class="st3" d="M365.5-744.8l158,109.6 M374.7-757.8c-6.2,8.6-12.2,17.3-18.1,26.1"/>
		</g>
		<g>
			<path class="st3" d="M548.5-669.2l60.7,47.2 M575.2-701.7c-18.4,21.2-35.6,43.3-51.6,66.4"/>
		</g>
		<g>
			<path class="st3" d="M692.8-1039.8l18.5,33.7 M706.7-1047.3c-9.4,4.9-18.6,10-27.8,15.3"/>
		</g>
		<g>
			<path class="st3" d="M691.4-994.8l38.7,66.5 M711.3-1006.1c-13.4,7.3-26.5,15-39.5,23"/>
		</g>
		<g>
			<path class="st3" d="M778.4-1081.4l15.1,35.4 M793-1087.5c-9.8,4-19.5,8.1-29.2,12.5"/>
		</g>
		<g>
			<path class="st3" d="M772.6-1036.8l16,35 M793.5-1046.1c-14,6-27.9,12.3-41.6,19"/>
		</g>
		<g>
			<path class="st3" d="M867.7-1114.4l11.5,36.7 M882.9-1119c-10.1,3-20.2,6.2-30.3,9.5"/>
		</g>
		<g>
			<path class="st3" d="M857.5-1070.6l12.4,36.4 M879.2-1077.7c-14.5,4.6-29,9.5-43.3,14.8"/>
		</g>
		<g>
			<path class="st3" d="M828.8-1019l14.2,35.7 M869.9-1034.2c-27.6,9.4-54.8,20.2-81.4,32.4"/>
		</g>
		<g>
			<path class="st3" d="M785.5-957.9l16.8,34.6 M843-983.3c-39,15.5-76.7,33.9-113,55"/>
		</g>
		<g>
			<path class="st3" d="M755.2-898.4l19.1,33.4 M802.4-923.3c-32,15.6-62.9,33.2-92.6,52.9"/>
		</g>
		<g>
			<path class="st3" d="M741.7-845.3l20.7,32.4 M774.3-865c-22.1,12.6-43.5,26.3-64.2,41"/>
		</g>
		<g>
			<path class="st3" d="M737.3-796.1l22,31.5 M762.4-812.9c-16.9,10.8-33.4,22.3-49.4,34.5"/>
		</g>
		<g>
			<path class="st3" d="M678.9-698.9l26.5,27.9 M759.3-764.6c-56.9,39.8-107.5,87.8-150.1,142.7"/>
		</g>
		<g>
			<path class="st3" d="M640.5-599.6l30.3,23.7 M705.4-671.1c-46.8,44.5-86.8,95.6-118.6,151.8"/>
		</g>
		<g>
			<path class="st3" d="M623.3-505.6l33.3,19.3 M670.8-575.9c-34.9,44.6-63.4,93.9-84.8,146.4"/>
		</g>
		<g>
			<path class="st3" d="M628.3-430.8l35.2,15.6 M656.6-486.3c-20.9,36-37.8,74.2-50.5,113.9"/>
		</g>
		<g>
			<path class="st3" d="M647.8-375.7l36.3,12.8 M663.5-415.2c-11.5,25.9-20.9,52.6-28.1,80"/>
		</g>
		<g>
			<path class="st3" d="M671-319.4l37.3,9.4 M684.1-363c-10.1,28.6-17.5,58.1-22.2,88.1"/>
		</g>
		<g>
			<path class="st3" d="M700.9-275.5l37.9,6.5 M708.2-310c-5.8,22.8-9.8,46.1-12,69.5"/>
		</g>
		<g>
			<path class="st3" d="M735.5-246l38.2,4.5 M738.8-269c-2.6,15.2-4.4,30.6-5.4,46"/>
		</g>
		<g>
			<path class="st3" d="M771.6-215.3l38.4,1.8 M773.7-241.6c-2,17.5-2.9,35.1-2.5,52.7"/>
		</g>
		<g>
			<path class="st3" d="M920.5-451l26.1,28.2 M1165.8-543C977.2-548.5,818.9-401.9,810-213.4"/>
		</g>
		<g>
			<path class="st3" d="M887.5-46.3L921-65.1 M946.7-422.8c-104.4,96.7-128.9,252.4-59.1,376.5s215.4,184.1,352.3,145.2"/>
		</g>
		<g>
			<path class="st3" d="M1842,476.4l-137.3-134.7 M1830.8,487.7c7.5-7.4,14.9-15,22.2-22.7"/>
		</g>
		<g>
			<path class="st3" d="M1696.1,598.3l-64.8-95.4 M1682.9,607.1c8.9-5.8,17.6-11.7,26.3-17.8"/>
		</g>
		<g>
			<path class="st3" d="M1642.4,632.3l-38.9-66.3 M1628.6,640.2c9.2-5.2,18.3-10.6,27.4-16.1"/>
		</g>
		<g>
			<path class="st3" d="M1558,676.3l-16.1-34.9 M1543.5,682.8c9.7-4.3,19.3-8.7,28.8-13.3"/>
		</g>
		<g>
			<path class="st3" d="M1562.5,631.6l-17-34.5 M1541.9,641.4c13.8-6.4,27.5-13.1,41-20.1"/>
		</g>
		<g>
			<path class="st3" d="M1574.8,582l-18.2-33.9 M1545.6,597c19.7-9.7,39-20,57.9-31.1"/>
		</g>
		<g>
			<path class="st3" d="M1594.5,526.5l-19.9-32.9 M1556.6,548.1c25.6-13.8,50.5-28.9,74.6-45.3"/>
		</g>
		<g>
			<path class="st3" d="M1796.1,520.2l-25.6-28.7 M1784.2,530.7c8-6.9,15.9-14,23.7-21.1"/>
		</g>
		<g>
			<path class="st3" d="M1747.4,560.9l-23.7-30.3 M1734.8,570.6c8.4-6.4,16.8-12.9,25-19.5"/>
		</g>
		<g>
			<path class="st3" d="M1747.4,511.5l-74-88.6 M1723.7,530.6c16-12.5,31.6-25.5,46.8-39.1"/>
		</g>
		<g>
			<path class="st3" d="M1625.3,460.1l-22.4-31.3 M1574.6,493.6c34.7-21,67.8-44.7,98.9-70.7"/>
		</g>
		<g>
			<path class="st3" d="M1655.8,387.5l-325-379.9 M1603,428.8c36.4-26,70.5-55.2,101.8-87.1"/>
		</g>
		<g>
			<path class="st3" d="M1108.7,68l6.7-37.9 M921-65.1C960.5,5.1,1029.4,54,1108.7,68s160.8-8.1,222-60.5"/>
		</g>
		<g>
			<path class="st3" d="M1231.5,20.9l-12.6-36.3 M1115.4,30.2c79,14,159.6-14,212.8-73.9"/>
		</g>
		<g>
			<path class="st3" d="M1293.5-62.8l-27.5-26.8 M1218.9-15.4c57.2-19.9,101.7-65.6,120.1-123.3"/>
		</g>
		<g>
			<path class="st3" d="M1295.2-132.1l-34.9-16.2 M1265.9-89.7c24.3-25,39.4-57.5,42.9-92.1"/>
		</g>
		<g>
			<path class="st3" d="M1267.5-168.4l-37.3-9.5 M1260.4-148.3c6-12.9,9.6-26.9,10.5-41.1"/>
		</g>
		<g>
			<path class="st3" d="M1232.1-187.4l-38.2-4.8 M1230.3-177.9c1.6-6.2,2.4-12.7,2.4-19.1"/>
		</g>
	</g>
	<g id="scaleHolder">
	</g>
	<g id="bootstrapHolder">
	</g>
	<g id="branchlengthHolder">
	</g>
	<g id="branchIDHolder">
	</g>
	<g id="datasetHolder">
	</g>
</g>
<g id="wrapperHolder">
</g>
<g id="legendHolder">
</g>
</svg>
