<?xml version="1.0" encoding="utf-8"?>
<!-- Generator: Adobe Illustrator 27.4.1, SVG Export Plug-In . SVG Version: 6.00 Build 0)  -->
<svg version="1.1" id="图层_1" xmlns="http://www.w3.org/2000/svg" xmlns:xlink="http://www.w3.org/1999/xlink" x="0px" y="0px"
	 viewBox="0 0 734 709.2" style="enable-background:new 0 0 734 709.2;" xml:space="preserve">
<style type="text/css">
	
		.st0{fill:none;stroke:#AAAAAA;stroke-width:8.879400e-02;stroke-linecap:round;stroke-miterlimit:2.9598;stroke-dasharray:1.4799,2.9598;stroke-dashoffset:2;}
	.st1{font-family:'ArialMT';}
	.st2{font-size:4.7357px;}
	.st3{fill:none;stroke:#000000;stroke-width:0.296;stroke-linecap:round;stroke-miterlimit:2.9598;}
</style>
<g id="mainHolder" transform="translate(640.97955,438.57225) rotate(-150) scale(0.29598,0.29598)">
	<g id="rangeHolder">
	</g>
	<g id="rangeDatasetHolder">
	</g>
	<g id="pruningHolder">
	</g>
	<g id="treeHolder">
		<g>
			<path class="st0" d="M2059-417.3l-4.9,0.9"/>
			<text transform="matrix(-3.3273 0.5867 -0.5867 -3.3273 2116.8228 -432.3856)" class="st1 st2">Pantoea</text>
			<path class="st3" d="M2054-416.4l-37.9,6.7"/>
		</g>
		<g>
			<path class="st0" d="M2052.7-449.9l-4.9,1"/>
			<text transform="matrix(-3.3061 0.6962 -0.6962 -3.3061 2109.9932 -466.8683)" class="st1 st2">Pantoea</text>
			<path class="st3" d="M2047.8-448.9l-37.6,7.9"/>
		</g>
		<g>
			<path class="st0" d="M2045.3-482.2l-4.9,1.2"/>
			<text transform="matrix(-3.2813 0.805 -0.805 -3.2813 2102.0261 -501.1067)" class="st1 st2">Pantoea</text>
			<path class="st3" d="M2040.4-481.1l-74.7,18.3"/>
		</g>
		<g>
			<path class="st0" d="M2036.8-514.3l-4.8,1.4"/>
			<text transform="matrix(-3.2529 0.9129 -0.9129 -3.2529 2092.937 -535.0632)" class="st1 st2">Pantoea</text>
			<path class="st3" d="M2032-513l-37,10.4"/>
		</g>
		<g>
			<path class="st0" d="M2027.3-546.1l-4.8,1.5"/>
			<text transform="matrix(-3.221 1.0198 -1.0198 -3.221 2082.7288 -568.6995)" class="st1 st2">Pantoea</text>
			<path class="st3" d="M2022.6-544.6l-36.7,11.6"/>
		</g>
		<g>
			<path class="st0" d="M2016.8-577.6l-4.7,1.7"/>
			<text transform="matrix(-3.1856 1.1255 -1.1255 -3.1856 2071.4202 -601.9815)" class="st1 st2">Pantoea</text>
			<path class="st3" d="M2012.1-575.9l-36.3,12.8"/>
		</g>
		<g>
			<path class="st0" d="M2005.2-608.7l-4.7,1.8"/>
			<text transform="matrix(-3.1467 1.2301 -1.2301 -3.1467 2059.0159 -634.8719)" class="st1 st2">Pantoea</text>
			<path class="st3" d="M2000.6-606.9l-35.8,14"/>
		</g>
		<g>
			<path class="st0" d="M1992.7-639.4l-4.6,2"/>
			<text transform="matrix(-3.1044 1.3333 -1.3333 -3.1044 2045.5312 -667.3369)" class="st1 st2">Pantoea</text>
			<path class="st3" d="M1988.1-637.4l-70.7,30.4"/>
		</g>
		<g>
			<path class="st0" d="M1979.1-669.7l-4.5,2.1"/>
			<text transform="matrix(-3.0587 1.4351 -1.4351 -3.0587 2030.984 -699.3366)" class="st1 st2">Pantoea</text>
			<path class="st3" d="M1974.5-667.5l-104.5,49"/>
		</g>
		<g>
			<path class="st0" d="M1964.5-699.5l-4.5,2.3"/>
			<text transform="matrix(-3.0096 1.5353 -1.5353 -3.0096 2015.3864 -730.8405)" class="st1 st2">Pantoea</text>
			<path class="st3" d="M1960-697.2l-171.3,87.4"/>
		</g>
		<g>
			<path class="st0" d="M1948.9-728.8l-4.4,2.4"/>
			<text transform="matrix(-2.9573 1.6338 -1.6338 -2.9573 2026.7684 -777.2825)" class="st1 st2">Enterobacter</text>
			<path class="st3" d="M1944.5-726.4l-33.7,18.6"/>
		</g>
		<g>
			<path class="st0" d="M1932.4-757.6l-4.3,2.6"/>
			<text transform="matrix(-2.9018 1.7305 -1.7305 -2.9018 2008.6031 -808.6061)" class="st1 st2">Enterobacter</text>
			<path class="st3" d="M1928.1-755l-33,19.7"/>
		</g>
		<g>
			<path class="st0" d="M1914.9-785.8l-4.2,2.7"/>
			<text transform="matrix(-2.843 1.8254 -1.8254 -2.843 1989.4111 -839.3087)" class="st1 st2">Enterobacter</text>
			<path class="st3" d="M1910.7-783.1l-32.4,20.8"/>
		</g>
		<g>
			<path class="st0" d="M1896.5-813.4l-4.1,2.8"/>
			<text transform="matrix(-2.7812 1.9183 -1.9183 -2.7812 1969.2142 -869.3608)" class="st1 st2">Enterobacter</text>
			<path class="st3" d="M1892.4-810.6l-31.7,21.8"/>
		</g>
		<g>
			<path class="st0" d="M1877.2-840.4l-4,3"/>
			<text transform="matrix(-2.7164 2.009 -2.009 -2.7164 1948.0385 -898.7323)" class="st1 st2">Enterobacter</text>
			<path class="st3" d="M1873.2-837.4l-92.8,68.6"/>
		</g>
		<g>
			<path class="st0" d="M1857.1-866.7l-3.9,3.1"/>
			<text transform="matrix(-2.6486 2.0976 -2.0976 -2.6486 1925.9049 -927.3872)" class="st1 st2">Enterobacter</text>
			<path class="st3" d="M1853.1-863.6l-120.6,95.5"/>
		</g>
		<g>
			<path class="st0" d="M1836-892.4l-3.8,3.2"/>
			<text transform="matrix(-2.5779 2.1839 -2.1839 -2.5779 1902.8368 -955.2946)" class="st1 st2">Enterobacter</text>
			<path class="st3" d="M1832.2-889.2l-29.3,24.9"/>
		</g>
		<g>
			<path class="st0" d="M1814.2-917.4l-3.7,3.4"/>
			<text transform="matrix(-2.5044 2.2678 -2.2678 -2.5044 1878.8596 -982.4282)" class="st1 st2">Enterobacter</text>
			<path class="st3" d="M1810.5-914l-28.5,25.8"/>
		</g>
		<g>
			<path class="st0" d="M1791.5-941.6l-3.6,3.5"/>
			<text transform="matrix(-2.4282 2.3493 -2.3493 -2.4282 1853.9984 -1008.7549)" class="st1 st2">Enterobacter</text>
			<path class="st3" d="M1787.9-938.1l-55.3,53.5"/>
		</g>
		<g>
			<path class="st0" d="M1768-965.1l-3.5,3.6"/>
			<text transform="matrix(-2.3493 2.4282 -2.4282 -2.3493 1804.7689 -1009.9388)" class="st1 st2">Massilia</text>
			<path class="st3" d="M1764.6-961.5l-26.7,27.6"/>
		</g>
		<g>
			<path class="st0" d="M1743.8-987.7l-3.4,3.7"/>
			<text transform="matrix(-2.2678 2.5044 -2.5044 -2.2678 1779.0416 -1033.8068)" class="st1 st2">Massilia</text>
			<path class="st3" d="M1740.5-984l-25.8,28.5"/>
		</g>
		<g>
			<path class="st0" d="M1718.8-1009.6l-3.2,3.8"/>
			<text transform="matrix(-2.1839 2.5779 -2.5779 -2.1839 1752.5389 -1056.8092)" class="st1 st2">Massilia</text>
			<path class="st3" d="M1715.6-1005.8l-49.7,58.7"/>
		</g>
		<g>
			<path class="st0" d="M1693.2-1030.6l-3.1,3.9"/>
			<text transform="matrix(-2.0976 2.6486 -2.6486 -2.0976 1725.2935 -1078.9237)" class="st1 st2">Massilia</text>
			<path class="st3" d="M1690.1-1026.7l-23.9,30.2"/>
		</g>
		<g>
			<path class="st0" d="M1666.8-1050.8l-3,4"/>
			<text transform="matrix(-2.009 2.7164 -2.7164 -2.009 1697.3318 -1100.1261)" class="st1 st2">Massilia</text>
			<path class="st3" d="M1663.9-1046.8l-22.9,30.9"/>
		</g>
		<g>
			<path class="st0" d="M1639.8-1070.1l-2.8,4.1"/>
			<text transform="matrix(-1.9183 2.7812 -2.7812 -1.9183 1668.6852 -1120.3977)" class="st1 st2">Massilia</text>
			<path class="st3" d="M1637-1066l-87.3,126.6"/>
		</g>
		<g>
			<path class="st0" d="M1612.2-1088.5l-2.7,4.2"/>
			<text transform="matrix(-1.8254 2.8431 -2.8431 -1.8254 1639.3867 -1139.708)" class="st1 st2">Massilia</text>
			<path class="st3" d="M1609.5-1084.3l-103.9,161.8"/>
		</g>
		<g>
			<path class="st0" d="M1584-1106l-2.6,4.3"/>
			<text transform="matrix(-1.7305 2.9018 -2.9018 -1.7305 1609.4647 -1158.0422)" class="st1 st2">Massilia</text>
			<path class="st3" d="M1581.4-1101.7l-118.2,198.2"/>
		</g>
		<g>
			<path class="st0" d="M1555.2-1122.5l-2.4,4.4"/>
			<text transform="matrix(-1.6338 2.9573 -2.9573 -1.6338 1598.3201 -1210.432)" class="st1 st2">Acinetobacter</text>
			<path class="st3" d="M1552.8-1118.1l-18.6,33.7"/>
		</g>
		<g>
			<path class="st0" d="M1525.9-1138l-2.3,4.5"/>
			<text transform="matrix(-1.5353 3.0096 -3.0096 -1.5353 1566.0865 -1227.3713)" class="st1 st2">Acinetobacter</text>
			<path class="st3" d="M1523.6-1133.6l-17.5,34.3"/>
		</g>
		<g>
			<path class="st0" d="M1496.1-1152.6l-2.1,4.5"/>
			<text transform="matrix(-1.4351 3.0587 -3.0587 -1.4351 1526.1293 -1227.9333)" class="st1 st2">Halomonas</text>
			<path class="st3" d="M1494-1148.1l-32.7,69.6"/>
		</g>
		<g>
			<path class="st0" d="M1465.8-1166.2l-2,4.6"/>
			<text transform="matrix(-1.3333 3.1044 -3.1044 -1.3333 1501.7854 -1262.1058)" class="st1 st2">Pseudomonas</text>
			<path class="st3" d="M1463.9-1161.6l-15.2,35.3"/>
		</g>
		<g>
			<path class="st0" d="M1435.1-1178.8l-1.8,4.7"/>
			<text transform="matrix(-1.2301 3.1467 -3.1467 -1.2301 1467.901 -1275.8328)" class="st1 st2">Pseudomonas</text>
			<path class="st3" d="M1433.3-1174.2l-14,35.8"/>
		</g>
		<g>
			<path class="st0" d="M1404-1190.4l-1.7,4.7"/>
			<text transform="matrix(-1.1255 3.1856 -3.1856 -1.1255 1433.577 -1288.4302)" class="st1 st2">Pseudomonas</text>
			<path class="st3" d="M1402.4-1185.7l-25.6,72.5"/>
		</g>
		<g>
			<path class="st0" d="M1372.6-1200.9l-1.5,4.8"/>
			<text transform="matrix(-1.0198 3.221 -3.221 -1.0198 1398.8583 -1299.891)" class="st1 st2">Pseudomonas</text>
			<path class="st3" d="M1371.1-1196.2l-11.6,36.7"/>
		</g>
		<g>
			<path class="st0" d="M1340.8-1210.4l-1.4,4.8"/>
			<text transform="matrix(-0.9129 3.2529 -3.2529 -0.9129 1363.7815 -1310.1951)" class="st1 st2">Pseudomonas</text>
			<path class="st3" d="M1339.4-1205.6l-10.4,37"/>
		</g>
		<g>
			<path class="st0" d="M1308.7-1218.9l-1.2,4.9"/>
			<text transform="matrix(-0.805 3.2813 -3.2813 -0.805 1328.3804 -1319.3396)" class="st1 st2">Pseudomonas</text>
			<path class="st3" d="M1307.5-1214l-36.7,149.4"/>
		</g>
		<g>
			<path class="st0" d="M1276.3-1226.2l-1,4.9"/>
			<text transform="matrix(-0.6962 3.3061 -3.3061 -0.6962 1292.699 -1327.3054)" class="st1 st2">Pseudomonas</text>
			<path class="st3" d="M1275.3-1221.3l-7.9,37.6"/>
		</g>
		<g>
			<path class="st0" d="M1243.7-1232.5l-0.9,4.9"/>
			<text transform="matrix(-0.5867 3.3273 -3.3273 -0.5867 1256.7736 -1334.0958)" class="st1 st2">Pseudomonas</text>
			<path class="st3" d="M1242.9-1227.6l-6.7,37.9"/>
		</g>
		<g>
			<path class="st0" d="M1211-1237.7l-0.7,5"/>
			<text transform="matrix(-0.4765 3.3448 -3.3448 -0.4765 1220.6454 -1339.6898)" class="st1 st2">Pseudomonas</text>
			<path class="st3" d="M1210.3-1232.8l-5.4,38.1"/>
		</g>
		<g>
			<path class="st0" d="M1178-1241.9l-0.5,5"/>
			<text transform="matrix(-0.3658 3.3587 -3.3587 -0.3658 1184.3483 -1344.0939)" class="st1 st2">Pseudomonas</text>
			<path class="st3" d="M1177.5-1236.9l-4.2,38.2"/>
		</g>
		<g>
			<path class="st0" d="M1145-1244.9l-0.4,5"/>
			<text transform="matrix(-0.2548 3.369 -3.369 -0.2548 1147.9271 -1347.2909)" class="st1 st2">Pseudomonas</text>
			<path class="st3" d="M1144.6-1239.9l-5.8,76.7"/>
		</g>
		<g>
			<path class="st0" d="M1111.9-1246.9l-0.2,5"/>
			<text transform="matrix(-0.1434 3.3756 -3.3756 -0.1434 1111.4175 -1349.2909)" class="st1 st2">Pseudomonas</text>
			<path class="st3" d="M1111.7-1241.9l-1.6,38.4"/>
		</g>
		<g>
			<path class="st0" d="M1078.7-1247.7l0,5"/>
			<text transform="matrix(-3.187307e-02 3.3785 -3.3785 -3.187307e-02 1074.8665 -1350.0787)" class="st1 st2">Pseudomonas</text>
			<path class="st3" d="M1078.7-1242.7l-0.4,38.5"/>
		</g>
		<g>
			<path class="st0" d="M1045.5-1247.5l0.1,5"/>
			<text transform="matrix(7.967976e-02 3.3777 -3.3777 7.967976e-02 1038.3087 -1349.6632)" class="st1 st2">Pseudomonas</text>
			<path class="st3" d="M1045.6-1242.5l1.8,76.9"/>
		</g>
		<g>
			<path class="st0" d="M1012.4-1246.2l0.3,5"/>
			<text transform="matrix(0.1911 3.3732 -3.3732 0.1911 1001.9871 -1344.4874)" class="st1 st2">Xanthomonas</text>
			<path class="st3" d="M1012.6-1241.2l2.2,38.4"/>
		</g>
		<g>
			<path class="st0" d="M979.3-1243.8l0.4,5"/>
			<text transform="matrix(0.3024 3.365 -3.365 0.3024 965.6487 -1341.6693)" class="st1 st2">Xanthomonas</text>
			<path class="st3" d="M979.7-1238.8l3.4,38.3"/>
		</g>
		<g>
			<path class="st0" d="M946.3-1240.2l0.6,5"/>
			<text transform="matrix(0.4133 3.3532 -3.3532 0.4133 924.9651 -1373.8461)" class="st1 st2">Stenotrophomonas</text>
			<path class="st3" d="M946.9-1235.3l4.7,38.2"/>
		</g>
		<g>
			<path class="st0" d="M913.4-1235.6l0.8,4.9"/>
			<text transform="matrix(0.5238 3.3378 -3.3378 0.5238 887.7054 -1368.4679)" class="st1 st2">Stenotrophomonas</text>
			<path class="st3" d="M914.2-1230.7l6,38"/>
		</g>
		<g>
			<path class="st0" d="M880.7-1230l0.9,4.9"/>
			<text transform="matrix(0.6337 3.3186 -3.3186 0.6337 860.4848 -1310.3068)" class="st1 st2">Luteimonas</text>
			<path class="st3" d="M881.7-1225l7.2,37.8"/>
		</g>
		<g>
			<path class="st0" d="M848.2-1223.2l1.1,4.9"/>
			<text transform="matrix(0.7429 3.2959 -3.2959 0.7429 820.8658 -1322.7642)" class="st1 st2">Thermomonas</text>
			<path class="st3" d="M849.3-1218.3l8.5,37.5"/>
		</g>
		<g>
			<path class="st0" d="M816-1215.4l1.3,4.8"/>
			<text transform="matrix(0.8513 3.2696 -3.2696 0.8513 790.0472 -1295.9291)" class="st1 st2">Unassigned</text>
			<path class="st3" d="M817.2-1210.5l96.9,372.2"/>
		</g>
		<g>
			<path class="st0" d="M784-1206.5l1.4,4.8"/>
			<text transform="matrix(0.9588 3.2397 -3.2397 0.9588 749.1187 -1307.4663)" class="st1 st2">Sphingomonas</text>
			<path class="st3" d="M785.4-1201.7l10.9,36.9"/>
		</g>
		<g>
			<path class="st0" d="M752.4-1196.5l1.6,4.7"/>
			<text transform="matrix(1.0652 3.2063 -3.2063 1.0652 714.1447 -1296.3202)" class="st1 st2">Sphingomonas</text>
			<path class="st3" d="M753.9-1191.8l12.1,36.5"/>
		</g>
		<g>
			<path class="st0" d="M721-1185.6l1.7,4.7"/>
			<text transform="matrix(1.1705 3.1694 -3.1694 1.1705 679.5566 -1284.0201)" class="st1 st2">Sphingomonas</text>
			<path class="st3" d="M722.8-1180.9l26.6,72.2"/>
		</g>
		<g>
			<path class="st0" d="M690.1-1173.5l1.9,4.6"/>
			<text transform="matrix(1.2745 3.129 -3.129 1.2745 645.3935 -1270.5874)" class="st1 st2">Sphingomonas</text>
			<path class="st3" d="M692-1168.9l14.5,35.6"/>
		</g>
		<g>
			<path class="st0" d="M659.6-1160.5l2,4.6"/>
			<text transform="matrix(1.3771 3.0852 -3.0852 1.3771 611.6931 -1256.035)" class="st1 st2">Sphingomonas</text>
			<path class="st3" d="M661.6-1156l15.7,35.1"/>
		</g>
		<g>
			<path class="st0" d="M629.5-1146.5l2.2,4.5"/>
			<text transform="matrix(1.4782 3.0381 -3.0381 1.4782 578.4948 -1240.3783)" class="st1 st2">Sphingomonas</text>
			<path class="st3" d="M631.7-1142l33.7,69.2"/>
		</g>
		<g>
			<path class="st0" d="M599.9-1131.5l2.3,4.4"/>
			<text transform="matrix(1.5777 2.9876 -2.9876 1.5777 545.8238 -1223.6364)" class="st1 st2">Sphingomonas</text>
			<path class="st3" d="M602.2-1127.1l18,34"/>
		</g>
		<g>
			<path class="st0" d="M570.8-1115.5l2.5,4.3"/>
			<text transform="matrix(1.6755 2.9339 -2.9339 1.6755 513.7297 -1205.8231)" class="st1 st2">Sphingomonas</text>
			<path class="st3" d="M573.3-1111.2l19.1,33.4"/>
		</g>
		<g>
			<path class="st0" d="M542.3-1098.6l2.6,4.3"/>
			<text transform="matrix(-1.7714 -2.877 2.877 -1.7714 546.3787 -1101.0958)" class="st1 st2">Sphingomonas</text>
			<path class="st3" d="M544.9-1094.3l40.3,65.5"/>
		</g>
		<g>
			<path class="st0" d="M514.3-1080.7l2.8,4.2"/>
			<text transform="matrix(-1.8654 -2.8169 2.8169 -1.8654 518.3267 -1083.3644)" class="st1 st2">Sphingomonas</text>
			<path class="st3" d="M517.1-1076.5l106.2,160.3"/>
		</g>
		<g>
			<path class="st0" d="M487-1061.9l2.9,4.1"/>
			<text transform="matrix(-1.9574 -2.7538 2.7538 -1.9574 490.8776 -1064.7222)" class="st1 st2">Sphingomonas</text>
			<path class="st3" d="M489.9-1057.9l133.7,188.1"/>
		</g>
		<g>
			<path class="st0" d="M460.2-1042.3l3,4"/>
			<text transform="matrix(-2.0473 -2.6877 2.6877 -2.0473 464.0559 -1045.1777)" class="st1 st2">Sphingomonas</text>
			<path class="st3" d="M463.3-1038.3l163.1,214.2"/>
		</g>
		<g>
			<path class="st0" d="M434.2-1021.7l3.2,3.9"/>
			<text transform="matrix(-2.1349 -2.6186 2.6186 -2.1349 437.8986 -1024.766)" class="st1 st2">Methylobacterium-Methylorubrum</text>
			<path class="st3" d="M437.3-1017.9l24.3,29.8"/>
		</g>
		<g>
			<path class="st0" d="M408.8-1000.3l3.3,3.8"/>
			<text transform="matrix(-2.2202 -2.5467 2.5467 -2.2202 412.4272 -1003.4938)" class="st1 st2">Methylobacterium-Methylorubrum</text>
			<path class="st3" d="M412.1-996.6l25.3,29"/>
		</g>
		<g>
			<path class="st0" d="M384.2-978.1l3.4,3.7"/>
			<text transform="matrix(-2.303 -2.472 2.472 -2.303 387.6703 -981.3962)" class="st1 st2">Methylobacterium-Methylorubrum</text>
			<path class="st3" d="M387.6-974.5l26.2,28.1"/>
		</g>
		<g>
			<path class="st0" d="M360.3-955.1l3.5,3.5"/>
			<text transform="matrix(-2.3834 -2.3947 2.3947 -2.3834 363.6557 -958.495)" class="st1 st2">Methylobacterium-Methylorubrum</text>
			<path class="st3" d="M363.8-951.6l27.1,27.3"/>
		</g>
		<g>
			<path class="st0" d="M337.1-931.3l3.6,3.4"/>
			<text transform="matrix(-2.4612 -2.3147 2.3147 -2.4612 340.4132 -934.8106)" class="st1 st2">Methylobacterium-Methylorubrum</text>
			<path class="st3" d="M340.8-927.9l84.1,79"/>
		</g>
		<g>
			<path class="st0" d="M314.8-906.8l3.8,3.3"/>
			<text transform="matrix(-2.5362 -2.2322 2.2322 -2.5362 317.9669 -910.3719)" class="st1 st2">Methylobacterium-Methylorubrum</text>
			<path class="st3" d="M318.5-903.5L434-801.8"/>
		</g>
		<g>
			<path class="st0" d="M293.3-881.5l3.9,3.2"/>
			<text transform="matrix(-2.6085 -2.1472 2.1472 -2.6085 296.3358 -885.2045)" class="st1 st2">Methylobacterium-Methylorubrum</text>
			<path class="st3" d="M297.1-878.3l29.7,24.4"/>
		</g>
		<g>
			<path class="st0" d="M272.6-855.5l4,3"/>
			<text transform="matrix(-2.678 -2.0599 2.0599 -2.678 275.5504 -859.3417)" class="st1 st2">Methylobacterium-Methylorubrum</text>
			<path class="st3" d="M276.6-852.5l30.5,23.4"/>
		</g>
		<g>
			<path class="st0" d="M252.8-828.9l4.1,2.9"/>
			<text transform="matrix(-2.7445 -1.9704 1.9704 -2.7445 255.6265 -832.8029)" class="st1 st2">Methylobacterium-Methylorubrum</text>
			<path class="st3" d="M256.9-826l31.2,22.4"/>
		</g>
		<g>
			<path class="st0" d="M233.9-801.6l4.2,2.8"/>
			<text transform="matrix(-2.8081 -1.8787 1.8787 -2.8081 236.5929 -805.623)" class="st1 st2">Methylobacterium-Methylorubrum</text>
			<path class="st3" d="M238.1-798.9l32,21.4"/>
		</g>
		<g>
			<path class="st0" d="M215.9-773.8l4.2,2.6"/>
			<text transform="matrix(-2.8686 -1.785 1.785 -2.8686 218.4636 -777.8263)" class="st1 st2">Rhizobiaceae_uncultured</text>
			<path class="st3" d="M220.2-771.1l32.7,20.3"/>
		</g>
		<g>
			<path class="st0" d="M198.9-745.3l4.3,2.5"/>
			<text transform="matrix(-2.926 -1.6893 1.6893 -2.926 201.2636 -749.4503)" class="st1 st2">Rhizobiaceae_uncultured</text>
			<path class="st3" d="M203.2-742.8l33.3,19.2"/>
		</g>
		<g>
			<path class="st0" d="M182.7-716.3l4.4,2.4"/>
			<text transform="matrix(-2.9801 -1.5918 1.5918 -2.9801 185.0117 -720.5195)" class="st1 st2">Rhizobiaceae_uncultured</text>
			<path class="st3" d="M187.2-713.9l67.9,36.2"/>
		</g>
		<g>
			<path class="st0" d="M167.6-686.8l4.5,2.2"/>
			<text transform="matrix(-3.0311 -1.4925 1.4925 -3.0311 169.7213 -691.0663)" class="st1 st2">Aureimonas</text>
			<path class="st3" d="M172.1-684.6l34.5,17"/>
		</g>
		<g>
			<path class="st0" d="M153.4-656.8l4.6,2.1"/>
			<text transform="matrix(-3.0787 -1.3917 1.3917 -3.0787 155.4155 -661.1263)" class="st1 st2">Aureimonas</text>
			<path class="st3" d="M158-654.7l35,15.8"/>
		</g>
		<g>
			<path class="st0" d="M140.3-626.3l4.6,1.9"/>
			<text transform="matrix(-3.123 -1.2893 1.2893 -3.123 142.1023 -630.7316)" class="st1 st2">Aureimonas</text>
			<path class="st3" d="M144.9-624.4L216-595"/>
		</g>
		<g>
			<path class="st0" d="M128.1-595.4l4.7,1.8"/>
			<text transform="matrix(-3.1638 -1.1855 1.1855 -3.1638 129.7996 -599.91)" class="st1 st2">Aureimonas</text>
			<path class="st3" d="M132.8-593.7l108,40.5"/>
		</g>
		<g>
			<path class="st0" d="M117-564.2l4.7,1.6"/>
			<text transform="matrix(-3.2012 -1.0804 1.0804 -3.2012 118.5212 -568.7024)" class="st1 st2">Aureimonas</text>
			<path class="st3" d="M121.7-562.6l36.4,12.3"/>
		</g>
		<g>
			<path class="st0" d="M106.9-532.5l4.8,1.4"/>
			<text transform="matrix(-3.2351 -0.9741 0.9741 -3.2351 108.2793 -537.1396)" class="st1 st2">Aureimonas</text>
			<path class="st3" d="M111.7-531.1l36.8,11.1"/>
		</g>
		<g>
			<path class="st0" d="M97.9-500.6l4.8,1.3"/>
			<text transform="matrix(-3.2655 -0.8667 0.8667 -3.2655 99.0854 -505.2536)" class="st1 st2">Allorhizobium-Neorhizobium-Pararhizobium-Rhizobium</text>
			<path class="st3" d="M102.7-499.3l446.1,118.4"/>
		</g>
		<g>
			<path class="st0" d="M89.9-468.4l4.9,1.1"/>
			<text transform="matrix(-3.2924 -0.7585 0.7585 -3.2924 90.9501 -473.0825)" class="st1 st2">Allorhizobium-Neorhizobium-Pararhizobium-Rhizobium</text>
			<path class="st3" d="M94.7-467.3l37.5,8.6"/>
		</g>
		<g>
			<path class="st0" d="M83-436l4.9,1"/>
			<text transform="matrix(-3.3156 -0.6494 0.6494 -3.3156 83.8799 -440.6606)" class="st1 st2">Allorhizobium-Neorhizobium-Pararhizobium-Rhizobium</text>
			<path class="st3" d="M87.9-435l37.7,7.4"/>
		</g>
		<g>
			<path class="st0" d="M77.1-403.3l4.9,0.8"/>
			<text transform="matrix(-3.3352 -0.5395 0.5395 -3.3352 77.8843 -408.0234)" class="st1 st2">Allorhizobium-Neorhizobium-Pararhizobium-Rhizobium</text>
			<path class="st3" d="M82.1-402.5l75.9,12.3"/>
		</g>
		<g>
			<path class="st0" d="M72.4-370.4l5,0.6"/>
			<text transform="matrix(-3.3512 -0.4291 0.4291 -3.3512 72.9702 -375.207)" class="st1 st2">Allorhizobium-Neorhizobium-Pararhizobium-Rhizobium</text>
			<path class="st3" d="M77.3-369.8l114.5,14.7"/>
		</g>
		<g>
			<path class="st0" d="M68.7-337.5l5,0.5"/>
			<text transform="matrix(-3.3636 -0.3183 0.3183 -3.3636 69.1421 -342.2437)" class="st1 st2">Brevundimonas</text>
			<path class="st3" d="M73.7-337l536.1,50.7"/>
		</g>
		<g>
			<path class="st0" d="M66.1-304.4l5,0.3"/>
			<text transform="matrix(-3.3723 -0.2071 0.2071 -3.3723 66.4047 -309.1726)" class="st1 st2">Ochrobactrum</text>
			<path class="st3" d="M71.1-304.1l575.8,35.4"/>
		</g>
		<g>
			<path class="st0" d="M64.6-271.2l5,0.1"/>
			<text transform="matrix(-3.3773 -9.560901e-02 9.560901e-02 -3.3773 64.7593 -276.0279)" class="st1 st2">Paracoccus</text>
			<path class="st3" d="M69.6-271.1l38.4,1.1"/>
		</g>
		<g>
			<path class="st0" d="M64.2-238.1l5,0"/>
			<text transform="matrix(-3.3786 1.593780e-02 -1.593780e-02 -3.3786 64.2093 -242.851)" class="st1 st2">Paracoccus</text>
			<path class="st3" d="M69.2-238.1l38.5-0.2"/>
		</g>
		<g>
			<path class="st0" d="M64.9-204.9l5-0.2"/>
			<text transform="matrix(-3.3762 0.1275 -0.1275 -3.3762 64.7568 -209.672)" class="st1 st2">Falsirhodobacter</text>
			<path class="st3" d="M69.9-205.1l38.4-1.5"/>
		</g>
		<g>
			<path class="st0" d="M66.7-171.7l5-0.4"/>
			<text transform="matrix(-3.3702 0.2389 -0.2389 -3.3702 66.3954 -176.5282)" class="st1 st2">Falsirhodobacter</text>
			<path class="st3" d="M71.7-172.1l38.4-2.7"/>
		</g>
		<g>
			<path class="st0" d="M69.6-138.7l5-0.5"/>
			<text transform="matrix(-3.3604 0.35 -0.35 -3.3604 69.128 -143.4584)" class="st1 st2">Methylobacterium-Methylorubrum</text>
			<path class="st3" d="M74.6-139.2l38.3-4"/>
		</g>
		<g>
			<path class="st0" d="M73.6-105.7l5-0.7"/>
			<text transform="matrix(-3.347 0.4607 -0.4607 -3.347 72.9553 -110.4953)" class="st1 st2">Methylobacterium-Methylorubrum</text>
			<path class="st3" d="M78.6-106.4l38.1-5.2"/>
		</g>
		<g>
			<path class="st0" d="M78.7-72.9l4.9-0.8"/>
			<text transform="matrix(-3.33 0.571 -0.571 -3.33 77.8657 -77.6773)" class="st1 st2">Methylobacterium-Methylorubrum</text>
			<path class="st3" d="M83.6-73.8l75.8-13"/>
		</g>
		<g>
			<path class="st0" d="M84.8-40.3l4.9-1"/>
			<text transform="matrix(-3.3093 0.6806 -0.6806 -3.3093 83.8571 -45.0384)" class="st1 st2">Bradyrhizobium</text>
			<path class="st3" d="M89.7-41.3l113-23.2"/>
		</g>
		<g>
			<path class="st0" d="M92-7.9l4.9-1.2"/>
			<text transform="matrix(-3.2851 0.7895 -0.7895 -3.2851 90.9227 -12.6152)" class="st1 st2">Allorhizobium-Neorhizobium-Pararhizobium-Rhizobium</text>
			<path class="st3" d="M96.9-9.1l37.4-9"/>
		</g>
		<g>
			<path class="st0" d="M100.3,24.2l4.8-1.3"/>
			<text transform="matrix(-3.2572 0.8975 -0.8975 -3.2572 99.0579 19.5562)" class="st1 st2">Allorhizobium-Neorhizobium-Pararhizobium-Rhizobium</text>
			<path class="st3" d="M105.2,22.9l37.1-10.2"/>
		</g>
		<g>
			<path class="st0" d="M109.7,56l4.8-1.5"/>
			<text transform="matrix(-3.2258 1.0046 -1.0046 -3.2258 108.2457 51.4423)" class="st1 st2">Aureimonas</text>
			<path class="st3" d="M114.4,54.5l73.4-22.9"/>
		</g>
		<g>
			<path class="st0" d="M120.1,87.5l4.7-1.6"/>
			<text transform="matrix(-3.1909 1.1105 -1.1105 -3.1909 118.4807 83.007)" class="st1 st2">Aureimonas</text>
			<path class="st3" d="M124.8,85.9l36.3-12.6"/>
		</g>
		<g>
			<path class="st0" d="M131.5,118.7l4.7-1.8"/>
			<text transform="matrix(-3.1525 1.2152 -1.2152 -3.1525 129.755 114.2168)" class="st1 st2">Aureimonas</text>
			<path class="st3" d="M136.1,116.9l35.9-13.8"/>
		</g>
		<g>
			<path class="st0" d="M143.9,149.5l4.6-2"/>
			<text transform="matrix(-3.1106 1.3187 -1.3187 -3.1106 142.0553 145.0375)" class="st1 st2">Aureimonas</text>
			<path class="st3" d="M148.5,147.5L361,57.4"/>
		</g>
		<g>
			<path class="st0" d="M157.4,179.8l4.5-2.1"/>
			<text transform="matrix(-3.0654 1.4206 -1.4206 -3.0654 155.3666 175.4339)" class="st1 st2">Aureimonas</text>
			<path class="st3" d="M161.9,177.7L406.2,64.5"/>
		</g>
		<g>
			<path class="st0" d="M171.8,209.7l4.5-2.3"/>
			<text transform="matrix(-3.0168 1.5211 -1.5211 -3.0168 169.669 205.3748)" class="st1 st2">Sphingomonas</text>
			<path class="st3" d="M176.3,207.4l34.3-17.3"/>
		</g>
		<g>
			<path class="st0" d="M187.3,239l4.4-2.4"/>
			<text transform="matrix(-2.965 1.6198 -1.6198 -2.965 184.9564 234.8298)" class="st1 st2">Sphingomonas</text>
			<path class="st3" d="M191.6,236.6l33.8-18.4"/>
		</g>
		<g>
			<path class="st0" d="M203.6,267.9l4.3-2.5"/>
			<text transform="matrix(-2.9099 1.7168 -1.7168 -2.9099 201.2067 263.7636)" class="st1 st2">Sphingomonas</text>
			<path class="st3" d="M208,265.4l66.3-39.1"/>
		</g>
		<g>
			<path class="st0" d="M221,296.2l4.2-2.7"/>
			<text transform="matrix(-2.8516 1.812 -1.812 -2.8516 218.4017 292.1434)" class="st1 st2">Sphingomonas</text>
			<path class="st3" d="M225.2,293.5l97.4-61.9"/>
		</g>
		<g>
			<path class="st0" d="M239.2,323.9l4.1-2.8"/>
			<text transform="matrix(-2.7903 1.9051 -1.9051 -2.7903 236.5264 319.9409)" class="st1 st2">Sphingomonas</text>
			<path class="st3" d="M243.4,321.1l31.8-21.7"/>
		</g>
		<g>
			<path class="st0" d="M258.4,351l4-3"/>
			<text transform="matrix(-2.7258 1.9962 -1.9962 -2.7258 255.5591 347.1231)" class="st1 st2">Sphingomonas</text>
			<path class="st3" d="M262.4,348l31-22.7"/>
		</g>
		<g>
			<path class="st0" d="M278.4,377.4l3.9-3.1"/>
			<text transform="matrix(-2.6584 2.0851 -2.0851 -2.6584 275.4769 373.6654)" class="st1 st2">Sphingomonas</text>
			<path class="st3" d="M282.4,374.4l60.5-47.5"/>
		</g>
		<g>
			<path class="st0" d="M299.3,403.2l3.8-3.2"/>
			<text transform="matrix(-2.5882 2.1717 -2.1717 -2.5882 296.2605 399.5321)" class="st1 st2">Schumannella</text>
			<path class="st3" d="M303.2,400l29.5-24.7"/>
		</g>
		<g>
			<path class="st0" d="M321.1,428.3l3.7-3.3"/>
			<text transform="matrix(-2.5151 2.256 -2.256 -2.5151 317.8885 424.7019)" class="st1 st2">Schumannella</text>
			<path class="st3" d="M324.8,424.9l28.6-25.7"/>
		</g>
		<g>
			<path class="st0" d="M343.7,452.6l3.6-3.5"/>
			<text transform="matrix(-2.4392 2.3378 -2.3378 -2.4392 340.3327 449.1408)" class="st1 st2">Frigoribacterium</text>
			<path class="st3" d="M347.3,449.1l55.5-53.2"/>
		</g>
		<g>
			<path class="st0" d="M367,476.2l3.5-3.6"/>
			<text transform="matrix(-2.3607 2.417 -2.417 -2.3607 363.576 472.8288)" class="st1 st2">Kineococcus</text>
			<path class="st3" d="M370.5,472.6l26.9-27.5"/>
		</g>
		<g>
			<path class="st0" d="M391.1,499l3.4-3.7"/>
			<text transform="matrix(-2.2796 2.4937 -2.4937 -2.2796 387.5837 495.7329)" class="st1 st2">Kineococcus</text>
			<path class="st3" d="M394.5,495.3l26-28.4"/>
		</g>
		<g>
			<path class="st0" d="M416,521l3.2-3.8"/>
			<text transform="matrix(-2.196 2.5676 -2.5676 -2.196 412.336 517.8338)" class="st1 st2">Quadrisphaera</text>
			<path class="st3" d="M419.2,517.2l25-29.2"/>
		</g>
		<g>
			<path class="st0" d="M441.6,542.1l3.1-3.9"/>
			<text transform="matrix(-2.1101 2.6387 -2.6387 -2.1101 437.8077 539.1069)" class="st1 st2">Quadrisphaera</text>
			<path class="st3" d="M444.7,538.2l24-30"/>
		</g>
		<g>
			<path class="st0" d="M467.8,562.4l3-4"/>
			<text transform="matrix(-2.0218 2.7069 -2.7069 -2.0218 463.9641 559.5253)" class="st1 st2">Pseudarthrobacter</text>
			<path class="st3" d="M470.8,558.4l115.1-154.1"/>
		</g>
		<g>
			<path class="st0" d="M494.7,581.8l2.9-4.1"/>
			<text transform="matrix(-1.9314 2.7722 -2.7722 -1.9314 490.7812 579.0678)" class="st1 st2">Pseudokineococcus</text>
			<path class="st3" d="M497.6,577.7l131.9-189.3"/>
		</g>
		<g>
			<path class="st0" d="M522.3,600.3l2.7-4.2"/>
			<text transform="matrix(-1.8388 2.8344 -2.8344 -1.8388 518.2321 597.7188)" class="st1 st2">Klenkia</text>
			<path class="st3" d="M525,596.1l146.5-225.9"/>
		</g>
		<g>
			<path class="st0" d="M550.4,617.9l2.6-4.3"/>
			<text transform="matrix(-1.7442 2.8936 -2.8936 -1.7442 546.2795 615.4492)" class="st1 st2">Pseudomonas</text>
			<path class="st3" d="M553,613.6l19.9-32.9"/>
		</g>
		<g>
			<path class="st0" d="M579.1,634.6l2.4-4.4"/>
			<text transform="matrix(-1.6477 2.9496 -2.9496 -1.6477 574.898 632.2479)" class="st1 st2">Pseudomonas</text>
			<path class="st3" d="M581.5,630.2l18.8-33.6"/>
		</g>
		<g>
			<path class="st0" d="M608.3,650.3l2.3-4.4"/>
			<text transform="matrix(-1.5495 3.0024 -3.0024 -1.5495 604.0588 648.0889)" class="st1 st2">Pseudomonas</text>
			<path class="st3" d="M610.6,645.8l35.3-68.4"/>
		</g>
		<g>
			<path class="st0" d="M638.1,665l2.1-4.5"/>
			<text transform="matrix(-1.4495 3.0519 -3.0519 -1.4495 633.7205 662.961)" class="st1 st2">Pseudomonas</text>
			<path class="st3" d="M640.2,660.5l16.5-34.7"/>
		</g>
		<g>
			<path class="st0" d="M668.3,678.8l2-4.6"/>
			<text transform="matrix(-1.3479 3.0981 -3.0981 -1.3479 663.861 676.8449)" class="st1 st2">Pseudomonas</text>
			<path class="st3" d="M670.3,674.2l15.3-35.3"/>
		</g>
		<g>
			<path class="st0" d="M698.9,691.5l1.8-4.6"/>
			<text transform="matrix(-1.2449 3.1409 -3.1409 -1.2449 694.4431 689.7251)" class="st1 st2">Pseudomonas</text>
			<path class="st3" d="M700.7,686.8l28.3-71.5"/>
		</g>
		<g>
			<path class="st0" d="M729.9,703.2l1.7-4.7"/>
			<text transform="matrix(-1.1406 3.1803 -3.1803 -1.1406 725.4324 701.5902)" class="st1 st2">Halomonas</text>
			<path class="st3" d="M731.6,698.5l142.8-398.2"/>
		</g>
		<g>
			<path class="st0" d="M761.4,713.9l1.5-4.8"/>
			<text transform="matrix(-1.0349 3.2162 -3.2162 -1.0349 756.7966 712.4242)" class="st1 st2">Unassigned</text>
			<path class="st3" d="M762.9,709.1l11.8-36.6"/>
		</g>
		<g>
			<path class="st0" d="M793.1,723.5l1.4-4.8"/>
			<text transform="matrix(-0.9282 3.2486 -3.2486 -0.9282 788.5038 722.2191)" class="st1 st2">Unassigned</text>
			<path class="st3" d="M794.5,718.7l10.6-37"/>
		</g>
		<g>
			<path class="st0" d="M825.2,732.1l1.2-4.9"/>
			<text transform="matrix(-0.8205 3.2775 -3.2775 -0.8205 820.5153 730.9596)" class="st1 st2">Rhodoferax</text>
			<path class="st3" d="M826.4,727.3l9.3-37.3"/>
		</g>
		<g>
			<path class="st0" d="M857.5,739.7l1.1-4.9"/>
			<text transform="matrix(-0.7118 3.3028 -3.3028 -0.7118 852.7988 738.6407)" class="st1 st2">Polaromonas</text>
			<path class="st3" d="M858.5,734.8l8.1-37.6"/>
		</g>
		<g>
			<path class="st0" d="M890,746.1l0.9-4.9"/>
			<text transform="matrix(-0.6024 3.3245 -3.3245 -0.6024 885.3168 745.2499)" class="st1 st2">Polaromonas</text>
			<path class="st3" d="M890.9,741.2l13.7-75.7"/>
		</g>
		<g>
			<path class="st0" d="M922.8,751.5l0.7-4.9"/>
			<text transform="matrix(-0.4923 3.3426 -3.3426 -0.4923 918.0327 750.7807)" class="st1 st2">Variovorax</text>
			<path class="st3" d="M923.5,746.5l16.8-114.2"/>
		</g>
		<g>
			<path class="st0" d="M955.7,755.8l0.6-5"/>
			<text transform="matrix(-0.3817 3.357 -3.357 -0.3817 950.9188 755.2316)" class="st1 st2">Massilia</text>
			<path class="st3" d="M956.3,750.8l4.3-38.2"/>
		</g>
		<g>
			<path class="st0" d="M988.7,759l0.4-5"/>
			<text transform="matrix(-0.2706 3.3678 -3.3678 -0.2706 983.9349 758.5934)" class="st1 st2">Massilia</text>
			<path class="st3" d="M989.1,754l3.1-38.3"/>
		</g>
		<g>
			<path class="st0" d="M1021.8,761.1l0.2-5"/>
			<text transform="matrix(-0.1593 3.3749 -3.3749 -0.1593 1017.0375 760.8633)" class="st1 st2">Enterococcus</text>
			<path class="st3" d="M1022.1,756.1l1.8-38.4"/>
		</g>
		<g>
			<path class="st0" d="M1055,762.1l0.1-5"/>
			<text transform="matrix(-4.780886e-02 3.3783 -3.3783 -4.780886e-02 1050.1996 762.0389)" class="st1 st2">Enterococcus</text>
			<path class="st3" d="M1055.1,757.1l0.5-38.5"/>
		</g>
		<g>
			<path class="st0" d="M1088.2,762l-0.1-5"/>
			<text transform="matrix(6.374614e-02 3.378 -3.378 6.374614e-02 1083.3843 762.1196)" class="st1 st2">Enterococcus</text>
			<path class="st3" d="M1088.1,757l-1.5-76.9"/>
		</g>
		<g>
			<path class="st0" d="M1121.3,760.9l-0.3-5"/>
			<text transform="matrix(0.1752 3.3741 -3.3741 0.1752 1116.5533 761.1044)" class="st1 st2">Enterococcus</text>
			<path class="st3" d="M1121.1,755.9l-6-115.2"/>
		</g>
		<g>
			<path class="st0" d="M1154.5,758.6l-0.4-5"/>
			<text transform="matrix(0.2865 3.3664 -3.3664 0.2865 1149.6689 758.9965)" class="st1 st2">Enterococcus</text>
			<path class="st3" d="M1154,753.6l-13-153.3"/>
		</g>
		<g>
			<path class="st0" d="M1187.5,755.2l-0.6-5"/>
			<text transform="matrix(0.3975 3.3551 -3.3551 0.3975 1182.6974 755.7915)" class="st1 st2">Weissella</text>
			<path class="st3" d="M1186.9,750.3l-22.6-191"/>
		</g>
		<g>
			<path class="st0" d="M1220.3,750.8l-0.8-4.9"/>
			<text transform="matrix(0.5081 3.3402 -3.3402 0.5081 1215.6038 751.5035)" class="st1 st2">Staphylococcus</text>
			<path class="st3" d="M1219.6,745.8l-5.8-38"/>
		</g>
		<g>
			<path class="st0" d="M1253.1,745.2l-0.9-4.9"/>
			<text transform="matrix(0.6181 3.3216 -3.3216 0.6181 1248.3485 746.1284)" class="st1 st2">Staphylococcus</text>
			<path class="st3" d="M1252.2,740.3l-7-37.8"/>
		</g>
		<g>
			<path class="st0" d="M1285.6,738.6l-1.1-4.9"/>
			<text transform="matrix(0.7274 3.2994 -3.2994 0.7274 1280.8978 739.6746)" class="st1 st2">Staphylococcus</text>
			<path class="st3" d="M1284.5,733.8l-16.6-75.1"/>
		</g>
		<g>
			<path class="st0" d="M1317.9,731l-1.2-4.8"/>
			<text transform="matrix(0.8359 3.2736 -3.2736 0.8359 1313.2185 732.1517)" class="st1 st2">Staphylococcus</text>
			<path class="st3" d="M1316.6,726.1l-9.5-37.3"/>
		</g>
		<g>
			<path class="st0" d="M1349.9,722.2l-1.4-4.8"/>
			<text transform="matrix(0.9435 3.2442 -3.2442 0.9435 1345.2716 723.5648)" class="st1 st2">Staphylococcus</text>
			<path class="st3" d="M1348.5,717.4l-10.7-36.9"/>
		</g>
		<g>
			<path class="st0" d="M1381.6,712.4l-1.6-4.8"/>
			<text transform="matrix(1.0501 3.2113 -3.2113 1.0501 1377.0238 713.923)" class="st1 st2">Bacillus</text>
			<path class="st3" d="M1380,707.7l-47.8-146.2"/>
		</g>
		<g>
			<path class="st0" d="M1413,701.6l-1.7-4.7"/>
			<text transform="matrix(1.1556 3.1749 -3.1749 1.1556 1408.4418 703.2391)" class="st1 st2">Bacillus</text>
			<path class="st3" d="M1411.2,696.9l-210.5-578.3"/>
		</g>
		<g>
			<path class="st0" d="M1443.9,689.7l-1.9-4.6"/>
			<text transform="matrix(1.2597 3.135 -3.135 1.2597 1439.4885 691.5247)" class="st1 st2">Paenibacillus</text>
			<path class="st3" d="M1442.1,685.1L1198.3,78.4"/>
		</g>
		<g>
			<path class="st0" d="M1474.5,676.9l-2-4.6"/>
			<text transform="matrix(1.3625 3.0917 -3.0917 1.3625 1470.1316 678.7917)" class="st1 st2">Saccharopolyspora</text>
			<path class="st3" d="M1472.5,672.3l-15.5-35.2"/>
		</g>
		<g>
			<path class="st0" d="M1504.7,663l-2.2-4.5"/>
			<text transform="matrix(1.4639 3.045 -3.045 1.4639 1500.3363 665.0551)" class="st1 st2">Saccharopolyspora</text>
			<path class="st3" d="M1502.5,658.5l-16.7-34.7"/>
		</g>
		<g>
			<path class="st0" d="M1534.3,648.1l-2.3-4.4"/>
			<text transform="matrix(1.5636 2.995 -2.995 1.5636 1530.0747 650.3255)" class="st1 st2">Saccharopolyspora</text>
			<path class="st3" d="M1532,643.7l-35.6-68.2"/>
		</g>
		<g>
			<path class="st0" d="M1563.5,632.3l-2.5-4.4"/>
			<text transform="matrix(1.6616 2.9418 -2.9418 1.6616 1559.3102 634.6289)" class="st1 st2">Saccharopolyspora</text>
			<path class="st3" d="M1561,627.9l-18.9-33.5"/>
		</g>
		<g>
			<path class="st0" d="M1592.1,615.5l-2.6-4.3"/>
			<text transform="matrix(-1.7578 -2.8853 2.8853 -1.7578 1667.4692 729.9462)" class="st1 st2">Saccharopolyspora</text>
			<path class="st3" d="M1589.5,611.2l-20-32.8"/>
		</g>
		<g>
			<path class="st0" d="M1620.2,597.7l-2.7-4.2"/>
			<text transform="matrix(-1.8521 -2.8257 2.8257 -1.8521 1699.2552 709.6642)" class="st1 st2">Saccharopolyspora</text>
			<path class="st3" d="M1617.4,593.6l-21.1-32.2"/>
		</g>
		<g>
			<path class="st0" d="M1647.6,579.1l-2.9-4.1"/>
			<text transform="matrix(-1.9444 -2.763 2.763 -1.9444 1730.3577 688.3431)" class="st1 st2">Saccharopolyspora</text>
			<path class="st3" d="M1644.7,575l-22.1-31.5"/>
		</g>
		<g>
			<path class="st0" d="M1674.4,559.6l-3-4"/>
			<text transform="matrix(-2.0346 -2.6973 2.6973 -2.0346 1760.7375 666.008)" class="st1 st2">Saccharopolyspora</text>
			<path class="st3" d="M1671.4,555.6l-23.2-30.7"/>
		</g>
		<g>
			<path class="st0" d="M1700.6,539.1l-3.1-3.9"/>
			<text transform="matrix(-2.1225 -2.6287 2.6287 -2.1225 1790.3636 642.6896)" class="st1 st2">Saccharopolyspora</text>
			<path class="st3" d="M1697.4,535.2l-24.2-29.9"/>
		</g>
		<g>
			<path class="st0" d="M1726.1,517.9l-3.3-3.8"/>
			<text transform="matrix(-2.2081 -2.5572 2.5572 -2.2081 1819.2043 618.3956)" class="st1 st2">Saccharopolyspora</text>
			<path class="st3" d="M1722.8,514.1l-25.1-29.1"/>
		</g>
		<g>
			<path class="st0" d="M1750.8,495.8l-3.4-3.7"/>
			<text transform="matrix(-2.2914 -2.4829 2.4829 -2.2914 1847.2283 593.1653)" class="st1 st2">Saccharopolyspora</text>
			<path class="st3" d="M1747.4,492.1l-26.1-28.3"/>
		</g>
		<g>
			<path class="st0" d="M1774.8,472.9l-3.5-3.6"/>
			<text transform="matrix(-2.3721 -2.4059 2.4059 -2.3721 1815.0786 506.8593)" class="st1 st2">Klenkia</text>
			<path class="st3" d="M1771.3,469.3l-27-27.4"/>
		</g>
		<g>
			<path class="st0" d="M1798.1,449.2l-3.6-3.4"/>
			<text transform="matrix(-2.4502 -2.3263 2.3263 -2.4502 1839.4232 481.8244)" class="st1 st2">Klenkia</text>
			<path class="st3" d="M1794.4,445.7l-27.9-26.5"/>
		</g>
		<g>
			<path class="st0" d="M1820.5,424.7l-3.7-3.3"/>
			<text transform="matrix(-2.5257 -2.2441 2.2441 -2.5257 1930.0809 515.675)" class="st1 st2">Pseudokineococcus</text>
			<path class="st3" d="M1816.8,421.4l-575-510.9"/>
		</g>
		<g>
			<path class="st0" d="M1842.1,399.6l-3.8-3.2"/>
			<text transform="matrix(-2.5984 -2.1595 2.1595 -2.5984 1912.9318 452.166)" class="st1 st2">Leucobacter</text>
			<path class="st3" d="M1838.3,396.4l-29.6-24.6"/>
		</g>
		<g>
			<path class="st0" d="M1862.9,373.7l-3.9-3.1"/>
			<text transform="matrix(-2.6683 -2.0725 2.0725 -2.6683 1935.4102 423.9325)" class="st1 st2">Leucobacter</text>
			<path class="st3" d="M1859,370.6l-30.4-23.6"/>
		</g>
		<g>
			<path class="st0" d="M1882.8,347.2l-4-2.9"/>
			<text transform="matrix(-2.7352 -1.9833 1.9833 -2.7352 1956.9486 394.9725)" class="st1 st2">Leucobacter</text>
			<path class="st3" d="M1878.8,344.2l-62.3-45.2"/>
		</g>
		<g>
			<path class="st0" d="M1901.9,320l-4.1-2.8"/>
			<text transform="matrix(-2.7992 -1.8919 1.8919 -2.7992 1977.5219 365.3178)" class="st1 st2">Leucobacter</text>
			<path class="st3" d="M1897.7,317.2l-95.6-64.6"/>
		</g>
		<g>
			<path class="st0" d="M1920,292.2l-4.2-2.7"/>
			<text transform="matrix(-2.8601 -1.7985 1.7985 -2.8601 1997.104 335.0022)" class="st1 st2">Leucobacter</text>
			<path class="st3" d="M1915.8,289.5l-130.2-81.9"/>
		</g>
		<g>
			<path class="st0" d="M1937.2,263.8l-4.3-2.5"/>
			<text transform="matrix(-2.918 -1.7031 1.7031 -2.918 2027.1877 310.7745)" class="st1 st2">Schumannella</text>
			<path class="st3" d="M1932.9,261.3l-33.2-19.4"/>
		</g>
		<g>
			<path class="st0" d="M1953.4,234.9l-4.4-2.4"/>
			<text transform="matrix(-2.9726 -1.6058 1.6058 -2.9726 2044.9408 278.8455)" class="st1 st2">Schumannella</text>
			<path class="st3" d="M1949,232.5l-33.8-18.3"/>
		</g>
		<g>
			<path class="st0" d="M1968.7,205.4l-4.5-2.2"/>
			<text transform="matrix(-3.024 -1.5068 1.5068 -3.024 2046.4957 238.8085)" class="st1 st2">Herbiconiux</text>
			<path class="st3" d="M1964.3,203.2l-34.4-17.2"/>
		</g>
		<g>
			<path class="st0" d="M1983,175.5l-4.5-2.1"/>
			<text transform="matrix(-3.0721 -1.4062 1.4062 -3.0721 2061.8611 206.282)" class="st1 st2">Herbiconiux</text>
			<path class="st3" d="M1978.5,173.4l-35-16"/>
		</g>
		<g>
			<path class="st0" d="M1996.4,145.1l-4.6-1.9"/>
			<text transform="matrix(-3.1168 -1.304 1.304 -3.1168 2099.1077 182.8725)" class="st1 st2">Curtobacterium</text>
			<path class="st3" d="M1991.7,143.2l-35.5-14.8"/>
		</g>
		<g>
			<path class="st0" d="M2008.7,114.3l-4.7-1.8"/>
			<text transform="matrix(-3.1582 -1.2004 1.2004 -3.1582 2112.6001 148.64)" class="st1 st2">Curtobacterium</text>
			<path class="st3" d="M2004,112.5l-36-13.7"/>
		</g>
		<g>
			<path class="st0" d="M2019.9,83.1l-4.7-1.6"/>
			<text transform="matrix(-3.1961 -1.0954 1.0954 -3.1961 2145.1663 120.9091)" class="st1 st2">Pseudoclavibacter</text>
			<path class="st3" d="M2015.2,81.4l-72.8-24.9"/>
		</g>
		<g>
			<path class="st0" d="M2030.2,51.5l-4.8-1.5"/>
			<text transform="matrix(-3.2305 -0.9893 0.9893 -3.2305 2136.1406 78.9271)" class="st1 st2">Microbacterium</text>
			<path class="st3" d="M2025.4,50l-110.3-33.8"/>
		</g>
		<g>
			<path class="st0" d="M2039.4,19.6l-4.8-1.3"/>
			<text transform="matrix(-3.2614 -0.8821 0.8821 -3.2614 2156.4993 46.3202)" class="st1 st2">Brachybacterium</text>
			<path class="st3" d="M2034.5,18.3l-37.1-10"/>
		</g>
		<g>
			<path class="st0" d="M2047.5-12.6l-4.9-1.1"/>
			<text transform="matrix(-3.2888 -0.774 0.774 -3.2888 2165.4497 10.2688)" class="st1 st2">Brachybacterium</text>
			<path class="st3" d="M2042.6-13.7l-37.4-8.8"/>
		</g>
		<g>
			<path class="st0" d="M2054.6-45l-4.9-1"/>
			<text transform="matrix(-3.3125 -0.665 0.665 -3.3125 2147.9524 -31.1317)" class="st1 st2">Sanguibacter</text>
			<path class="st3" d="M2049.7-46l-75.4-15.1"/>
		</g>
		<g>
			<path class="st0" d="M2060.6-77.6l-4.9-0.8"/>
			<text transform="matrix(-3.3327 -0.5553 0.5553 -3.3327 2110.4885 -74.1687)" class="st1 st2">Salana</text>
			<path class="st3" d="M2055.6-78.4l-37.9-6.3"/>
		</g>
		<g>
			<path class="st0" d="M2065.5-110.4l-5-0.7"/>
			<text transform="matrix(-3.3492 -0.4449 0.4449 -3.3492 2115.4888 -108.636)" class="st1 st2">Salana</text>
			<path class="st3" d="M2060.5-111.1l-38.1-5.1"/>
		</g>
		<g>
			<path class="st0" d="M2069.3-143.4l-5-0.5"/>
			<text transform="matrix(-3.362 -0.3341 0.3341 -3.362 2175.0928 -137.7101)" class="st1 st2">Quadrisphaera</text>
			<path class="st3" d="M2064.3-143.9l-842-83.7"/>
		</g>
		<g>
			<path class="st0" d="M2072-176.5l-5-0.3"/>
			<text transform="matrix(-3.3712 -0.223 0.223 -3.3712 2177.9617 -174.274)" class="st1 st2">Quadrisphaera</text>
			<path class="st3" d="M2067-176.8l-882.7-58.4"/>
		</g>
		<g>
			<path class="st0" d="M2073.7-209.6l-5-0.2"/>
			<text transform="matrix(-3.3768 -0.1115 0.1115 -3.3768 2180.4775 -210.8879)" class="st1 st2">Brevibacterium</text>
			<path class="st3" d="M2068.7-209.8l-922.6-30.5"/>
		</g>
		<g>
			<path class="st0" d="M2074.2-242.8h-5"/>
			<text transform="matrix(-3.3786 0 0 -3.3786 2180.926 -247.5922)" class="st1 st2">Brevibacterium</text>
			<path class="st3" d="M2069.2-242.8l-923.1,0"/>
		</g>
		<g>
			<path class="st3" d="M1962.3,113.6l-35.7-14.3 M1956.3,128.3c4.1-9.8,8-19.6,11.8-29.5"/>
		</g>
		<g>
			<path class="st3" d="M1934.8,78l-36.1-13.4 M1926.5,99.4c5.6-14.2,10.9-28.4,15.9-42.9"/>
		</g>
		<g>
			<path class="st3" d="M1907.2,40.6l-109.3-37 M1898.7,64.7c5.9-16,11.4-32.1,16.4-48.4"/>
		</g>
		<g>
			<path class="st3" d="M1818.8,359.5l-30-24.1 M1808.7,371.8c6.8-8.1,13.4-16.4,19.9-24.7"/>
		</g>
		<g>
			<path class="st3" d="M1802.9,317.4l-30.6-23.3 M1788.8,335.4c9.5-11.9,18.8-24,27.7-36.3"/>
		</g>
		<g>
			<path class="st3" d="M1787.5,273.5l-31.2-22.4 M1772.3,294.1c10.3-13.5,20.3-27.4,29.8-41.5"/>
		</g>
		<g>
			<path class="st3" d="M1771.2,229.6l-31.9-21.5 M1756.3,251.1c10.2-14.2,19.9-28.7,29.2-43.5"/>
		</g>
		<g>
			<path class="st3" d="M1936.8,171.8l-34.7-16.6 M1929.8,186c4.7-9.5,9.3-19,13.7-28.6"/>
		</g>
		<g>
			<path class="st3" d="M1907.5,228.1l-33.5-18.8 M1899.7,241.9c5.3-9.1,10.5-18.4,15.5-27.7"/>
		</g>
		<g>
			<path class="st3" d="M1888.5,182.5l-102.4-53.2 M1874,209.3c10-17.7,19.3-35.8,28.1-54.1"/>
		</g>
		<g>
			<path class="st3" d="M1763.8,169.4l-33.1-19.6 M1739.3,208.1c17.1-25.4,32.7-51.7,46.8-78.8"/>
		</g>
		<g>
			<path class="st3" d="M1768.2,78.4l-34.9-16.1 M1730.8,149.7c27.4-46.2,49.9-95.2,67.2-146.1"/>
		</g>
		<g>
			<path class="st3" d="M2020.2-100.4l-76.1-11.4 M2017.7-84.8c1.7-10.4,3.3-20.9,4.7-31.4"/>
		</g>
		<g>
			<path class="st3" d="M2001.4-7.1l-37.3-9.4 M1997.4,8.3c2.8-10.2,5.4-20.5,7.8-30.8"/>
		</g>
		<g>
			<path class="st3" d="M1969.5-38.8l-37.5-8.5 M1964.1-16.5c3.7-14.8,7.1-29.6,10.1-44.6"/>
		</g>
		<g>
			<path class="st3" d="M1938.6-79.4l-151.2-28.4 M1932-47.3c4.8-21.4,8.9-42.9,12.1-64.6"/>
		</g>
		<g>
			<path class="st3" d="M1765.5-21.1l-513.1-163.4 M1733.2,62.4c25-54.3,43.2-111.5,54.2-170.2"/>
		</g>
		<g>
			<path class="st3" d="M976.4,714.3l48.3-497.7 M960.6,712.6c10.5,1.2,21.1,2.2,31.6,3.1"/>
		</g>
		<g>
			<path class="st3" d="M851.2,693.7l8.7-37.5 M835.7,690c10.3,2.6,20.6,5,30.9,7.2"/>
		</g>
		<g>
			<path class="st3" d="M882.2,661.1l7.8-37.7 M859.9,656.2c14.8,3.5,29.8,6.5,44.8,9.3"/>
		</g>
		<g>
			<path class="st3" d="M915.1,628.3l67-378.7 M890,623.5c16.7,3.5,33.5,6.4,50.3,8.9"/>
		</g>
		<g>
			<path class="st3" d="M789.8,677.3l122.9-404.8 M774.7,672.5c10.1,3.2,20.2,6.3,30.4,9.2"/>
		</g>
		<g>
			<path class="st3" d="M671.1,632.5l15.9-35 M656.7,625.8c9.6,4.5,19.2,8.9,28.9,13.1"/>
		</g>
		<g>
			<path class="st3" d="M707.9,606.6l15.1-35.4 M687,597.4c13.9,6.3,27.9,12.3,42.1,17.9"/>
		</g>
		<g>
			<path class="st3" d="M586.5,588.8l19.3-33.3 M572.8,580.7c9.1,5.5,18.2,10.8,27.5,15.9"/>
		</g>
		<g>
			<path class="st3" d="M625.7,566.8l18.5-33.7 M605.8,555.5c13.2,7.7,26.5,15,40.1,22"/>
		</g>
		<g>
			<path class="st3" d="M683.1,553.1l117.5-242.2 M644.2,533c25.6,14,51.9,26.8,78.8,38.2"/>
		</g>
		<g>
			<path class="st3" d="M284.2,312.4l31.4-22.2 M275.1,299.4c6,8.7,12.1,17.4,18.3,25.9"/>
		</g>
		<g>
			<path class="st3" d="M329,308.7l61.7-46 M315.6,290.2c8.8,12.4,17.9,24.7,27.3,36.7"/>
		</g>
		<g>
			<path class="st3" d="M217.9,204.2l34.1-17.9 M210.6,190.1c4.8,9.5,9.7,18.8,14.8,28.1"/>
		</g>
		<g>
			<path class="st3" d="M262.8,206.4l33.6-18.7 M252,186.3c7.1,13.5,14.5,26.8,22.2,39.9"/>
		</g>
		<g>
			<path class="st3" d="M309.2,209.9l33-19.7 M296.4,187.7c8.3,14.9,17,29.5,26.2,43.9"/>
		</g>
		<g>
			<path class="st3" d="M365.5,227.1l127.9-85.4 M342.2,190.2c14.9,25,31.1,49.2,48.5,72.6"/>
		</g>
		<g>
			<path class="st3" d="M166.4,88.2l144.4-53 M161.1,73.3c3.5,10,7.1,19.9,10.9,29.8"/>
		</g>
		<g>
			<path class="st3" d="M138.1-2.7l37.2-9.6 M134.3-18.1c2.5,10.3,5.1,20.5,7.9,30.7"/>
		</g>
		<g>
			<path class="st3" d="M181.4,9.8l74-21 M175.4-12.3c3.8,14.8,8,29.4,12.5,44"/>
		</g>
		<g>
			<path class="st3" d="M114.6-127.4l38.2-4.6 M112.9-143.2c1.1,10.5,2.4,21,3.8,31.5"/>
		</g>
		<g>
			<path class="st3" d="M155.8-109.4l38.1-5.6 M152.8-132c1.8,15.1,4,30.2,6.6,45.2"/>
		</g>
		<g>
			<path class="st3" d="M198-89.7l37.9-6.7 M193.9-114.9c2.5,16.9,5.4,33.6,8.8,50.3"/>
		</g>
		<g>
			<path class="st3" d="M244.5-53.6l37.5-8.6 M235.8-96.4c5,28.7,11.6,57.1,19.5,85.1"/>
		</g>
		<g>
			<path class="st3" d="M294.9-13l36.9-10.9 M282-62.2c7.6,33,17.2,65.6,28.9,97.4"/>
		</g>
		<g>
			<path class="st3" d="M345.2,17.2l36.2-13 M331.8-23.9c8.2,27.7,18,54.8,29.2,81.4"/>
		</g>
		<g>
			<path class="st3" d="M393.1,34.6L428.7,20 M381.4,4.2c7.3,20.5,15.6,40.6,24.8,60.3"/>
		</g>
		<g>
			<path class="st3" d="M458.1,82.4l34-18.1 M428.7,20c17.5,42.6,39.2,83.4,64.7,121.7"/>
		</g>
		<g>
			<path class="st3" d="M456.4,498.1l73.5-88.9 M444.2,487.9c8,6.9,16.2,13.6,24.5,20.2"/>
		</g>
		<g>
			<path class="st3" d="M408.8,456.1l52.8-55.9 M397.4,445.1c7.6,7.4,15.3,14.7,23.1,21.8"/>
		</g>
		<g>
			<path class="st3" d="M342.9,387.3l29.1-25.2 M332.6,375.3c6.8,8.1,13.7,16.1,20.8,24"/>
		</g>
		<g>
			<path class="st3" d="M387.2,379.2l28.4-25.9 M372,362.1c10,11.5,20.3,22.8,30.8,33.8"/>
		</g>
		<g>
			<path class="st3" d="M438.2,377.2l27.4-27 M415.6,353.3c14.8,16.2,30.1,31.8,46,46.9"/>
		</g>
		<g>
			<path class="st3" d="M497,380.6l26-28.3 M465.6,350.2c20.4,20.8,41.9,40.5,64.3,59"/>
		</g>
		<g>
			<path class="st3" d="M553.8,379.1l24.5-29.6 M523,352.2c20.1,18.4,41,35.8,62.9,52.1"/>
		</g>
		<g>
			<path class="st3" d="M603.5,369.4l23.3-30.6 M578.3,349.5c16.5,13.7,33.6,26.7,51.2,38.9"/>
		</g>
		<g>
			<path class="st3" d="M648.9,355l44.2-62.9 M626.8,338.8c14.5,11,29.4,21.5,44.7,31.4"/>
		</g>
		<g>
			<path class="st3" d="M579.2,190.1l28.8-25.5 M492,64.4C540.2,155,609.1,233,693.1,292"/>
		</g>
		<g>
			<path class="st3" d="M697,247.3l23.3-30.6 M608,164.6c53.9,61,119.4,110.8,192.6,146.3"/>
		</g>
		<g>
			<path class="st3" d="M794.2,264.4l18.3-33.8 M720.3,216.7c46.8,35.6,98.8,63.8,154.2,83.6"/>
		</g>
		<g>
			<path class="st3" d="M861.6,254l14.8-35.5 M812.5,230.5c31.9,17.3,65.5,31.3,100.2,41.9"/>
		</g>
		<g>
			<path class="st3" d="M928.4,237l10.8-36.9 M876.4,218.5c34,14.2,69.4,24.6,105.7,31"/>
		</g>
		<g>
			<path class="st3" d="M981.6,210.3l7.3-37.8 M939.2,200.1c27.9,8.2,56.5,13.7,85.4,16.5"/>
		</g>
		<g>
			<path class="st3" d="M1322.5,684.8l-20.3-74.2 M1307.1,688.9c10.3-2.6,20.5-5.4,30.6-8.4"/>
		</g>
		<g>
			<path class="st3" d="M1229.5,705.3l-6.4-37.9 M1213.8,707.8c10.5-1.6,20.9-3.4,31.3-5.3"/>
		</g>
		<g>
			<path class="st3" d="M1245.6,663.3l-7.3-37.8 M1223.1,667.4c15-2.5,30-5.5,44.9-8.7"/>
		</g>
		<g>
			<path class="st3" d="M1270.4,618.7l-8.7-37.5 M1238.2,625.5c21.5-4.2,42.8-9.2,64-14.9"/>
		</g>
		<g>
			<path class="st3" d="M1297.1,572.1l-20.7-74.1 M1261.6,581.2c23.8-5.6,47.4-12.1,70.6-19.7"/>
		</g>
		<g>
			<path class="st3" d="M1039.7,718.3l1.2-38.4 M1023.9,717.7c10.6,0.5,21.2,0.8,31.7,1"/>
		</g>
		<g>
			<path class="st3" d="M1063.8,680.3l0.2-38.5 M1040.9,679.9c15.2,0.5,30.5,0.6,45.7,0.3"/>
		</g>
		<g>
			<path class="st3" d="M1089.6,641.6l-0.9-38.5 M1064,641.8c17,0.1,34.1-0.3,51.1-1.2"/>
		</g>
		<g>
			<path class="st3" d="M1114.9,602.1l-2.1-38.4 M1088.7,603.1c17.5-0.4,34.9-1.3,52.3-2.8"/>
		</g>
		<g>
			<path class="st3" d="M1138.5,561.9l-3.3-38.3 M1112.8,563.7c17.2-0.9,34.4-2.4,51.5-4.4"/>
		</g>
		<g>
			<path class="st3" d="M1206.4,514.1l-61.7-340.6 M1135.2,523.6c47.7-4.1,95-12.7,141.2-25.6"/>
		</g>
		<g>
			<path class="st3" d="M1066.7,180.3l0.2-38.5 M988.9,172.6c51.4,10,104.3,10.3,155.8,0.9"/>
		</g>
		<g>
			<path class="st3" d="M1134.9,136.2l-6.6-37.9 M1067,141.8c45.6,0.3,90.9-7.6,133.8-23.2"/>
		</g>
		<g>
			<path class="st3" d="M1163.8,90.2l-10.5-37 M1128.3,98.3c24-4.2,47.4-10.8,70-19.9"/>
		</g>
		<g>
			<path class="st3" d="M1344.3-1164.2l-22,73.7 M1359.4-1159.5c-10.1-3.2-20.2-6.2-30.4-9.1"/>
		</g>
		<g>
			<path class="st3" d="M1434-1132.4l-14.6,35.6 M1448.7-1126.3c-9.7-4.2-19.5-8.2-29.4-12"/>
		</g>
		<g>
			<path class="st3" d="M1398.2-1105.3l-13.7,35.9 M1419.4-1096.8c-14.1-5.8-28.3-11.2-42.7-16.3"/>
		</g>
		<g>
			<path class="st3" d="M1353.6-1080.5l-12.4,36.4 M1384.5-1069.3c-20.5-7.8-41.2-14.9-62.2-21.1"/>
		</g>
		<g>
			<path class="st3" d="M1306.2-1055.1l-10.8,36.9 M1341.2-1044c-23.2-7.9-46.6-14.7-70.4-20.5"/>
		</g>
		<g>
			<path class="st3" d="M1251.8-1186.8l-29.2,151 M1267.4-1183.7c-10.4-2.2-20.7-4.2-31.2-6"/>
		</g>
		<g>
			<path class="st3" d="M1259.2-1027.8l-9,37.4 M1295.5-1018.2c-24-7-48.3-12.9-72.9-17.6"/>
		</g>
		<g>
			<path class="st3" d="M1094.2-1204l-1,38.4 M1110-1203.5c-10.6-0.4-21.2-0.7-31.7-0.8"/>
		</g>
		<g>
			<path class="st3" d="M1070.3-1165.9l0,38.5 M1093.2-1165.6c-15.2-0.4-30.5-0.4-45.7-0.1"/>
		</g>
		<g>
			<path class="st3" d="M1189.1-1196.8l-4.8,38.2 M1204.8-1194.7c-10.5-1.5-21-2.8-31.5-4"/>
		</g>
		<g>
			<path class="st3" d="M1161.6-1161.2l-3.8,38.3 M1184.3-1158.7c-15.1-1.9-30.3-3.4-45.5-4.6"/>
		</g>
		<g>
			<path class="st3" d="M1114.1-1126.3l-5.8,115.2 M1157.7-1123c-29.1-2.9-58.3-4.4-87.5-4.4"/>
		</g>
		<g>
			<path class="st3" d="M1179.7-1004.1l-5.5,38.1 M1250.2-990.4c-46.6-11.3-94.1-18.2-142-20.6"/>
		</g>
		<g>
			<path class="st3" d="M935.8-1195l5.3,38.1 M951.6-1197.1c-10.5,1.3-21,2.8-31.4,4.4"/>
		</g>
		<g>
			<path class="st3" d="M999-1201.8l2.8,38.4 M1014.8-1202.8c-10.6,0.6-21.1,1.4-31.7,2.3"/>
		</g>
		<g>
			<path class="st3" d="M971.4-1160.7l4.1,38.2 M1001.8-1163.4c-20.3,1.5-40.5,3.6-60.6,6.5"/>
		</g>
		<g>
			<path class="st3" d="M873.3-1184.2l15.7,75.3 M888.9-1187.3c-10.4,2-20.8,4.1-31.1,6.5"/>
		</g>
		<g>
			<path class="st3" d="M932.1-1116.7l23.9,152 M975.5-1122.4c-29.1,3.1-57.9,7.6-86.5,13.6"/>
		</g>
		<g>
			<path class="st3" d="M1065-973.5l0.4,76.9 M1174.2-966c-72.4-10.5-146-10.1-218.2,1.3"/>
		</g>
		<g>
			<path class="st3" d="M1792.5-876.4l-28.9,25.3 M1802.9-864.3c-6.8-8.1-13.8-16-20.9-23.9"/>
		</g>
		<g>
			<path class="st3" d="M1748.3-868l-84.9,78.2 M1763.6-851c-10-11.5-20.4-22.7-31-33.6"/>
		</g>
		<g>
			<path class="st3" d="M1869.7-775.6l-32,21.3 M1878.3-762.3c-5.7-8.9-11.6-17.7-17.6-26.4"/>
		</g>
		<g>
			<path class="st3" d="M1903.1-721.6l-33.4,19.2 M1910.9-707.8c-5.1-9.3-10.4-18.4-15.8-27.5"/>
		</g>
		<g>
			<path class="st3" d="M1854.1-728.6l-32.7,20.2 M1869.7-702.4c-10.1-17.6-20.8-34.9-32.1-51.8"/>
		</g>
		<g>
			<path class="st3" d="M1801.5-739l-31.8,21.6 M1821.4-708.4c-12.8-20.7-26.5-40.9-41-60.4"/>
		</g>
		<g>
			<path class="st3" d="M1751.6-743.1l-31,22.7 M1769.7-717.4c-11.8-17.3-24.2-34.3-37.2-50.7"/>
		</g>
		<g>
			<path class="st3" d="M1693-755.9l-29.7,24.4 M1720.6-720.4c-17.7-24.2-36.8-47.4-57.2-69.5"/>
		</g>
		<g>
			<path class="st3" d="M1970.4-578l-36,13.4 M1975.8-563.1c-3.5-10-7.2-19.9-11.1-29.8"/>
		</g>
		<g>
			<path class="st3" d="M1926.1-586l-35.7,14.3 M1934.4-564.6c-5.3-14.3-11-28.4-17-42.4"/>
		</g>
		<g>
			<path class="st3" d="M1880.6-595.2l-35.3,15.3 M1890.4-571.7c-6.3-15.8-13.1-31.5-20.4-46.9"/>
		</g>
		<g>
			<path class="st3" d="M2013.3-425.4l-37.8,7.3 M2016.2-409.8c-1.8-10.4-3.8-20.8-6-31.2"/>
		</g>
		<g>
			<path class="st3" d="M1970.9-440.5l-37.6,8.2 M1975.5-418.1c-2.9-15-6.2-29.9-9.8-44.7"/>
		</g>
		<g>
			<path class="st3" d="M1990.6-517.8l-73.7,22 M1995-502.6c-2.9-10.2-5.9-20.3-9.1-30.4"/>
		</g>
		<g>
			<path class="st3" d="M1925.7-464.2l-37.2,9.6 M1933.3-432.2c-4.7-21.4-10.2-42.6-16.4-63.6"/>
		</g>
		<g>
			<path class="st3" d="M1869.3-518.1l-36.4,12.5 M1888.4-454.6c-11.1-42.9-25.5-84.8-43.1-125.4"/>
		</g>
		<g>
			<path class="st3" d="M1812.7-558.5l-35.4,15 M1833-505.6c-12.3-35.7-27.1-70.6-44.3-104.2"/>
		</g>
		<g>
			<path class="st3" d="M1727-641.6l-32.9,19.9 M1777.3-543.4c-28.8-67.8-67.2-131.1-114-188"/>
		</g>
		<g>
			<path class="st3" d="M1653.7-1006.3l-46.8,61.1 M1666.2-996.6c-8.3-6.6-16.7-13-25.2-19.3"/>
		</g>
		<g>
			<path class="st3" d="M1726.3-944.8l-26.3,28.1 M1737.8-933.8c-7.6-7.4-15.3-14.6-23.2-21.7"/>
		</g>
		<g>
			<path class="st3" d="M1683.1-932.1l-25.6,28.7 M1700-916.7c-11.1-10.4-22.5-20.6-34.1-30.4"/>
		</g>
		<g>
			<path class="st3" d="M1632.6-924.8l-24.5,29.7 M1657.6-903.4c-16.4-14.6-33.3-28.5-50.7-41.8"/>
		</g>
		<g>
			<path class="st3" d="M1579.4-917.9l-23.2,30.7 M1608.1-895.1c-18.9-15.6-38.4-30.3-58.5-44.2"/>
		</g>
		<g>
			<path class="st3" d="M1531.2-905.3l-22,31.5 M1556.2-887.2c-16.4-12.4-33.3-24.2-50.6-35.3"/>
		</g>
		<g>
			<path class="st3" d="M1486.5-889l-20.9,32.3 M1509.2-873.8c-15-10.4-30.3-20.4-46-29.7"/>
		</g>
		<g>
			<path class="st3" d="M1593.2-752.1l-27.6,26.8 M1694.1-621.6c-57.4-94.7-135.5-175-228.5-235.1"/>
		</g>
		<g>
			<path class="st3" d="M1520.2-1092l-18,34 M1534.2-1084.4c-9.3-5.1-18.6-10.1-28-14.9"/>
		</g>
		<g>
			<path class="st3" d="M1481.9-1068.5l-103.2,206.4 M1502.2-1058c-13.5-7.1-27.1-14-40.9-20.4"/>
		</g>
		<g>
			<path class="st3" d="M1477.9-801.6l-22.7,31 M1565.7-725.3c-54.2-55.8-117.4-102-186.9-136.7"/>
		</g>
		<g>
			<path class="st3" d="M1270.5-864.9l-11.8,36.6 M1455.2-770.5c-113.1-82.7-249.7-126.9-389.8-126.1"/>
		</g>
		<g>
			<path class="st3" d="M1087.1-857.9l-7.8,269.1 M1258.6-828.3c-111.5-36.1-231-39.6-344.5-10"/>
		</g>
		<g>
			<path class="st3" d="M109.1-190.7l38.4-2.1 M108.4-206.5c0.4,10.6,1,21.1,1.7,31.7"/>
		</g>
		<g>
			<path class="st3" d="M107.7-254.1l38.5,0.5 M108.1-270c-0.3,10.6-0.4,21.2-0.4,31.7"/>
		</g>
		<g>
			<path class="st3" d="M146.4-223.2l538.3-11.4 M146.2-253.7c-0.2,20.3,0.2,40.6,1.3,60.9"/>
		</g>
		<g>
			<path class="st3" d="M128.8-443.2l37.6,8 M132.2-458.6c-2.4,10.3-4.6,20.7-6.6,31.1"/>
		</g>
		<g>
			<path class="st3" d="M161.9-412.7l37.8,7.1 M166.4-435.1c-3.2,14.9-6,29.9-8.4,44.9"/>
		</g>
		<g>
			<path class="st3" d="M195.4-380.5l379.9,59.9 M199.7-405.6c-3.1,16.7-5.8,33.6-8,50.5"/>
		</g>
		<g>
			<path class="st3" d="M153.2-535.2l366.4,117 M158.2-550.3c-3.4,10-6.6,20.1-9.7,30.2"/>
		</g>
		<g>
			<path class="st3" d="M199.7-653.3l34.8,16.4 M206.6-667.6c-4.7,9.5-9.2,19.1-13.6,28.7"/>
		</g>
		<g>
			<path class="st3" d="M225-616.1l35.2,15.6 M234.5-636.8c-6.5,13.8-12.7,27.7-18.5,41.8"/>
		</g>
		<g>
			<path class="st3" d="M250.2-577l249.3,101.7 M260.2-600.5c-6.9,15.6-13.3,31.4-19.3,47.3"/>
		</g>
		<g>
			<path class="st3" d="M244.6-737.2l33,19.8 M252.8-750.8c-5.6,9-11,18.1-16.3,27.2"/>
		</g>
		<g>
			<path class="st3" d="M266-697.7L500.3-565 M277.5-717.5c-7.8,13.1-15.3,26.3-22.5,39.8"/>
		</g>
		<g>
			<path class="st3" d="M316.9-841.5l120.4,95.8 M326.8-853.9c-6.7,8.2-13.3,16.5-19.8,24.8"/>
		</g>
		<g>
			<path class="st3" d="M402.3-935.4l26.7,27.7 M413.8-946.3c-7.7,7.2-15.4,14.6-22.9,22"/>
		</g>
		<g>
			<path class="st3" d="M449.4-977.9l24.8,29.4 M461.6-988c-8.2,6.7-16.3,13.5-24.3,20.5"/>
		</g>
		<g>
			<path class="st3" d="M451.2-928.5l25.7,28.6 M474.2-948.5c-15.5,13.1-30.6,26.7-45.3,40.8"/>
		</g>
		<g>
			<path class="st3" d="M450.4-874.9l26.9,27.5 M477-899.9c-18.1,16.3-35.5,33.3-52.2,51.1"/>
		</g>
		<g>
			<path class="st3" d="M455.2-825l27.9,26.5 M477.3-847.4c-15,14.7-29.4,29.9-43.2,45.6"/>
		</g>
		<g>
			<path class="st3" d="M459.6-772.7l29,25.2 M483.1-798.6c-16.1,16.9-31.4,34.6-45.9,52.8"/>
		</g>
		<g>
			<path class="st3" d="M279-790.6L437-681 M288.1-803.6c-6.2,8.6-12.2,17.3-18.1,26.1"/>
		</g>
		<g>
			<path class="st3" d="M461.9-714.9l60.7,47.2 M488.6-747.4C470.2-726.2,453-704.1,437-681"/>
		</g>
		<g>
			<path class="st3" d="M606.2-1085.5l18.5,33.7 M620.2-1093.1c-9.4,4.9-18.6,10-27.8,15.3"/>
		</g>
		<g>
			<path class="st3" d="M604.9-1040.6l38.7,66.5 M624.8-1051.8c-13.4,7.3-26.5,15-39.5,23"/>
		</g>
		<g>
			<path class="st3" d="M691.8-1127.2l15.1,35.4 M706.5-1133.3c-9.8,4-19.5,8.1-29.2,12.5"/>
		</g>
		<g>
			<path class="st3" d="M686-1082.6l16,35 M706.9-1091.8c-14,6-27.9,12.3-41.6,19"/>
		</g>
		<g>
			<path class="st3" d="M781.2-1160.2l11.5,36.7 M796.3-1164.8c-10.1,3-20.2,6.2-30.3,9.5"/>
		</g>
		<g>
			<path class="st3" d="M771-1116.4l12.4,36.4 M792.7-1123.5c-14.5,4.6-29,9.5-43.3,14.8"/>
		</g>
		<g>
			<path class="st3" d="M742.3-1064.8l14.2,35.7 M783.4-1080c-27.6,9.4-54.8,20.2-81.4,32.4"/>
		</g>
		<g>
			<path class="st3" d="M699-1003.7l16.8,34.6 M756.5-1029c-39,15.5-76.7,33.9-113,55"/>
		</g>
		<g>
			<path class="st3" d="M668.7-944.2l19.1,33.4 M715.8-969.1c-32,15.6-62.9,33.2-92.6,52.9"/>
		</g>
		<g>
			<path class="st3" d="M655.1-891.1l20.7,32.4 M687.8-910.8c-22.1,12.6-43.5,26.3-64.2,41"/>
		</g>
		<g>
			<path class="st3" d="M650.8-841.9l22,31.5 M675.9-858.7c-16.9,10.8-33.4,22.3-49.4,34.5"/>
		</g>
		<g>
			<path class="st3" d="M592.4-744.7l26.5,27.9 M672.8-810.4c-56.9,39.8-107.5,87.8-150.1,142.7"/>
		</g>
		<g>
			<path class="st3" d="M554-645.3l30.3,23.7 M618.9-716.8c-46.8,44.5-86.7,95.6-118.6,151.8"/>
		</g>
		<g>
			<path class="st3" d="M536.8-551.4l33.3,19.3 M584.3-621.6c-34.9,44.6-63.4,93.9-84.8,146.4"/>
		</g>
		<g>
			<path class="st3" d="M541.8-476.5l35.2,15.6 M570.1-532.1c-20.9,36-37.8,74.2-50.5,113.9"/>
		</g>
		<g>
			<path class="st3" d="M561.3-421.5l36.3,12.8 M576.9-460.9c-11.5,25.9-20.9,52.6-28.1,80"/>
		</g>
		<g>
			<path class="st3" d="M584.4-365.2l37.3,9.4 M597.6-408.7c-10.1,28.6-17.5,58.1-22.2,88.1"/>
		</g>
		<g>
			<path class="st3" d="M614.4-321.2l37.9,6.5 M621.7-355.8c-5.8,22.8-9.8,46.1-12,69.5"/>
		</g>
		<g>
			<path class="st3" d="M649-291.8l38.2,4.5 M652.3-314.7c-2.6,15.2-4.4,30.6-5.4,46"/>
		</g>
		<g>
			<path class="st3" d="M685-261l38.4,1.8 M687.2-287.3c-2,17.5-2.9,35.1-2.5,52.7"/>
		</g>
		<g>
			<path class="st3" d="M834-496.7l26.1,28.2 M1079.3-588.8c-188.6-5.5-346.9,141.1-355.8,329.6"/>
		</g>
		<g>
			<path class="st3" d="M801-92l33.5-18.8 M860.1-468.5C755.7-371.8,731.3-216.1,801-92s215.4,184.1,352.3,145.2"/>
		</g>
		<g>
			<path class="st3" d="M1755.5,430.7L1618.3,296 M1744.3,441.9c7.5-7.4,14.9-15,22.2-22.7"/>
		</g>
		<g>
			<path class="st3" d="M1609.5,552.6l-64.8-95.4 M1596.3,561.4c8.9-5.8,17.6-11.7,26.3-17.8"/>
		</g>
		<g>
			<path class="st3" d="M1555.9,586.5l-38.9-66.3 M1542.1,594.4c9.2-5.2,18.3-10.6,27.4-16.1"/>
		</g>
		<g>
			<path class="st3" d="M1471.5,630.6l-16.1-34.9 M1457,637.1c9.7-4.3,19.3-8.7,28.8-13.3"/>
		</g>
		<g>
			<path class="st3" d="M1476,585.8l-17-34.5 M1455.4,595.6c13.8-6.4,27.5-13.1,41-20.1"/>
		</g>
		<g>
			<path class="st3" d="M1488.3,536.3l-18.2-33.9 M1459.1,551.3c19.7-9.7,39-20,57.9-31.1"/>
		</g>
		<g>
			<path class="st3" d="M1508,480.7l-19.9-32.9 M1470.1,502.4c25.6-13.8,50.5-28.9,74.6-45.3"/>
		</g>
		<g>
			<path class="st3" d="M1709.6,474.5l-25.6-28.7 M1697.6,485c8-6.9,15.9-14,23.7-21.1"/>
		</g>
		<g>
			<path class="st3" d="M1660.8,515.2l-23.7-30.3 M1648.3,524.9c8.4-6.4,16.8-12.9,25-19.5"/>
		</g>
		<g>
			<path class="st3" d="M1660.9,465.7l-74-88.6 M1637.2,484.9c16-12.5,31.6-25.5,46.8-39.1"/>
		</g>
		<g>
			<path class="st3" d="M1538.8,414.4l-22.4-31.3 M1488,447.8c34.7-21,67.8-44.7,98.9-70.7"/>
		</g>
		<g>
			<path class="st3" d="M1569.3,341.7l-325-379.9 M1516.5,383.1c36.4-26,70.5-55.2,101.8-87.1"/>
		</g>
		<g>
			<path class="st3" d="M1022.2,22.3l6.7-37.9 M834.5-110.9C874-40.6,942.9,8.2,1022.2,22.3s160.8-8.1,222-60.5"/>
		</g>
		<g>
			<path class="st3" d="M1145-24.8l-12.6-36.3 M1028.9-15.6c79,14,159.6-14,212.8-73.9"/>
		</g>
		<g>
			<path class="st3" d="M1207-108.6l-27.5-26.8 M1132.3-61.1c57.2-19.9,101.7-65.6,120.1-123.3"/>
		</g>
		<g>
			<path class="st3" d="M1208.7-177.9l-34.9-16.2 M1179.4-135.4c24.3-25,39.4-57.5,42.9-92.1"/>
		</g>
		<g>
			<path class="st3" d="M1181-214.1l-37.3-9.5 M1173.8-194.1c6-12.9,9.6-26.9,10.5-41.1"/>
		</g>
		<g>
			<path class="st3" d="M1145.5-233.2l-38.2-4.8 M1143.7-223.7c1.6-6.2,2.4-12.7,2.4-19.1"/>
		</g>
	</g>
	<g id="scaleHolder">
	</g>
	<g id="bootstrapHolder">
	</g>
	<g id="branchlengthHolder">
	</g>
	<g id="branchIDHolder">
	</g>
	<g id="datasetHolder">
	</g>
</g>
<g id="wrapperHolder">
</g>
<g id="legendHolder">
</g>
</svg>
